<?xml version="1.0" encoding="utf-8"?>
<!-- Generator: Adobe Illustrator 16.0.0, SVG Export Plug-In . SVG Version: 6.00 Build 0)  -->
<!DOCTYPE svg PUBLIC "-//W3C//DTD SVG 1.1//EN" "http://www.w3.org/Graphics/SVG/1.1/DTD/svg11.dtd">
<svg version="1.1" id="Layer_1" xmlns="http://www.w3.org/2000/svg" xmlns:xlink="http://www.w3.org/1999/xlink" x="0px" y="0px"
	 width="612px" height="792px" viewBox="0 0 612 792" enable-background="new 0 0 612 792" xml:space="preserve">
<g>
	<g>
		<g>
			<path fill="#FFFFFF" d="M275.706,528.6c0-5.63-4.57-10.199-10.2-10.199h-0.102c-5.63,0-10.149,4.569-10.149,10.199
				s4.621,10.199,10.251,10.199S275.706,534.23,275.706,528.6z"/>
			<path fill="#FFFFFF" d="M499.8,661.2c5.641,0,10.199-4.569,10.199-10.199v-61.2c0-5.63-4.559-10.199-10.199-10.199h-102
				c-5.641,0-10.199,4.569-10.199,10.199v61.2c0,5.63,4.559,10.199,10.199,10.199s10.2-4.569,10.2-10.199V600h81.6v51.001
				C489.6,656.631,494.159,661.2,499.8,661.2z"/>
			<path fill="#FFFFFF" d="M459,273.6c5.641,0,10.199-4.57,10.199-10.2s-4.559-10.2-10.199-10.2h-40.8
				c-5.641,0-10.199,4.57-10.199,10.2s4.559,10.2,10.199,10.2H459z"/>
			<path fill="#FFFFFF" d="M357,661.2c5.641,0,10.2-4.569,10.2-10.199v-61.2c0-5.63-4.56-10.199-10.2-10.199H255.001
				c-5.63,0-10.2,4.569-10.2,10.199v61.2c0,5.63,4.57,10.199,10.2,10.199s10.199-4.569,10.199-10.199V600h81.601v51.001
				C346.8,656.631,351.359,661.2,357,661.2z"/>
			<path fill="#FFFFFF" d="M540.601,273.6c5.641,0,10.199-4.57,10.199-10.2s-4.559-10.2-10.199-10.2h-40.8
				c-5.641,0-10.199,4.57-10.199,10.2s4.559,10.2,10.199,10.2H540.601z"/>
			<path fill="#FFFFFF" d="M561,90H51c-28.122,0-51,22.878-51,51v61.2c0,5.63,4.57,10.2,10.2,10.2H561
				c5.641,0,10.199-4.57,10.199-10.2s-4.559-10.199-10.199-10.199H20.4v-51c0-16.871,13.729-30.6,30.6-30.6h510
				c16.87,0,30.6,13.729,30.6,30.6v510c0,16.87-13.729,30.6-30.6,30.6H51c-16.871,0-30.6-13.729-30.6-30.6V243
				c0-5.63-4.57-10.2-10.2-10.2S0,237.37,0,243v408c0,28.122,22.878,51,51,51h510C589.122,702,612,679.122,612,651V141
				C612,112.878,589.122,90,561,90z"/>
			<path fill="#FFFFFF" d="M102,324.601V487.8c0,5.63,4.57,10.2,10.2,10.2H214.2c2.703,0,5.294-1.071,7.211-2.988l74.389-74.39
				l33.588,33.589c3.987,3.987,10.436,3.987,14.423,0l53.988-53.989l53.989,53.989c3.988,3.987,10.435,3.987,14.422,0
				c3.989-3.989,3.989-10.436,0-14.423l-61.199-61.2c-3.988-3.988-10.436-3.988-14.423,0l-53.989,53.99l-33.588-33.589
				c-3.989-3.987-10.435-3.987-14.423,0l-78.611,78.611H122.4V334.8h367.2v142.801H275.4c-5.63,0-10.2,4.569-10.2,10.199
				s4.57,10.2,10.2,10.2h224.4c5.641,0,10.199-4.57,10.199-10.2V324.601c0-5.63-4.559-10.2-10.199-10.2H112.2
				C106.569,314.399,102,318.969,102,324.601z"/>
			<path fill="#FFFFFF" d="M377.399,273.6c5.641,0,10.2-4.57,10.2-10.2s-4.56-10.2-10.2-10.2h-40.8
				c-5.641,0-10.199,4.57-10.199,10.2s4.559,10.2,10.199,10.2H377.399z"/>
			<path fill="#FFFFFF" d="M183.6,151.2c0,11.25,9.149,20.4,20.4,20.4c11.25,0,20.4-9.149,20.4-20.4c0-11.25-9.149-20.4-20.4-20.4
				S183.6,139.95,183.6,151.2z"/>
			<path fill="#FFFFFF" d="M214.2,661.2c5.63,0,10.199-4.569,10.199-10.199v-61.2c0-5.63-4.569-10.199-10.199-10.199h-102
				c-5.63,0-10.199,4.569-10.199,10.199v61.2c0,5.63,4.569,10.199,10.199,10.199s10.2-4.569,10.2-10.199V600H204v51.001
				C204,656.631,208.57,661.2,214.2,661.2z"/>
			<path fill="#FFFFFF" d="M153,253.2H71.399c-5.63,0-10.199,4.57-10.199,10.2s4.569,10.199,10.199,10.199H153
				c5.63,0,10.2-4.569,10.2-10.199S158.63,253.2,153,253.2z"/>
			<path fill="#FFFFFF" d="M122.4,151.2c0,11.25,9.149,20.4,20.4,20.4s20.4-9.149,20.4-20.4c0-11.25-9.149-20.4-20.4-20.4
				S122.4,139.95,122.4,151.2z"/>
			<path fill="#FFFFFF" d="M61.2,151.2c0,11.25,9.149,20.4,20.4,20.4c11.25,0,20.4-9.149,20.4-20.4c0-11.25-9.149-20.4-20.4-20.4
				S61.2,139.95,61.2,151.2z"/>
			<path fill="#FFFFFF" d="M357.307,528.6c0-5.63-4.57-10.199-10.2-10.199h-0.102c-5.63,0-10.149,4.569-10.149,10.199
				s4.621,10.199,10.251,10.199S357.307,534.23,357.307,528.6z"/>
			<path fill="#FFFFFF" d="M316.506,528.6c0-5.63-4.57-10.199-10.2-10.199h-0.102c-5.629,0-10.149,4.569-10.149,10.199
				s4.61,10.199,10.25,10.199C311.936,538.801,316.506,534.23,316.506,528.6z"/>
			<path fill="#FFFFFF" d="M163.2,385.8c0,16.871,13.729,30.6,30.6,30.6s30.6-13.729,30.6-30.6s-13.729-30.6-30.6-30.6
				S163.2,368.93,163.2,385.8z M204,385.8c0,5.621-4.579,10.2-10.2,10.2c-5.62,0-10.2-4.579-10.2-10.2c0-5.62,4.58-10.2,10.2-10.2
				C199.42,375.6,204,380.18,204,385.8z"/>
		</g>
	</g>
</g>
</svg>
