<?xml version="1.0" encoding="utf-8"?>
<!-- Generator: Adobe Illustrator 16.0.0, SVG Export Plug-In . SVG Version: 6.00 Build 0)  -->
<!DOCTYPE svg PUBLIC "-//W3C//DTD SVG 1.1//EN" "http://www.w3.org/Graphics/SVG/1.1/DTD/svg11.dtd">
<svg version="1.1" id="_x31__x2C_5" xmlns="http://www.w3.org/2000/svg" xmlns:xlink="http://www.w3.org/1999/xlink" x="0px"
	 y="0px" width="512px" height="512px" viewBox="0 0 512 512" enable-background="new 0 0 512 512" xml:space="preserve">
<path fill="#FFFFFF" d="M453.333,490.667H58.667C26.304,490.667,0,464.362,0,432V80c0-32.363,26.304-58.667,58.667-58.667h394.667
	C485.696,21.333,512,47.637,512,80v352C512,464.362,485.696,490.667,453.333,490.667z M58.667,53.333C43.968,53.333,32,65.301,32,80
	v352c0,14.698,11.968,26.667,26.667,26.667h394.667C468.032,458.667,480,446.698,480,432V80c0-14.699-11.968-26.667-26.667-26.667
	H58.667z"/>
<path fill="#FFFFFF" d="M496,128H16c-8.832,0-16-7.168-16-16s7.168-16,16-16h480c8.832,0,16,7.168,16,16S504.832,128,496,128z"/>
<path fill="#FFFFFF" d="M325.333,352c-3.69,0-7.381-1.259-10.41-3.861c-6.699-5.76-7.488-15.851-1.729-22.57l23.062-26.902
	l-23.082-26.922c-5.761-6.699-4.971-16.811,1.728-22.571c6.741-5.76,16.832-4.971,22.57,1.728l32,37.333
	c5.142,5.995,5.142,14.827,0,20.843l-32,37.333C334.314,350.102,329.835,352,325.333,352L325.333,352z"/>
<path fill="#FFFFFF" d="M186.667,352c-4.501,0-8.981-1.898-12.16-5.59l-32-37.333c-5.142-5.995-5.142-14.827,0-20.843l32-37.333
	c5.76-6.699,15.851-7.509,22.57-1.728c6.699,5.76,7.488,15.85,1.728,22.571l-23.061,26.922l23.083,26.924
	c5.76,6.698,4.971,16.811-1.728,22.57C194.069,350.721,190.357,352,186.667,352L186.667,352z"/>
<path fill="#FFFFFF" d="M240,384c-1.195,0-2.389-0.128-3.605-0.405c-8.619-1.983-13.973-10.581-12.011-19.179l32-138.667
	c1.984-8.598,10.581-13.91,19.179-12.011c8.619,1.984,13.974,10.582,12.011,19.179l-32,138.667C253.888,379.008,247.296,384,240,384
	L240,384z"/>
</svg>
