<?xml version="1.0" encoding="utf-8"?>
<!-- Generator: Adobe Illustrator 16.0.0, SVG Export Plug-In . SVG Version: 6.00 Build 0)  -->
<!DOCTYPE svg PUBLIC "-//W3C//DTD SVG 1.1//EN" "http://www.w3.org/Graphics/SVG/1.1/DTD/svg11.dtd">
<svg version="1.1" id="Layer_1" focusable="false" xmlns="http://www.w3.org/2000/svg" xmlns:xlink="http://www.w3.org/1999/xlink"
	 x="0px" y="0px" width="612px" height="792px" viewBox="0 0 612 792" enable-background="new 0 0 612 792" xml:space="preserve">
<path fill="#FFFFFF" d="M605.111,591.514C624.724,625.508,600.106,668,560.937,668H51.058c-39.246,0-63.749-42.559-44.176-76.486
	l254.942-442.03c19.622-34.009,68.766-33.948,88.352,0L605.111,591.514L605.111,591.514z M306,500.125
	c-26.993,0-48.875,21.882-48.875,48.875s21.882,48.875,48.875,48.875c26.993,0,48.875-21.882,48.875-48.875
	S332.993,500.125,306,500.125z M259.598,324.445l7.881,144.5c0.369,6.762,5.959,12.055,12.731,12.055h51.58
	c6.771,0,12.362-5.293,12.73-12.055l7.882-144.5c0.398-7.304-5.416-13.445-12.73-13.445h-67.345
	C265.013,311,259.199,317.141,259.598,324.445L259.598,324.445z"/>
</svg>
