<?xml version="1.0" encoding="utf-8"?>
<!-- Generator: Adobe Illustrator 16.0.0, SVG Export Plug-In . SVG Version: 6.00 Build 0)  -->
<!DOCTYPE svg PUBLIC "-//W3C//DTD SVG 1.1//EN" "http://www.w3.org/Graphics/SVG/1.1/DTD/svg11.dtd">
<svg version="1.1" id="Capa_1" xmlns="http://www.w3.org/2000/svg" xmlns:xlink="http://www.w3.org/1999/xlink" x="0px" y="0px"
	 width="512px" height="512px" viewBox="0 0 512 512" enable-background="new 0 0 512 512" xml:space="preserve">
<path fill="#FFFFFF" d="M484.333,256c0-19.731-2.515-39.248-7.485-58.162l28.9-21.26l-56.093-97.155l-32.912,14.42
	c-28.139-27.938-62.594-47.847-100.69-58.18L312.092,0H199.907l-3.962,35.662c-38.095,10.333-72.55,30.242-100.688,58.18
	l-32.913-14.42L6.252,176.577l28.899,21.261c-4.97,18.914-7.484,38.432-7.484,58.162c0,19.73,2.515,39.248,7.484,58.162
	l-28.899,21.26l56.092,97.155l32.913-14.42c28.139,27.938,62.594,47.848,100.688,58.18L199.907,512h112.186l3.962-35.663
	c38.097-10.332,72.552-30.242,100.69-58.18l32.912,14.42l56.093-97.155l-28.9-21.26C481.819,295.245,484.333,275.73,484.333,256
	L484.333,256z M315.551,221.661l21.435-20.991l54.861,56.02l-56.019,54.862l-20.99-21.433l34.585-33.872L315.551,221.661z
	 M249.345,360.423l-29.357-6.18l42.667-202.666l29.356,6.18L249.345,360.423z M197.162,290.118l-20.99,21.433l-56.02-54.863
	l54.862-56.019l21.434,20.991l-33.872,34.586L197.162,290.118z"/>
</svg>
