<?xml version="1.0" encoding="utf-8"?>
<!-- Generator: Adobe Illustrator 16.0.0, SVG Export Plug-In . SVG Version: 6.00 Build 0)  -->
<!DOCTYPE svg PUBLIC "-//W3C//DTD SVG 1.1//EN" "http://www.w3.org/Graphics/SVG/1.1/DTD/svg11.dtd">
<svg version="1.1" id="Capa_1" xmlns="http://www.w3.org/2000/svg" xmlns:xlink="http://www.w3.org/1999/xlink" x="0px" y="0px"
	 width="612px" height="792px" viewBox="0 0 612 792" enable-background="new 0 0 612 792" xml:space="preserve">
<g>
	<g>
		<path fill="#FFFFFF" d="M146.348,302.871H93.13c-22.005,0-39.913,17.908-39.913,39.913v133.044
			c0,7.344,5.947,13.304,13.305,13.304c7.357,0,13.304-5.96,13.304-13.304v-39.913h79.826v39.913
			c0,7.344,5.947,13.304,13.304,13.304s13.304-5.96,13.304-13.304V342.784C186.261,320.779,168.353,302.871,146.348,302.871z
			 M159.652,409.306H79.826v-66.521c0-7.331,5.96-13.304,13.304-13.304h53.217c7.344,0,13.305,5.974,13.305,13.304V409.306z"/>
	</g>
</g>
<g>
	<g>
		<path fill="#FFFFFF" d="M319.305,302.871h-53.218c-7.357,0-13.304,5.96-13.304,13.305v159.652c0,7.344,5.947,13.304,13.304,13.304
			s13.304-5.96,13.304-13.304v-39.913h39.914c36.68,0,66.521-29.842,66.521-66.522S355.984,302.871,319.305,302.871z
			 M319.305,409.306h-39.914V329.48h39.914c22.005,0,39.913,17.908,39.913,39.913S341.31,409.306,319.305,409.306z"/>
	</g>
</g>
<g>
	<g>
		<path fill="#FFFFFF" d="M545.479,462.523h-39.913V329.48h39.913c7.357,0,13.304-5.96,13.304-13.304
			c0-7.344-5.946-13.305-13.304-13.305H439.044c-7.357,0-13.305,5.96-13.305,13.305c0,7.344,5.947,13.304,13.305,13.304h39.913
			v133.043h-39.913c-7.357,0-13.305,5.96-13.305,13.305c0,7.344,5.947,13.304,13.305,13.304h106.435
			c7.357,0,13.304-5.96,13.304-13.304C558.782,468.483,552.836,462.523,545.479,462.523z"/>
	</g>
</g>
<g>
	<g>
		<path fill="#FFFFFF" d="M572.087,169.828H364.726l-49.319-49.319c-5.202-5.202-13.61-5.202-18.813,0l-49.319,49.319H39.913
			C17.908,169.828,0,187.735,0,209.741v39.913c0,7.344,5.947,13.304,13.304,13.304c7.357,0,13.305-5.96,13.305-13.304v-39.913
			c0-7.331,5.96-13.304,13.304-13.304h212.87c3.539,0,6.918-1.397,9.406-3.898L306,148.727l43.812,43.811
			c2.487,2.501,5.867,3.898,9.406,3.898h212.869c7.344,0,13.305,5.974,13.305,13.304v39.913c0,7.344,5.946,13.304,13.304,13.304
			S612,256.998,612,249.654v-39.913C612,187.735,594.093,169.828,572.087,169.828z"/>
	</g>
</g>
<g>
	<g>
		<path fill="#FFFFFF" d="M598.695,529.045c-7.357,0-13.304,5.961-13.304,13.305v39.913c0,7.33-5.961,13.304-13.305,13.304H359.218
			c-3.539,0-6.919,1.397-9.406,3.898L306,643.276l-43.811-43.812c-2.488-2.501-5.867-3.898-9.406-3.898H39.913
			c-7.344,0-13.304-5.974-13.304-13.304V542.35c0-7.344-5.947-13.305-13.305-13.305C5.947,529.045,0,535.006,0,542.35v39.913
			c0,22.005,17.908,39.913,39.913,39.913h207.361l49.319,49.319c2.594,2.594,6,3.897,9.406,3.897c3.406,0,6.812-1.304,9.406-3.897
			l49.319-49.319h207.361c22.006,0,39.913-17.908,39.913-39.913V542.35C612,535.006,606.053,529.045,598.695,529.045z"/>
	</g>
</g>
</svg>
