<?xml version="1.0" encoding="utf-8"?>
<!-- Generator: Adobe Illustrator 16.0.0, SVG Export Plug-In . SVG Version: 6.00 Build 0)  -->
<!DOCTYPE svg PUBLIC "-//W3C//DTD SVG 1.1//EN" "http://www.w3.org/Graphics/SVG/1.1/DTD/svg11.dtd">
<svg version="1.1" id="Capa_1" xmlns="http://www.w3.org/2000/svg" xmlns:xlink="http://www.w3.org/1999/xlink" x="0px" y="0px"
	 width="612px" height="792px" viewBox="0 0 612 792" enable-background="new 0 0 612 792" xml:space="preserve">
<g>
	<g>
		<path fill="#FFFFFF" d="M558.211,177.927H53.789C24.13,177.927,0,202.057,0,231.716v328.569c0,29.659,24.13,53.789,53.789,53.789
			h504.422c29.659,0,53.789-24.13,53.789-53.789V231.716C612,202.056,587.87,177.927,558.211,177.927z M576.141,560.285
			c0,9.887-8.043,17.93-17.93,17.93H53.789c-9.886,0-17.93-8.043-17.93-17.93V302.724h540.281V560.285z M576.141,266.864H35.859
			v-35.148c0-9.886,8.043-17.93,17.93-17.93h504.422c9.887,0,17.93,8.043,17.93,17.93V266.864z"/>
	</g>
</g>
<g>
	<g>
		<path fill="#FFFFFF" d="M205.284,349.698c-31.974,0-57.987,26.014-57.987,57.987v78.246c0,9.902,8.027,17.93,17.93,17.93
			c9.902,0,17.93-8.027,17.93-17.93v-33.988h44.254v33.988c0,9.902,8.028,17.93,17.93,17.93s17.93-8.027,17.93-17.93v-78.246
			C263.271,375.712,237.258,349.698,205.284,349.698z M227.412,416.085h-44.254v-8.398h-0.001c0-12.202,9.927-22.127,22.127-22.127
			s22.127,9.926,22.127,22.127V416.085L227.412,416.085z"/>
	</g>
</g>
<g>
	<g>
		<path fill="#FFFFFF" d="M352.922,349.698H306c-9.902,0-17.93,8.028-17.93,17.93v118.304c0,9.902,8.028,17.93,17.93,17.93
			c9.902,0,17.93-8.027,17.93-17.93v-33.988h28.992c28.189,0,51.124-22.935,51.124-51.124
			C404.046,372.632,381.111,349.698,352.922,349.698z M352.922,416.085H323.93v-30.526h28.992c8.416,0,15.265,6.848,15.265,15.264
			C368.187,409.24,361.338,416.085,352.922,416.085z"/>
	</g>
</g>
<g>
	<g>
		<path fill="#FFFFFF" d="M446.773,349.698c-9.902,0-17.93,8.028-17.93,17.93v118.304c0,9.902,8.027,17.93,17.93,17.93
			c9.901,0,17.93-8.027,17.93-17.93V367.628C464.703,357.726,456.675,349.698,446.773,349.698z"/>
	</g>
</g>
</svg>
