<?xml version="1.0" encoding="utf-8"?>
<!-- Generator: Adobe Illustrator 16.0.0, SVG Export Plug-In . SVG Version: 6.00 Build 0)  -->
<!DOCTYPE svg PUBLIC "-//W3C//DTD SVG 1.1//EN" "http://www.w3.org/Graphics/SVG/1.1/DTD/svg11.dtd">
<svg version="1.1" id="Capa_1" xmlns="http://www.w3.org/2000/svg" xmlns:xlink="http://www.w3.org/1999/xlink" x="0px" y="0px"
	 width="612px" height="792px" viewBox="0 0 612 792" enable-background="new 0 0 612 792" xml:space="preserve">
<g>
	<g>
		<path fill="#FFFFFF" d="M306,90C137.02,90,0,227.02,0,396s137.02,306,306,306c28.221,0,51-22.779,51-51
			c0-13.26-4.93-25.16-13.26-34.17c-7.989-9.01-12.75-20.739-12.75-33.831c0-28.22,22.779-51,51-51h60.009
			c93.841,0,170.001-76.16,170.001-170C612,211.72,474.98,90,306,90z M119,396c-28.221,0-51-22.779-51-51s22.779-51,51-51
			s51,22.779,51,51S147.219,396,119,396z M221,260c-28.221,0-51-22.779-51-51c0-28.22,22.779-51,51-51s51,22.78,51,51
			C272,237.221,249.219,260,221,260z M390.999,260c-28.22,0-51-22.779-51-51c0-28.22,22.78-51,51-51c28.221,0,51,22.78,51,51
			C441.999,237.221,419.22,260,390.999,260z M492.999,396c-28.22,0-51-22.779-51-51s22.78-51,51-51C521.22,294,544,316.779,544,345
			S521.22,396,492.999,396z"/>
	</g>
</g>
</svg>
