<?xml version="1.0" encoding="utf-8"?>
<!-- Generator: Adobe Illustrator 16.0.0, SVG Export Plug-In . SVG Version: 6.00 Build 0)  -->
<!DOCTYPE svg PUBLIC "-//W3C//DTD SVG 1.1//EN" "http://www.w3.org/Graphics/SVG/1.1/DTD/svg11.dtd">
<svg version="1.1" id="Layer_1" focusable="false" xmlns="http://www.w3.org/2000/svg" xmlns:xlink="http://www.w3.org/1999/xlink"
	 x="0px" y="0px" width="612px" height="792px" viewBox="0 0 612 792" enable-background="new 0 0 612 792" xml:space="preserve">
<path fill="#FFFFFF" d="M228.469,199.491L133.939,294H25.5C11.411,294,0,305.411,0,319.5v153C0,486.578,11.411,498,25.5,498h108.439
	l94.53,94.51c15.97,15.969,43.531,4.749,43.531-18.031V217.521C272,194.72,244.417,183.542,228.469,199.491z M476.372,145.218
	c-11.868-7.788-27.816-4.505-35.604,7.384c-7.799,11.868-4.483,27.816,7.385,35.604c70.411,46.208,112.434,123.887,112.434,207.804
	c0,83.916-42.022,161.596-112.434,207.804c-11.868,7.777-15.184,23.736-7.385,35.594c7.479,11.379,23.301,15.47,35.604,7.385
	C561.287,591.054,612,497.288,612,396S561.287,200.957,476.372,145.218z M510,396c0-67.5-34.063-129.562-91.131-166.005
	c-11.889-7.586-27.656-4.059-35.189,7.926c-7.533,11.985-4.017,27.848,7.873,35.445C433.787,300.343,459,346.179,459,396
	c0,49.82-25.213,95.657-67.447,122.634c-11.89,7.586-15.406,23.449-7.873,35.445c6.917,11.007,22.439,16.086,35.189,7.926
	C475.937,525.562,510,463.512,510,396z M359.369,314.326c-12.304-6.726-27.826-2.295-34.647,10.041
	c-6.79,12.335-2.296,27.837,10.04,34.648C348.479,366.547,357,380.732,357,396c0,15.278-8.521,29.452-22.228,36.985
	c-12.336,6.811-16.83,22.313-10.041,34.648c6.832,12.389,22.366,16.787,34.648,10.041c29.994-16.522,48.631-47.813,48.631-81.686
	C408.011,362.117,389.374,330.837,359.369,314.326z"/>
</svg>
