<?xml version="1.0" encoding="utf-8"?>
<!-- Generator: Adobe Illustrator 16.0.0, SVG Export Plug-In . SVG Version: 6.00 Build 0)  -->
<!DOCTYPE svg PUBLIC "-//W3C//DTD SVG 1.1//EN" "http://www.w3.org/Graphics/SVG/1.1/DTD/svg11.dtd">
<svg version="1.1" id="Layer_1" focusable="false" xmlns="http://www.w3.org/2000/svg" xmlns:xlink="http://www.w3.org/1999/xlink"
	 x="0px" y="0px" width="612px" height="792px" viewBox="0 0 612 792" enable-background="new 0 0 612 792" xml:space="preserve">
<path fill="#FFFFFF" d="M306,90C136.959,90,0,226.959,0,396c0,169.04,136.959,306,306,306c169.04,0,306-136.96,306-306
	C612,226.959,475.04,90,306,90z M306,208.452c59.966,0,108.581,48.614,108.581,108.581S365.966,425.613,306,425.613
	c-59.966,0-108.581-48.615-108.581-108.581S246.034,208.452,306,208.452z M306,632.903c-72.428,0-137.33-32.821-180.762-84.15
	c23.197-43.679,68.604-73.785,121.537-73.785c2.961,0,5.922,0.493,8.76,1.357c16.041,5.182,32.821,8.514,50.465,8.514
	s34.549-3.332,50.465-8.514c2.838-0.864,5.8-1.357,8.761-1.357c52.934,0,98.34,30.106,121.536,73.785
	C443.33,600.082,378.429,632.903,306,632.903z"/>
</svg>
