<?xml version="1.0" encoding="utf-8"?>
<!-- Generator: Adobe Illustrator 16.0.0, SVG Export Plug-In . SVG Version: 6.00 Build 0)  -->
<!DOCTYPE svg PUBLIC "-//W3C//DTD SVG 1.1//EN" "http://www.w3.org/Graphics/SVG/1.1/DTD/svg11.dtd">
<svg version="1.1" id="Layer_1" xmlns="http://www.w3.org/2000/svg" xmlns:xlink="http://www.w3.org/1999/xlink" x="0px" y="0px"
	 width="612px" height="792px" viewBox="0 0 612 792" enable-background="new 0 0 612 792" xml:space="preserve">
<g>
	<g>
		<path fill="#FFFFFF" d="M577.599,348.008l0.955,0.209H169.031l128.739-129.022c6.304-6.299,9.762-14.833,9.762-23.789
			s-3.458-17.43-9.762-23.744l-20.032-20.042c-6.299-6.299-14.693-9.782-23.644-9.782c-8.956,0-17.354,3.458-23.654,9.757
			L9.757,372.259C3.433,378.583-0.025,387.007,0,395.968c-0.025,9.011,3.433,17.439,9.757,23.754L230.44,640.404
			c6.299,6.294,14.693,9.758,23.654,9.758c8.951,0,17.345-3.469,23.644-9.758l20.032-20.042c6.304-6.289,9.762-14.688,9.762-23.644
			c0-8.951-3.458-16.907-9.762-23.201L167.579,443.773h410.478c18.444,0,33.943-15.897,33.943-34.332v-28.346
			C612,362.661,596.043,348.008,577.599,348.008z"/>
	</g>
</g>
</svg>
