<?xml version="1.0" encoding="utf-8"?>
<!-- Generator: Adobe Illustrator 16.0.0, SVG Export Plug-In . SVG Version: 6.00 Build 0)  -->
<!DOCTYPE svg PUBLIC "-//W3C//DTD SVG 1.1//EN" "http://www.w3.org/Graphics/SVG/1.1/DTD/svg11.dtd">
<svg version="1.1" id="Layer_1" focusable="false" xmlns="http://www.w3.org/2000/svg" xmlns:xlink="http://www.w3.org/1999/xlink"
	 x="0px" y="0px" width="612px" height="792px" viewBox="0 0 612 792" enable-background="new 0 0 612 792" xml:space="preserve">
<path fill="#FFFFFF" d="M600.238,541.2c-26.393-28.36-75.776-71.022-75.776-210.771c0-106.144-74.423-191.113-174.775-211.96V90
	c0-24.139-19.562-43.714-43.687-43.714S262.313,65.861,262.313,90v28.469C161.961,139.315,87.538,224.285,87.538,330.429
	c0,139.749-49.384,182.411-75.776,210.771C3.565,550.011-0.068,560.543,0,570.857c0.15,22.403,17.731,43.714,43.851,43.714h524.298
	c26.119,0,43.714-21.311,43.851-43.714C612.068,560.543,608.435,549.997,600.238,541.2L600.238,541.2z M92.251,549
	c28.988-38.209,60.681-101.54,60.831-217.779c0-0.273-0.082-0.519-0.082-0.792c0-84.505,68.495-153,153-153
	c84.505,0,153,68.495,153,153c0,0.273-0.082,0.519-0.082,0.792c0.15,116.253,31.843,179.584,60.831,217.779H92.251z M306,745.714
	c48.25,0,87.388-39.138,87.388-87.428H218.612C218.612,706.576,257.75,745.714,306,745.714z"/>
</svg>
