<?xml version="1.0" encoding="utf-8"?>
<!-- Generator: Adobe Illustrator 16.0.0, SVG Export Plug-In . SVG Version: 6.00 Build 0)  -->
<!DOCTYPE svg PUBLIC "-//W3C//DTD SVG 1.1//EN" "http://www.w3.org/Graphics/SVG/1.1/DTD/svg11.dtd">
<svg version="1.1" id="Layer_1" focusable="false" xmlns="http://www.w3.org/2000/svg" xmlns:xlink="http://www.w3.org/1999/xlink"
	 x="0px" y="0px" width="612px" height="792px" viewBox="0 0 612 792" enable-background="new 0 0 612 792" xml:space="preserve">
<path fill="#FFFFFF" d="M497.25,472.5H382.5c-21.037,0-38.25-17.213-38.25-38.25S361.463,396,382.5,396h114.75
	c0,0,114.75-127.898,114.75-191.25S560.602,90,497.25,90S382.5,141.398,382.5,204.75c0,30.48,26.536,75.783,54.147,114.75H382.5
	c-63.232,0-114.75,51.518-114.75,114.75c0,63.232,51.518,114.75,114.75,114.75h114.75c21.037,0,38.25,17.213,38.25,38.25
	s-17.213,38.25-38.25,38.25H221.73c-19.125,29.644-40.401,57.017-56.538,76.5H497.25C560.482,702,612,650.482,612,587.25
	S560.482,472.5,497.25,472.5z M497.25,166.5c21.157,0,38.25,17.093,38.25,38.25S518.407,243,497.25,243S459,225.907,459,204.75
	S476.093,166.5,497.25,166.5z M114.75,396C51.398,396,0,447.398,0,510.75S114.75,702,114.75,702S229.5,574.102,229.5,510.75
	S178.102,396,114.75,396z M114.75,549c-21.157,0-38.25-17.093-38.25-38.25s17.093-38.25,38.25-38.25S153,489.593,153,510.75
	S135.907,549,114.75,549z"/>
</svg>
