<?xml version="1.0" encoding="utf-8"?>
<!-- Generator: Adobe Illustrator 16.0.0, SVG Export Plug-In . SVG Version: 6.00 Build 0)  -->
<!DOCTYPE svg PUBLIC "-//W3C//DTD SVG 1.1//EN" "http://www.w3.org/Graphics/SVG/1.1/DTD/svg11.dtd">
<svg version="1.1" id="Layer_1" xmlns="http://www.w3.org/2000/svg" xmlns:xlink="http://www.w3.org/1999/xlink" x="0px" y="0px"
	 width="612px" height="792px" viewBox="0 0 612 792" enable-background="new 0 0 612 792" xml:space="preserve">
<g>
	<g transform="translate(0.000000,511.000000) scale(0.100000,-0.100000)">
		<path fill="#FFFFFF" d="M986.299,4009.141c-200.796-49.57-377.422-153.794-532.441-313.896
			C194.614,3427.129,61.201,3086.553,61.201,2693.892c0-411.753,148.652-771.362,432.07-1039.482
			c191.86-182.988,402.817-278.276,664.634-301.162c78.765-6.367,405.386-12.729,726.87-12.729h584.521l25.4-72.461
			c31.763-90.21,78.765-129.619,127.051-108.018c53.364,24.17,66.094,68.604,36.841,132.188
			c-19.033,41.924-24.111,82.622-24.111,181.704c0,114.385,3.794,133.418,35.557,194.434
			c214.751,410.469,822.163,282.134,845.054-177.91c3.789-68.604-1.289-116.89-15.244-157.588
			c-26.68-77.539-25.4-110.527,2.568-135.986c25.4-22.891,74.971-27.969,101.66-10.161c8.867,5.083,30.479,43.208,47.002,85.132
			l30.469,74.971l702.763,6.362l702.695,6.367l123.262,43.203c429.502,147.432,745.967,543.887,832.314,1036.973
			c29.258,174.116,17.813,467.632-26.68,635.381c-127.051,472.71-470.195,833.604-888.252,934.033
			c-101.66,24.111-156.309,25.4-2073.886,24.111C1166.777,4033.252,1080.361,4031.968,986.299,4009.141z M5052.734,3697.754
			c256.67-61.016,485.439-279.561,583.291-559.121c31.768-92.778,35.557-118.179,34.336-273.198
			c0-152.51-3.857-182.988-34.336-273.193c-91.494-274.482-293.574-475.283-574.355-574.365l-101.65-35.557l-571.855-3.794
			c-632.812-5.078-616.347-2.568-616.347-85.127c0-77.544-10.156-76.255,583.301-76.255c393.945,0,565.488,5.078,629.014,16.523
			c242.715,45.713,477.783,189.351,641.738,390.146l41.924,50.859l-21.602-50.859c-76.26-190.635-242.725-373.623-426.992-470.2
			c-153.799-80.049-172.832-82.617-908.574-82.617h-662.06l-21.611,54.653c-30.469,81.333-123.252,189.351-210.957,247.798
			c-207.158,138.496-472.705,139.78-683.662,3.794c-83.843-54.653-180.479-167.749-216.035-251.592l-21.602-54.653h-673.506
			c-748.477,0-766.289,2.568-920.019,82.617c-180.479,95.293-326.567,256.675-424.424,467.632
			c-19.033,43.208-8.872,35.557,81.333-59.731c121.973-128.335,251.597-219.829,388.867-271.914
			c180.415-68.604,227.48-72.456,831.094-72.456c528.647,0,556.616,1.284,582.012,24.111c30.479,27.969,34.336,68.604,8.877,104.224
			c-17.813,22.891-43.208,24.175-613.774,30.479l-594.741,6.362l-101.655,35.498c-292.29,102.935-482.866,296.084-580.727,588.374
			c-25.396,74.971-29.253,113.101-29.253,259.243c0,158.877,2.568,179.194,39.414,280.85
			c96.572,269.399,326.563,490.518,571.851,550.249C1174.365,3724.438,4935.839,3725.723,5052.734,3697.754z"/>
		<path fill="#FFFFFF" d="M2992.861,1689.966c-64.81-22.886-108.018-63.525-139.78-132.192
			c-22.886-53.364-24.175-74.966-16.523-362.178c15.239-593.457,15.239-773.877,0-778.955c-8.872-2.568-17.808,19.033-22.886,53.369
			c-16.523,123.252-92.783,210.957-196.943,228.76c-141.064,24.111-279.561-94.063-280.845-237.637
			c0-64.814-35.562-64.814-69.893-2.568c-77.539,144.854-306.245,153.789-397.739,14.014
			c-17.808-26.68-35.557-72.461-39.414-100.371c-11.44-80.049-39.409-87.695-102.935-30.479
			c-62.241,55.938-97.861,71.182-171.548,71.182c-69.888,0-116.89-17.813-162.666-61.016
			c-71.177-67.383-72.461-74.971-72.461-437.158c1.284-480.352,16.523-702.754,55.938-839.971
			c123.257-418.057,454.961-714.141,894.619-798.047c115.669-21.602,378.706-7.646,498.169,26.689
			c191.86,54.648,371.06,163.955,512.124,310.098c77.539,81.338,101.65,115.605,294.795,433.291
			c68.604,111.816,233.848,377.422,367.265,590.889l242.715,387.578v76.26c0,138.496-96.572,235.068-236.348,235.068
			c-111.816,0-143.584-27.969-339.297-299.883c-139.785-193.145-180.479-241.436-207.1-244.004
			c-17.813-2.568-39.414,3.799-45.781,12.734c-8.867,11.445-19.092,301.162-29.248,848.838
			c-8.877,457.47-20.322,855.21-27.969,883.178c-22.891,90.21-134.707,172.832-232.559,171.543
			C3052.593,1707.778,3019.546,1700.127,2992.861,1689.966z"/>
	</g>
</g>
</svg>
