<?xml version="1.0" encoding="utf-8"?>
<!-- Generator: Adobe Illustrator 16.0.0, SVG Export Plug-In . SVG Version: 6.00 Build 0)  -->
<!DOCTYPE svg PUBLIC "-//W3C//DTD SVG 1.1//EN" "http://www.w3.org/Graphics/SVG/1.1/DTD/svg11.dtd">
<svg version="1.1" id="Layer_1" focusable="false" xmlns="http://www.w3.org/2000/svg" xmlns:xlink="http://www.w3.org/1999/xlink"
	 x="0px" y="0px" width="612px" height="792px" viewBox="0 0 612 792" enable-background="new 0 0 612 792" xml:space="preserve">
<path fill="#FFFFFF" d="M0,680.143c0,36.201,29.371,65.571,65.571,65.571h480.857c36.201,0,65.571-29.37,65.571-65.571V308.571H0
	V680.143z M437.143,412.393c0-9.016,7.377-16.393,16.394-16.393h54.643c9.016,0,16.393,7.377,16.393,16.393v54.644
	c0,9.016-7.377,16.393-16.393,16.393h-54.643c-9.017,0-16.394-7.377-16.394-16.393V412.393z M437.143,587.25
	c0-9.016,7.377-16.393,16.394-16.393h54.643c9.016,0,16.393,7.377,16.393,16.393v54.643c0,9.017-7.377,16.394-16.393,16.394h-54.643
	c-9.017,0-16.394-7.377-16.394-16.394V587.25z M262.286,412.393c0-9.016,7.377-16.393,16.393-16.393h54.643
	c9.017,0,16.393,7.377,16.393,16.393v54.644c0,9.016-7.376,16.393-16.393,16.393h-54.643c-9.016,0-16.393-7.377-16.393-16.393
	V412.393z M262.286,587.25c0-9.016,7.377-16.393,16.393-16.393h54.643c9.017,0,16.393,7.377,16.393,16.393v54.643
	c0,9.017-7.376,16.394-16.393,16.394h-54.643c-9.016,0-16.393-7.377-16.393-16.394V587.25z M87.429,412.393
	c0-9.016,7.376-16.393,16.393-16.393h54.643c9.016,0,16.393,7.377,16.393,16.393v54.644c0,9.016-7.376,16.393-16.393,16.393h-54.643
	c-9.016,0-16.393-7.377-16.393-16.393V412.393z M87.429,587.25c0-9.016,7.376-16.393,16.393-16.393h54.643
	c9.016,0,16.393,7.377,16.393,16.393v54.643c0,9.017-7.376,16.394-16.393,16.394h-54.643c-9.016,0-16.393-7.377-16.393-16.394
	V587.25z M546.429,133.714h-65.571V68.143c0-12.021-9.836-21.857-21.857-21.857h-43.714c-12.021,0-21.857,9.836-21.857,21.857
	v65.572H218.571V68.143c0-12.021-9.835-21.857-21.857-21.857H153c-12.021,0-21.857,9.836-21.857,21.857v65.572H65.571
	C29.371,133.714,0,163.085,0,199.286v65.572h612v-65.572C612,163.085,582.63,133.714,546.429,133.714z"/>
</svg>
