<?xml version="1.0" encoding="utf-8"?>
<!-- Generator: Adobe Illustrator 16.0.0, SVG Export Plug-In . SVG Version: 6.00 Build 0)  -->
<!DOCTYPE svg PUBLIC "-//W3C//DTD SVG 1.1//EN" "http://www.w3.org/Graphics/SVG/1.1/DTD/svg11.dtd">
<svg version="1.1" id="Layer_1" focusable="false" xmlns="http://www.w3.org/2000/svg" xmlns:xlink="http://www.w3.org/1999/xlink"
	 x="0px" y="0px" width="612px" height="792px" viewBox="0 0 612 792" enable-background="new 0 0 612 792" xml:space="preserve">
<path fill="#FFFFFF" d="M91.8,212.4h428.4V549h61.2V189.45c0-21.095-17.155-38.25-38.25-38.25H68.85
	c-21.095,0-38.25,17.155-38.25,38.25V549h61.2V212.4z M596.7,579.6H459V518.4H275.4V579.6H15.3C6.847,579.6,0,586.447,0,594.9v30.6
	c0,8.453,6.847,15.3,15.3,15.3h581.4c8.453,0,15.3-6.847,15.3-15.3v-30.6C612,586.447,605.153,579.6,596.7,579.6z"/>
</svg>
