<?xml version="1.0" encoding="utf-8"?>
<!-- Generator: Adobe Illustrator 16.0.0, SVG Export Plug-In . SVG Version: 6.00 Build 0)  -->
<!DOCTYPE svg PUBLIC "-//W3C//DTD SVG 1.1//EN" "http://www.w3.org/Graphics/SVG/1.1/DTD/svg11.dtd">
<svg version="1.1" id="Layer_1" focusable="false" xmlns="http://www.w3.org/2000/svg" xmlns:xlink="http://www.w3.org/1999/xlink"
	 x="0px" y="0px" width="612px" height="792px" viewBox="0 0 612 792" enable-background="new 0 0 612 792" xml:space="preserve">
<path fill="#FFFFFF" d="M561,158H51c-28.156,0-51,22.844-51,51v374c0,28.156,22.844,51,51,51h510c28.156,0,51-22.844,51-51V209
	C612,180.844,589.156,158,561,158z M187,260c37.506,0,68,30.494,68,68s-30.494,68-68,68s-68-30.494-68-68S149.494,260,187,260z
	 M306,511.6c0,11.263-10.625,20.4-23.8,20.4H91.8c-13.175,0-23.8-9.138-23.8-20.4V491.2c0-33.788,31.981-61.2,71.4-61.2h5.313
	c13.069,5.419,27.306,8.5,42.288,8.5s29.325-3.081,42.288-8.5h5.313c39.418,0,71.4,27.412,71.4,61.2V511.6z M544,455.5
	c0,4.675-3.825,8.5-8.5,8.5h-153c-4.675,0-8.5-3.825-8.5-8.5v-17c0-4.675,3.825-8.5,8.5-8.5h153c4.675,0,8.5,3.825,8.5,8.5V455.5z
	 M544,387.5c0,4.675-3.825,8.5-8.5,8.5h-153c-4.675,0-8.5-3.825-8.5-8.5v-17c0-4.675,3.825-8.5,8.5-8.5h153
	c4.675,0,8.5,3.825,8.5,8.5V387.5z M544,319.5c0,4.675-3.825,8.5-8.5,8.5h-153c-4.675,0-8.5-3.825-8.5-8.5v-17
	c0-4.675,3.825-8.5,8.5-8.5h153c4.675,0,8.5,3.825,8.5,8.5V319.5z"/>
</svg>
