<?xml version="1.0" encoding="utf-8"?>
<!-- Generator: Adobe Illustrator 16.0.0, SVG Export Plug-In . SVG Version: 6.00 Build 0)  -->
<!DOCTYPE svg PUBLIC "-//W3C//DTD SVG 1.1//EN" "http://www.w3.org/Graphics/SVG/1.1/DTD/svg11.dtd">
<svg version="1.1" id="Icons" xmlns="http://www.w3.org/2000/svg" xmlns:xlink="http://www.w3.org/1999/xlink" x="0px" y="0px"
	 width="612px" height="792px" viewBox="0 0 612 792" enable-background="new 0 0 612 792" xml:space="preserve">
<g>
	<path fill="#FFFFFF" d="M251.428,804.75H83.643c-47.539,0-83.893-33.545-83.893-77.41V572.519
		c0-43.866,36.354-77.412,83.893-77.412h167.786c47.54,0,83.893,33.546,83.893,77.412V727.34
		C335.321,771.205,298.968,804.75,251.428,804.75z"/>
</g>
<g>
	<path fill="#FFFFFF" d="M754.785,185.464h-335.57c-16.779,0-27.965-10.322-27.965-25.804c0-15.481,11.186-25.803,27.965-25.803
		h335.57c16.779,0,27.965,10.321,27.965,25.803C782.75,175.142,771.564,185.464,754.785,185.464z"/>
</g>
<g>
	<path fill="#FFFFFF" d="M614.965,288.678h-195.75c-16.779,0-27.965-10.321-27.965-25.803c0-15.482,11.186-25.803,27.965-25.803
		h195.75c16.777,0,27.964,10.321,27.964,25.803C642.929,278.357,631.742,288.678,614.965,288.678z"/>
</g>
<g>
	<path fill="#FFFFFF" d="M754.785,598.321h-335.57c-16.779,0-27.965-10.321-27.965-25.803c0-15.482,11.186-25.804,27.965-25.804
		h335.57c16.779,0,27.965,10.321,27.965,25.804C782.75,588,771.564,598.321,754.785,598.321z"/>
</g>
<g>
	<path fill="#FFFFFF" d="M614.965,701.535h-195.75c-16.779,0-27.965-10.321-27.965-25.804c0-15.481,11.186-25.804,27.965-25.804
		h195.75c16.777,0,27.964,10.322,27.964,25.804C642.929,691.214,631.742,701.535,614.965,701.535z"/>
</g>
<path fill="#FFFFFF" d="M251.428,82.25H83.643c-47.539,0-83.893,33.543-83.893,77.41v154.822c0,43.866,36.354,77.41,83.893,77.41
	h167.786c47.54,0,83.893-33.544,83.893-77.41V159.66C335.321,115.793,298.968,82.25,251.428,82.25z M271.003,203.526l-83.892,77.411
	c-5.593,5.16-11.186,7.741-19.575,7.741c-8.389,0-13.982-2.581-19.575-7.741l-55.929-51.606c-11.186-10.322-11.186-25.805,0-36.126
	c11.186-10.321,27.964-10.321,39.15,0l36.353,33.545l64.318-59.348c11.186-10.322,27.964-10.322,39.149,0
	C282.19,177.723,282.19,193.205,271.003,203.526z"/>
</svg>
