<?xml version="1.0" encoding="utf-8"?>
<!-- Generator: Adobe Illustrator 16.0.0, SVG Export Plug-In . SVG Version: 6.00 Build 0)  -->
<!DOCTYPE svg PUBLIC "-//W3C//DTD SVG 1.1//EN" "http://www.w3.org/Graphics/SVG/1.1/DTD/svg11.dtd">
<svg version="1.1" id="Layer_1" xmlns="http://www.w3.org/2000/svg" xmlns:xlink="http://www.w3.org/1999/xlink" x="0px" y="0px"
	 width="512px" height="512px" viewBox="0 0 512 512" enable-background="new 0 0 512 512" xml:space="preserve">
<path fill="#FFFFFF" d="M452,512H60c-33.086,0-60-26.914-60-60V60C0,26.914,26.914,0,60,0h392c33.086,0,60,26.914,60,60v392
	C512,485.086,485.086,512,452,512z M60,40c-11.027,0-20,8.973-20,20v392c0,11.027,8.973,20,20,20h392c11.027,0,20-8.973,20-20V60
	c0-11.027-8.973-20-20-20H60z M430.898,151.344l-29.801-26.688L216.133,331.223L108.781,229.176l-27.559,28.988l137.219,130.445
	L430.898,151.344z"/>
</svg>
