<?xml version="1.0" encoding="utf-8"?>
<!-- Generator: Adobe Illustrator 16.0.0, SVG Export Plug-In . SVG Version: 6.00 Build 0)  -->
<!DOCTYPE svg PUBLIC "-//W3C//DTD SVG 1.1//EN" "http://www.w3.org/Graphics/SVG/1.1/DTD/svg11.dtd">
<svg version="1.1" id="Layer_1" focusable="false" xmlns="http://www.w3.org/2000/svg" xmlns:xlink="http://www.w3.org/1999/xlink"
	 x="0px" y="0px" width="612px" height="792px" viewBox="0 0 612 792" enable-background="new 0 0 612 792" xml:space="preserve">
<path fill="#FFFFFF" d="M514.08,367.886c3.921-10.232,6.12-21.42,6.12-33.086c0-50.681-41.119-91.8-91.8-91.8
	c-18.839,0-36.434,5.737-50.969,15.491c-26.488-45.9-75.926-76.691-132.632-76.691c-84.532,0-153,68.468-153,153
	c0,2.582,0.096,5.164,0.191,7.746C38.441,361.384,0,412.447,0,472.5c0,76.021,61.678,137.7,137.7,137.7H489.6
	c67.607,0,122.4-54.793,122.4-122.4C612,428.608,569.925,379.17,514.08,367.886z M376.188,426.6H313.65V533.7
	c0,8.415-6.886,15.3-15.3,15.3h-45.9c-8.415,0-15.3-6.885-15.3-15.3V426.6h-62.539c-13.674,0-20.464-16.447-10.806-26.105
	l100.789-100.789c5.929-5.929,15.683-5.929,21.611,0l100.789,100.789C396.652,410.152,389.768,426.6,376.188,426.6L376.188,426.6z"
	/>
</svg>
