<?xml version="1.0" encoding="utf-8"?>
<!-- Generator: Adobe Illustrator 16.0.0, SVG Export Plug-In . SVG Version: 6.00 Build 0)  -->
<!DOCTYPE svg PUBLIC "-//W3C//DTD SVG 1.1//EN" "http://www.w3.org/Graphics/SVG/1.1/DTD/svg11.dtd">
<svg version="1.1" id="Layer_1" focusable="false" xmlns="http://www.w3.org/2000/svg" xmlns:xlink="http://www.w3.org/1999/xlink"
	 x="0px" y="0px" width="612px" height="792px" viewBox="0 0 612 792" enable-background="new 0 0 612 792" xml:space="preserve">
<path fill="#FFFFFF" d="M582.596,467.36l-50.921-29.405c5.14-27.73,5.14-56.179,0-83.911l50.921-29.405
	c5.856-3.347,8.486-10.279,6.574-16.734c-13.269-42.553-35.859-81.042-65.384-113.076c-4.542-4.901-11.953-6.096-17.69-2.75
	l-50.921,29.405c-21.396-18.408-46.02-32.632-72.675-41.956v-58.69c0-6.693-4.662-12.551-11.236-13.985
	c-43.867-9.802-88.812-9.324-130.528,0c-6.574,1.434-11.236,7.292-11.236,13.985v58.81c-26.536,9.443-51.159,23.667-72.675,41.956
	l-50.801-29.405c-5.857-3.347-13.148-2.271-17.691,2.749C58.81,226.863,36.218,265.353,22.95,308.025
	c-2.032,6.455,0.717,13.388,6.574,16.734l50.92,29.405c-5.14,27.731-5.14,56.18,0,83.911l-50.92,29.404
	c-5.857,3.347-8.487,10.28-6.574,16.734c13.268,42.554,35.859,81.042,65.383,113.077c4.542,4.9,11.953,6.096,17.691,2.749
	l50.92-29.405c21.396,18.408,46.02,32.633,72.675,41.956v58.81c0,6.693,4.662,12.551,11.236,13.984
	c43.868,9.802,88.812,9.324,130.528,0c6.574-1.434,11.235-7.291,11.235-13.984v-58.81c26.536-9.443,51.16-23.667,72.676-41.956
	l50.92,29.405c5.857,3.347,13.148,2.271,17.69-2.749c29.524-31.915,52.116-70.404,65.384-113.077
	C591.082,477.64,588.452,470.707,582.596,467.36z M306,491.625c-52.713,0-95.625-42.912-95.625-95.625
	c0-52.713,42.912-95.625,95.625-95.625c52.713,0,95.625,42.912,95.625,95.625C401.625,448.713,358.713,491.625,306,491.625z"/>
</svg>
