<?xml version="1.0" encoding="utf-8"?>
<!-- Generator: Adobe Illustrator 16.0.0, SVG Export Plug-In . SVG Version: 6.00 Build 0)  -->
<!DOCTYPE svg PUBLIC "-//W3C//DTD SVG 1.1//EN" "http://www.w3.org/Graphics/SVG/1.1/DTD/svg11.dtd">
<svg version="1.1" id="Layer_1" xmlns="http://www.w3.org/2000/svg" xmlns:xlink="http://www.w3.org/1999/xlink" x="0px" y="0px"
	 width="512px" height="512px" viewBox="0 0 512 512" enable-background="new 0 0 512 512" xml:space="preserve">
<path fill="#FFFFFF" d="M452,0h-76c-15.355,0-29.375,5.805-40,15.328C325.375,5.805,311.355,0,296,0h-80
	c-15.355,0-29.375,5.805-40,15.328C165.375,5.805,151.355,0,136,0H60C26.914,0,0,26.914,0,60v392c0,33.086,26.914,60,60,60h76
	c15.355,0,29.375-5.805,40-15.328C186.625,506.195,200.645,512,216,512h80c15.355,0,29.375-5.805,40-15.328
	C346.625,506.195,360.645,512,376,512h76c33.086,0,60-26.914,60-60V60C512,26.914,485.086,0,452,0z M472,452
	c0,11.027-8.973,20-20,20h-76c-11.027,0-20-8.973-20-20v-18h-40v18c0,11.027-8.973,20-20,20h-80c-11.027,0-20-8.973-20-20v-18h-40
	v18c0,11.027-8.973,20-20,20H60c-11.027,0-20-8.973-20-20V60c0-11.027,8.973-20,20-20h76c11.027,0,20,8.973,20,20v18h40V60
	c0-11.027,8.973-20,20-20h80c11.027,0,20,8.973,20,20v18h40V60c0-11.027,8.973-20,20-20h76c11.027,0,20,8.973,20,20V452z M156,196
	h40v40h-40V196z M156,274h40v40h-40V274z M156,352h40v40h-40V352z M156,118h40v40h-40V118z M317,196h40v40h-40V196z M317,274h40v40
	h-40V274z M317,352h40v40h-40V352z M317,118h40v40h-40V118z"/>
<path fill="#FFFFFF" d="M452,0h-76c-15.355,0-29.375,5.805-40,15.328C325.375,5.805,311.355,0,296,0h-80
	c-15.355,0-29.375,5.805-40,15.328C165.375,5.805,151.355,0,136,0H60C26.914,0,0,26.914,0,60v392c0,33.086,26.914,60,60,60h76
	c15.355,0,29.375-5.805,40-15.328C186.625,506.195,200.645,512,216,512h80c15.355,0,29.375-5.805,40-15.328
	C346.625,506.195,360.645,512,376,512h76c33.086,0,60-26.914,60-60V60C512,26.914,485.086,0,452,0z M472,452
	c0,11.027-8.973,20-20,20h-76c-11.027,0-20-8.973-20-20v-18h-40v18c0,11.027-8.973,20-20,20h-80c-11.027,0-20-8.973-20-20v-18h-40
	v18c0,11.027-8.973,20-20,20H60c-11.027,0-20-8.973-20-20V60c0-11.027,8.973-20,20-20h76c11.027,0,20,8.973,20,20v18h40V60
	c0-11.027,8.973-20,20-20h80c11.027,0,20,8.973,20,20v18h40V60c0-11.027,8.973-20,20-20h76c11.027,0,20,8.973,20,20V452z M156,196
	h40v40h-40V196z M156,274h40v40h-40V274z M156,352h40v40h-40V352z M156,118h40v40h-40V118z M317,196h40v40h-40V196z M317,274h40v40
	h-40V274z M317,352h40v40h-40V352z M317,118h40v40h-40V118z"/>
</svg>
