<?xml version="1.0" encoding="utf-8"?>
<!-- Generator: Adobe Illustrator 16.0.0, SVG Export Plug-In . SVG Version: 6.00 Build 0)  -->
<!DOCTYPE svg PUBLIC "-//W3C//DTD SVG 1.1//EN" "http://www.w3.org/Graphics/SVG/1.1/DTD/svg11.dtd">
<svg version="1.1" id="Capa_1" xmlns="http://www.w3.org/2000/svg" xmlns:xlink="http://www.w3.org/1999/xlink" x="0px" y="0px"
	 width="612px" height="792px" viewBox="0 0 612 792" enable-background="new 0 0 612 792" xml:space="preserve">
<g>
	<g>
		<g>
			<path fill="#FFFFFF" d="M255,574.5c13.516,0,26.393-0.484,39.015-1.199c6.732-0.383,11.985-5.891,12.035-12.623
				c0.179-25.143,5.992-49.443,17.289-72.216c2.041-4.105,1.684-9.002-0.866-12.8c-2.576-3.774-6.655-5.763-11.577-5.56
				c-20.323,1.606-38.607,2.396-55.896,2.396c-96.543,0-184.569-18.947-235.492-50.694c-3.901-2.396-8.874-2.576-12.928-0.331
				C2.524,423.744,0,428.002,0,432.644v52.606C0,528.345,102.485,574.5,255,574.5z"/>
			<path fill="#FFFFFF" d="M255,447c35.854,0,70.329-2.626,102.458-7.751c2.347-0.383,4.514-1.402,6.298-2.933
				C393.898,410.331,432.25,396,471.75,396l6.834,0.383c2.83-0.102,5.839-0.791,8.186-2.576c15.401-11.603,23.23-23.74,23.23-36.057
				v-63.138c0-4.819-2.702-9.231-7.037-11.398c-4.26-2.117-9.436-1.708-13.337,1.199c-50.744,37.919-138.465,60.588-234.625,60.588
				c-96.161,0-183.881-22.67-234.601-60.589c-3.876-2.907-9.052-3.314-13.336-1.199C2.703,285.381,0,289.793,0,294.612v63.138
				C0,400.845,102.485,447,255,447z"/>
			<path fill="#FFFFFF" d="M255,319.5c142.979,0,255-50.414,255-114.75S397.979,90,255,90C112.021,90,0,140.414,0,204.75
				S112.021,319.5,255,319.5z"/>
			<path fill="#FFFFFF" d="M312.604,607.624c-1.658-5.737-6.834-9.767-13.057-9.18c-14.765,0.918-29.631,1.555-44.548,1.555
				c-96.543,0-184.569-18.946-235.492-50.694c-3.901-2.423-8.874-2.576-12.928-0.331C2.524,551.243,0,555.503,0,560.144v31.978
				c0,59.899,109.625,105.034,255,105.034c28.253,0,56.534-1.912,84.074-5.712c4.642-0.612,8.543-3.749,10.175-8.135
				c1.631-4.385,0.765-9.333-2.32-12.852C330.888,651.994,319.311,630.855,312.604,607.624z"/>
			<path fill="#FFFFFF" d="M471.75,421.5c-77.341,0-140.249,62.908-140.249,140.249C331.501,639.091,394.409,702,471.75,702
				C549.092,702,612,639.092,612,561.75C612,484.409,549.092,421.5,471.75,421.5z M557.277,519.777l-102,101.999
				c-2.499,2.474-5.762,3.724-9.026,3.724s-6.527-1.249-9.027-3.724l-51-51c-4.973-4.973-4.973-13.057,0-18.029
				s13.056-4.973,18.028,0l41.974,41.974l92.973-92.973c4.973-4.973,13.057-4.973,18.029,0
				C562.198,506.721,562.25,514.779,557.277,519.777z"/>
		</g>
	</g>
</g>
</svg>
