<?xml version="1.0" encoding="utf-8"?>
<!-- Generator: Adobe Illustrator 16.0.0, SVG Export Plug-In . SVG Version: 6.00 Build 0)  -->
<!DOCTYPE svg PUBLIC "-//W3C//DTD SVG 1.1//EN" "http://www.w3.org/Graphics/SVG/1.1/DTD/svg11.dtd">
<svg version="1.1" id="Capa_1" xmlns="http://www.w3.org/2000/svg" xmlns:xlink="http://www.w3.org/1999/xlink" x="0px" y="0px"
	 width="612px" height="792px" viewBox="0 0 612 792" enable-background="new 0 0 612 792" xml:space="preserve">
<g>
	<g>
		<path fill="#FFFFFF" d="M136.266,336.234h-76.5C26.811,336.234,0,363.045,0,396v246.234C0,675.189,26.811,702,59.766,702h76.5
			c32.955,0,59.766-26.811,59.766-59.766V396C196.031,363.045,169.22,336.234,136.266,336.234z M148.219,642.234
			c0,6.591-5.362,11.953-11.953,11.953h-76.5c-6.591,0-11.953-5.362-11.953-11.953V396c0-6.591,5.362-11.953,11.953-11.953h76.5
			c6.591,0,11.953,5.362,11.953,11.953V642.234z"/>
	</g>
</g>
<g>
	<g>
		<path fill="#FFFFFF" d="M552.234,336.234H307.195c-32.955,0-59.766,26.811-59.766,59.766v246.234
			c0,32.955,26.811,59.766,59.766,59.766h245.039C585.189,702,612,675.189,612,642.234V396
			C612,363.045,585.189,336.234,552.234,336.234z M564.188,642.234c0,6.591-5.362,11.953-11.953,11.953H307.195
			c-6.591,0-11.953-5.362-11.953-11.953V396c0-6.591,5.362-11.953,11.953-11.953h245.039c6.591,0,11.953,5.362,11.953,11.953
			V642.234z"/>
	</g>
</g>
<g>
	<g>
		<path fill="#FFFFFF" d="M552.234,90H59.766C26.811,90,0,116.811,0,149.766v76.5c0,32.955,26.811,59.766,59.766,59.766h492.469
			c32.955,0,59.766-26.811,59.766-59.766v-76.5C612,116.811,585.189,90,552.234,90z M564.188,226.266
			c0,6.591-5.362,11.953-11.953,11.953H59.766c-6.591,0-11.953-5.362-11.953-11.953v-76.5c0-6.591,5.362-11.953,11.953-11.953
			h492.469c6.591,0,11.953,5.362,11.953,11.953V226.266z"/>
	</g>
</g>
</svg>
