<?xml version="1.0" encoding="utf-8"?>
<!-- Generator: Adobe Illustrator 16.0.0, SVG Export Plug-In . SVG Version: 6.00 Build 0)  -->
<!DOCTYPE svg PUBLIC "-//W3C//DTD SVG 1.1//EN" "http://www.w3.org/Graphics/SVG/1.1/DTD/svg11.dtd">
<svg version="1.1" id="Capa_1" xmlns="http://www.w3.org/2000/svg" xmlns:xlink="http://www.w3.org/1999/xlink" x="0px" y="0px"
	 width="512px" height="512px" viewBox="0 0 512 512" enable-background="new 0 0 512 512" xml:space="preserve">
<g>
	<path fill="#FFFFFF" d="M150.998,420.998c0-33.09-26.909-59.999-60-59.999c-33.09,0-59.999,26.909-59.999,59.999v30
		c0,16.537-14.462,30.999-31,30.999v30h60.999C110.627,511.997,150.998,470.627,150.998,420.998L150.998,420.998z"/>
	<path fill="#FFFFFF" d="M251.06,125.601c-8.005,2.153-12.762,10.351-10.605,18.369c2.067,7.714,9.983,12.788,18.369,10.604
		c8.06-2.168,12.739-10.406,10.604-18.369C267.262,128.159,258.978,123.466,251.06,125.601z"/>
	<path fill="#FFFFFF" d="M166.203,239.433c7.96,2.111,16.196-2.521,18.369-10.604c2.166-8.082-2.655-16.236-10.591-18.369h-0.015
		c-4.255-1.148-5.405-0.284-8.414,0.698c0.17,9.04,0.289,18.418,0.352,28.128C166.014,239.318,166.091,239.404,166.203,239.433z"/>
	<path fill="#FFFFFF" d="M331.537,368.016c-2.17-8.066-10.447-12.729-18.368-10.592c-8.144,2.19-12.722,10.499-10.604,18.369
		c2.139,7.982,10.282,12.699,18.368,10.604c8.005-2.153,12.762-10.351,10.604-18.368V368.016z"/>
	<path fill="#FFFFFF" d="M381.459,181.763c5.845-5.859,5.845-15.381,0-21.226c-5.848-5.848-15.353-5.872-21.226,0
		c-5.846,5.845-5.846,15.381,0.015,21.226C366.078,187.592,375.599,187.592,381.459,181.763z"/>
	<path fill="#FFFFFF" d="M286.875,30.212c-49.275,1.776-94.507,21.255-130.56,45.984c4.041,27.508,6.896,61.747,8.416,104.091
		c5.616-0.67,11.36-0.315,16.984,1.198c24.038,6.427,38.287,31.069,31.831,55.106c-5.442,20.332-23.809,33.369-43.388,33.369
		c-1.441,0-2.877-0.433-4.318-0.572c-0.181,23.992-0.725,47.73-1.76,70.398c15.364,6.383,27.372,14.887,35.213,25.9
		c15.878,22.309,11.646,48.471,9.976,55.971c-5.563,24.913,9.126,50.274,34.292,55.121c14.224,2.726,28.521,4.072,42.714,4.072
		c123.368,0,226.725-100.209,225.72-226.652C510.942,125.958,399.967,25.952,286.875,30.212z M339.009,139.327
		c17.577-17.549,46.112-17.549,63.661,0c17.548,17.549,17.548,46.098,0,63.646v0.015c-17.547,17.518-46.099,17.52-63.646,0
		C321.488,185.424,321.488,156.876,339.009,139.327L339.009,139.327z M211.48,151.719c-6.385-23.713,7.54-48.603,31.816-55.092
		c23.861-6.401,48.661,7.837,55.106,31.816c6.442,23.988-7.773,48.67-31.816,55.106C242.605,189.976,217.924,175.819,211.48,151.719
		L211.48,151.719z M328.695,415.373c-23.976,6.423-48.676-7.856-55.105-31.815c-6.443-23.989,7.772-48.671,31.814-55.106
		c24.145-6.423,48.693,7.842,55.106,31.831C366.973,384.308,352.687,408.958,328.695,415.373z M445.368,298.699
		c-6.426,24.038-31.126,38.266-55.106,31.816c-23.974-6.418-38.285-31.023-31.815-55.106c6.493-24.258,31.34-38.185,55.106-31.815
		C437.532,250.023,451.8,274.75,445.368,298.699L445.368,298.699z"/>
	<path fill="#FFFFFF" d="M405.789,272.567c-7.856-2.119-16.177,2.459-18.368,10.604c-2.166,8.082,2.655,16.236,10.591,18.369
		c8.214,2.122,16.256-2.691,18.384-10.605C418.533,282.953,413.772,274.706,405.789,272.567L405.789,272.567z"/>
	<path fill="#FFFFFF" d="M135.817,271c0.042-5.019,0.181-9.959,0.181-15c0-116.321-7.808-255.997-45-255.997
		C53.807,0.004,46,139.679,46,256c0,5.041,0.139,9.981,0.181,15H135.817z"/>
	<path fill="#FFFFFF" d="M90.999,331c15.63,0,30.121,4.361,42.941,11.397c0.648-13.462,1.143-27.327,1.489-41.397H46.568
		c0.346,14.07,0.84,27.936,1.489,41.397C60.878,335.36,75.369,331,90.999,331z"/>
</g>
</svg>
