<?xml version="1.0" encoding="utf-8"?>
<!-- Generator: Adobe Illustrator 16.0.0, SVG Export Plug-In . SVG Version: 6.00 Build 0)  -->
<!DOCTYPE svg PUBLIC "-//W3C//DTD SVG 1.1//EN" "http://www.w3.org/Graphics/SVG/1.1/DTD/svg11.dtd">
<svg version="1.1" id="Layer_1" focusable="false" xmlns="http://www.w3.org/2000/svg" xmlns:xlink="http://www.w3.org/1999/xlink"
	 x="0px" y="0px" width="612px" height="792px" viewBox="0 0 612 792" enable-background="new 0 0 612 792" xml:space="preserve">
<path fill="#FFFFFF" d="M612,146.204v62.449c0,55.034-137.063,99.918-306,99.918c-168.938,0-306-44.885-306-99.918v-62.449
	c0-55.033,137.062-99.918,306-99.918C474.938,46.286,612,91.171,612,146.204z M612,286.714v140.51
	c0,55.033-137.063,99.918-306,99.918c-168.938,0-306-44.885-306-99.918v-140.51c65.742,45.276,186.07,66.353,306,66.353
	C425.93,353.067,546.257,331.99,612,286.714z M612,505.286v140.51c0,55.033-137.063,99.918-306,99.918
	c-168.938,0-306-44.885-306-99.918v-140.51c65.742,45.275,186.07,66.353,306,66.353C425.93,571.639,546.257,550.562,612,505.286z"/>
</svg>
