<?xml version="1.0" encoding="utf-8"?>
<!-- Generator: Adobe Illustrator 16.0.0, SVG Export Plug-In . SVG Version: 6.00 Build 0)  -->
<!DOCTYPE svg PUBLIC "-//W3C//DTD SVG 1.1//EN" "http://www.w3.org/Graphics/SVG/1.1/DTD/svg11.dtd">
<svg version="1.1" id="Layer_1" focusable="false" xmlns="http://www.w3.org/2000/svg" xmlns:xlink="http://www.w3.org/1999/xlink"
	 x="0px" y="0px" width="612px" height="792px" viewBox="0 0 612 792" enable-background="new 0 0 612 792" xml:space="preserve">
<path fill="#FFFFFF" d="M0,680.143c0,36.201,29.371,65.571,65.571,65.571h480.857c36.201,0,65.571-29.37,65.571-65.571V308.571H0
	V680.143z M87.429,417.857c0-12.021,9.835-21.857,21.857-21.857h131.143c12.021,0,21.857,9.836,21.857,21.857V549
	c0,12.021-9.835,21.857-21.857,21.857H109.286c-12.021,0-21.857-9.836-21.857-21.857V417.857z M546.429,133.714h-65.571V68.143
	c0-12.021-9.836-21.857-21.857-21.857h-43.714c-12.021,0-21.857,9.836-21.857,21.857v65.572H218.571V68.143
	c0-12.021-9.835-21.857-21.857-21.857H153c-12.021,0-21.857,9.836-21.857,21.857v65.572H65.571C29.371,133.714,0,163.085,0,199.286
	v65.572h612v-65.572C612,163.085,582.63,133.714,546.429,133.714z"/>
</svg>
