<?xml version="1.0" encoding="utf-8"?>
<!-- Generator: Adobe Illustrator 16.0.0, SVG Export Plug-In . SVG Version: 6.00 Build 0)  -->
<!DOCTYPE svg PUBLIC "-//W3C//DTD SVG 1.1//EN" "http://www.w3.org/Graphics/SVG/1.1/DTD/svg11.dtd">
<svg version="1.1" id="Capa_1" xmlns="http://www.w3.org/2000/svg" xmlns:xlink="http://www.w3.org/1999/xlink" x="0px" y="0px"
	 width="512px" height="512px" viewBox="0 0 512 512" enable-background="new 0 0 512 512" xml:space="preserve">
<circle fill="#FFFFFF" cx="257" cy="257" r="255"/>
<g>
	<g>
		<g>
			<path d="M299.995,102.25l7.679-18.076c2.313-5.444-0.031-11.82-5.235-14.24c-5.205-2.421-11.299,0.033-13.611,5.477
				l-11.028,25.958h-41.596L225.175,75.41c-2.313-5.444-8.408-7.897-13.612-5.477c-5.204,2.419-7.548,8.795-5.235,14.24
				l7.679,18.076c-20.528,4.215-36.067,23.175-36.067,45.868v17.981h158.123v-17.981
				C336.063,125.425,320.523,106.464,299.995,102.25z"/>
		</g>
	</g>
	<g>
		<g>
			<path d="M425.436,259.598h-61.874v-22.431c31.13-5.188,54.999-33.467,54.999-67.472v-14.384c0-5.958-4.617-10.789-10.312-10.789
				s-10.313,4.831-10.313,10.789v14.384c0,22.065-14.691,40.594-34.373,45.479v-9.517c0-9.916-7.71-17.981-17.188-17.981h-79.063
				V313.54c0,5.958-4.616,10.788-10.311,10.788c-5.697,0-10.312-4.83-10.312-10.788V187.675h-79.062
				c-9.477,0-17.188,8.066-17.188,17.98v9.517c-19.683-4.884-34.375-23.415-34.375-45.479V155.31
				c0-5.958-4.617-10.789-10.312-10.789c-5.695,0-10.313,4.831-10.313,10.789v14.384c0,34.005,23.869,62.284,55,67.473v22.431
				H88.565c-5.694,0-10.312,4.83-10.312,10.787c0,5.959,4.618,10.789,10.312,10.789h61.874v22.431
				c-31.13,5.188-54.999,33.467-54.999,67.473v14.385c0,5.957,4.617,10.787,10.313,10.787c5.695,0,10.312-4.83,10.312-10.787
				v-14.385c0-22.065,14.691-40.595,34.374-45.48v5.922C150.439,392.99,198.243,443,257.001,443s106.561-50.01,106.561-111.479
				v-5.922c19.683,4.886,34.374,23.415,34.374,45.479v14.384c0,5.958,4.617,10.789,10.312,10.789
				c5.695,0,10.313-4.831,10.313-10.789v-14.384c0-34.005-23.87-62.284-55-67.472v-22.432h61.874c5.694,0,10.313-4.83,10.313-10.788
				C435.747,264.43,431.13,259.598,425.436,259.598z"/>
		</g>
	</g>
</g>
</svg>
