<?xml version="1.0" encoding="utf-8"?>
<!-- Generator: Adobe Illustrator 16.0.0, SVG Export Plug-In . SVG Version: 6.00 Build 0)  -->
<!DOCTYPE svg PUBLIC "-//W3C//DTD SVG 1.1//EN" "http://www.w3.org/Graphics/SVG/1.1/DTD/svg11.dtd">
<svg version="1.1" id="Capa_1" xmlns="http://www.w3.org/2000/svg" xmlns:xlink="http://www.w3.org/1999/xlink" x="0px" y="0px"
	 width="511.625px" height="511.627px" viewBox="0 0 511.625 511.627" enable-background="new 0 0 511.625 511.627"
	 xml:space="preserve">
<g>
	<g>
		<path fill="#FFFFFF" d="M118.771,200.999H27.406c-7.611,0-14.084,2.664-19.414,7.994C2.663,214.32,0,220.791,0,228.407v54.822
			c0,7.61,2.663,14.078,7.992,19.406c5.33,5.329,11.803,7.994,19.414,7.994h91.365c7.611,0,14.084-2.665,19.414-7.994
			c5.33-5.328,7.992-11.796,7.992-19.406v-54.822c0-7.616-2.662-14.087-7.992-19.414
			C132.855,203.666,126.382,200.999,118.771,200.999z"/>
		<path fill="#FFFFFF" d="M118.771,54.814H27.406c-7.611,0-14.084,2.663-19.414,7.993C2.663,68.137,0,74.61,0,82.221v54.821
			c0,7.616,2.663,14.091,7.992,19.417c5.33,5.327,11.803,7.994,19.414,7.994h91.365c7.611,0,14.084-2.667,19.414-7.994
			s7.992-11.798,7.992-19.414v-54.82c0-7.611-2.662-14.084-7.992-19.417C132.855,57.48,126.382,54.814,118.771,54.814z"/>
		<path fill="#FFFFFF" d="M118.771,347.177H27.406c-7.611,0-14.084,2.662-19.414,7.994C2.663,360.502,0,366.974,0,374.585v54.826
			c0,7.609,2.663,14.086,7.992,19.41c5.33,5.332,11.803,7.99,19.414,7.99h91.365c7.611,0,14.084-2.662,19.414-7.99
			c5.33-5.324,7.992-11.8,7.992-19.41v-54.826c0-7.611-2.662-14.083-7.992-19.411C132.855,349.847,126.382,347.177,118.771,347.177z
			"/>
		<path fill="#FFFFFF" d="M484.215,200.999H210.131c-7.614,0-14.084,2.664-19.414,7.994c-5.33,5.33-7.992,11.798-7.992,19.414
			v54.822c0,7.61,2.662,14.078,7.992,19.406c5.327,5.329,11.8,7.994,19.414,7.994h274.09c7.611,0,14.086-2.665,19.41-7.994
			c5.332-5.328,7.994-11.796,7.994-19.406v-54.822c0-7.616-2.662-14.087-7.996-19.414
			C498.299,203.663,491.833,200.999,484.215,200.999z"/>
		<path fill="#FFFFFF" d="M484.215,347.177H210.131c-7.614,0-14.084,2.662-19.414,7.994c-5.33,5.331-7.992,11.801-7.992,19.41
			v54.823c0,7.61,2.662,14.089,7.992,19.417c5.327,5.328,11.8,7.986,19.414,7.986h274.09c7.611,0,14.086-2.661,19.41-7.986
			c5.332-5.331,7.994-11.807,7.994-19.417v-54.823c0-7.609-2.662-14.085-7.996-19.41
			C498.299,349.847,491.833,347.177,484.215,347.177z"/>
		<path fill="#FFFFFF" d="M503.629,62.811c-5.33-5.327-11.797-7.993-19.414-7.993H210.131c-7.614,0-14.084,2.663-19.414,7.993
			c-5.33,5.33-7.992,11.803-7.992,19.414v54.821c0,7.616,2.662,14.083,7.992,19.414c5.327,5.327,11.8,7.994,19.414,7.994h274.09
			c7.611,0,14.078-2.667,19.41-7.994s7.994-11.798,7.994-19.414V82.225C511.625,74.613,508.963,68.141,503.629,62.811z"/>
	</g>
</g>
</svg>
