<?xml version="1.0" encoding="utf-8"?>
<!-- Generator: Adobe Illustrator 16.0.0, SVG Export Plug-In . SVG Version: 6.00 Build 0)  -->
<!DOCTYPE svg PUBLIC "-//W3C//DTD SVG 1.1//EN" "http://www.w3.org/Graphics/SVG/1.1/DTD/svg11.dtd">
<svg version="1.1" id="Layer_1" xmlns="http://www.w3.org/2000/svg" xmlns:xlink="http://www.w3.org/1999/xlink" x="0px" y="0px"
	 width="512px" height="512px" viewBox="0 0 512 512" enable-background="new 0 0 512 512" xml:space="preserve">
<path fill="#FFFFFF" d="M454.572,378.127v-56.124h-185.55v-35.904h117.941c39.933,0,72.421-33,72.421-73.564
	c0-36.241-26.12-66.592-60.246-72.507c-7.026-39.317-40.716-68.648-81.193-68.648c-9.153,0-18.27,1.563-26.89,4.574
	c-18.729-30.554-52.032-49.703-87.98-49.703c-57.099,0-103.552,47.185-103.552,105.183c0,4.006,0.224,8.009,0.668,11.98
	c-28.206,10.372-47.576,37.637-47.576,69.121c0,40.564,32.488,73.562,72.42,73.562h117.941v35.907H57.428v56.124
	c4.205-0.902,8.56-1.389,13.022-1.389c4.466,0,8.821,0.486,13.022,1.389v-29.673h159.505v29.673
	c4.205-0.906,8.556-1.392,13.022-1.392s8.817,0.485,13.022,1.392v-29.673h159.505v29.673c4.202-0.902,8.556-1.389,13.022-1.389
	C446.013,376.738,450.37,377.225,454.572,378.127z"/>
<path fill="#FFFFFF" d="M292.7,440.472c0,20.589-16.431,37.278-36.7,37.278s-36.7-16.689-36.7-37.278s16.431-37.278,36.7-37.278
	S292.7,419.883,292.7,440.472z"/>
<path fill="#FFFFFF" d="M107.15,440.472c0,20.589-16.431,37.278-36.7,37.278s-36.7-16.689-36.7-37.278s16.431-37.278,36.7-37.278
	S107.15,419.883,107.15,440.472z"/>
<path fill="#FFFFFF" d="M478.25,440.472c0,20.589-16.431,37.278-36.7,37.278s-36.7-16.689-36.7-37.278s16.431-37.278,36.7-37.278
	S478.25,419.883,478.25,440.472z"/>
</svg>
