<?xml version="1.0" encoding="utf-8"?>
<!-- Generator: Adobe Illustrator 16.0.0, SVG Export Plug-In . SVG Version: 6.00 Build 0)  -->
<!DOCTYPE svg PUBLIC "-//W3C//DTD SVG 1.1//EN" "http://www.w3.org/Graphics/SVG/1.1/DTD/svg11.dtd">
<svg version="1.1" id="Layer_1" focusable="false" xmlns="http://www.w3.org/2000/svg" xmlns:xlink="http://www.w3.org/1999/xlink"
	 x="0px" y="0px" width="612px" height="792px" viewBox="0 0 612 792" enable-background="new 0 0 612 792" xml:space="preserve">
<path fill="#FFFFFF" d="M561,124H51c-28.156,0-51,22.844-51,51v340c0,28.156,22.844,51,51,51h204l-17,51h-76.5
	c-14.131,0-25.5,11.369-25.5,25.5s11.369,25.5,25.5,25.5h289c14.131,0,25.5-11.369,25.5-25.5S464.631,617,450.5,617H374l-17-51h204
	c28.156,0,51-22.844,51-51V175C612,146.844,589.156,124,561,124z M544,498H68V192h476V498z"/>
</svg>
