<?xml version="1.0" encoding="utf-8"?>
<!-- Generator: Adobe Illustrator 16.0.0, SVG Export Plug-In . SVG Version: 6.00 Build 0)  -->
<!DOCTYPE svg PUBLIC "-//W3C//DTD SVG 1.1//EN" "http://www.w3.org/Graphics/SVG/1.1/DTD/svg11.dtd">
<svg version="1.1" id="Capa_1" xmlns="http://www.w3.org/2000/svg" xmlns:xlink="http://www.w3.org/1999/xlink" x="0px" y="0px"
	 width="612px" height="792px" viewBox="0 0 612 792" enable-background="new 0 0 612 792" xml:space="preserve">
<g>
	<g>
		<path fill="#FFFFFF" d="M498,272.881H277.2l-43.92-52.2c-1.477-1.776-3.691-2.772-6-2.7H49.14C21.942,218.18,0,240.284,0,267.481
			v321.06c0.033,27.291,22.149,49.407,49.44,49.44H498c27.291-0.033,49.407-22.149,49.44-49.44v-266.22
			C547.407,295.03,525.291,272.915,498,272.881z"/>
	</g>
</g>
<g>
	<g>
		<path fill="#FFFFFF" d="M562.86,208.921H342l-43.92-52.2c-1.478-1.776-3.691-2.772-6-2.7H114
			c-24.678,0.041-45.546,18.271-48.9,42.72h162.42c8.517-0.021,16.604,3.738,22.08,10.26l37.5,44.58H498
			c39.008,0.066,70.614,31.672,70.68,70.68v251.279c24.732-3.085,43.301-24.096,43.32-49.02v-266.22
			C611.936,231.15,590.01,209.12,562.86,208.921z"/>
	</g>
</g>
</svg>
