<?xml version="1.0" encoding="utf-8"?>
<!-- Generator: Adobe Illustrator 16.0.0, SVG Export Plug-In . SVG Version: 6.00 Build 0)  -->
<!DOCTYPE svg PUBLIC "-//W3C//DTD SVG 1.1//EN" "http://www.w3.org/Graphics/SVG/1.1/DTD/svg11.dtd">
<svg version="1.1" id="Capa_1" xmlns="http://www.w3.org/2000/svg" xmlns:xlink="http://www.w3.org/1999/xlink" x="0px" y="0px"
	 width="512px" height="512px" viewBox="0 0 512 512" enable-background="new 0 0 512 512" xml:space="preserve">
<g>
	<path fill="#FFFFFF" d="M406.757,98.699H105.243c-32.814,0-59.518,27.303-59.518,60.862v192.877
		c0,33.559,26.703,60.862,59.518,60.862h301.514c32.814,0,59.518-27.304,59.518-60.862V159.562
		C466.274,126.002,439.571,98.699,406.757,98.699z M198.347,195.523l-62.614,64.021l55.682,56.932
		c4.813,4.922,4.813,12.901,0,17.814c-4.805,4.921-12.608,4.921-17.422,0l-64.397-65.844c-4.813-4.921-4.813-12.892,0-17.813
		l71.321-72.922c4.813-4.922,12.617-4.922,17.43,0C203.152,182.624,203.152,190.602,198.347,195.523L198.347,195.523z
		 M299.977,165.886l-65.152,188.618c-2.267,6.566-9.306,10.003-15.721,7.684c-6.415-2.317-9.783-9.516-7.515-16.073l65.152-188.619
		c2.266-6.559,9.298-10.002,15.722-7.684C298.876,152.129,302.244,159.327,299.977,165.886L299.977,165.886z M402.404,261.367
		l-71.321,72.922c-4.813,4.922-12.617,4.922-17.43,0c-4.806-4.912-4.806-12.892,0-17.813l62.613-64.02l-55.682-56.932
		c-4.813-4.921-4.813-12.9,0-17.813c4.806-4.921,12.609-4.921,17.422,0l64.397,65.843
		C407.217,248.475,407.217,256.444,402.404,261.367L402.404,261.367z"/>
</g>
</svg>
