<?xml version="1.0" encoding="utf-8"?>
<!-- Generator: Adobe Illustrator 16.0.0, SVG Export Plug-In . SVG Version: 6.00 Build 0)  -->
<!DOCTYPE svg PUBLIC "-//W3C//DTD SVG 1.1//EN" "http://www.w3.org/Graphics/SVG/1.1/DTD/svg11.dtd">
<svg version="1.1" id="Capa_1" xmlns="http://www.w3.org/2000/svg" xmlns:xlink="http://www.w3.org/1999/xlink" x="0px" y="0px"
	 width="612px" height="792px" viewBox="0 0 612 792" enable-background="new 0 0 612 792" xml:space="preserve">
<g>
	<g>
		<g>
			<path fill="#FFFFFF" d="M538.349,188.474H73.651c-13.485,0-24.415,10.93-24.415,24.415v464.697
				c0,13.485,10.93,24.415,24.415,24.415h464.697c13.485,0,24.415-10.93,24.415-24.415V212.889
				C562.764,199.403,551.834,188.474,538.349,188.474z M513.933,653.17H98.067V237.303h415.868V653.17H513.933z"/>
			<path fill="#FFFFFF" d="M165.614,138.83h281.593c13.485,0,24.415-10.93,24.415-24.416c0-13.485-10.93-24.414-24.415-24.414
				H165.614c-13.486,0-24.416,10.93-24.416,24.416C141.199,127.901,152.128,138.83,165.614,138.83z"/>
			<path fill="#FFFFFF" d="M194.099,406.58h224.625c13.485,0,24.416-10.93,24.416-24.416v-42.318
				c0-13.486-10.931-24.416-24.416-24.416s-24.415,10.93-24.415,24.416v17.904H218.514v-17.905c0-13.485-10.93-24.415-24.415-24.415
				c-13.486,0-24.416,10.93-24.416,24.415v42.319C169.683,395.642,180.613,406.58,194.099,406.58z"/>
		</g>
	</g>
</g>
</svg>
