<?xml version="1.0" encoding="utf-8"?>
<!-- Generator: Adobe Illustrator 16.0.0, SVG Export Plug-In . SVG Version: 6.00 Build 0)  -->
<!DOCTYPE svg PUBLIC "-//W3C//DTD SVG 1.1//EN" "http://www.w3.org/Graphics/SVG/1.1/DTD/svg11.dtd">
<svg version="1.1" id="Layer_1" xmlns="http://www.w3.org/2000/svg" xmlns:xlink="http://www.w3.org/1999/xlink" x="0px" y="0px"
	 width="512px" height="512px" viewBox="0 0 512 512" enable-background="new 0 0 512 512" xml:space="preserve">
<g>
	<path fill="#FFFFFF" d="M501.66,475.34l-465-465C35.158,8.841,33.122,7.999,31,8H16c-4.418,0-8,3.582-8,8v480c0,4.418,3.582,8,8,8
		h480c4.418,0,8-3.582,8-8v-15C504.001,478.878,503.159,476.842,501.66,475.34z M488,488h-32v-16c0-4.418-3.582-8-8-8s-8,3.582-8,8
		v16h-32v-8c0-4.418-3.582-8-8-8s-8,3.582-8,8v8h-32v-16c0-4.418-3.582-8-8-8s-8,3.582-8,8v16h-32v-8c0-4.418-3.582-8-8-8
		s-8,3.582-8,8v8h-32v-16c0-4.418-3.582-8-8-8c-4.418,0-8,3.582-8,8v16h-32v-8c0-4.418-3.582-8-8-8s-8,3.582-8,8v8h-32v-16
		c0-4.418-3.582-8-8-8s-8,3.582-8,8v16h-32v-8c0-4.418-3.582-8-8-8s-8,3.582-8,8v8H72v-16c0-4.418-3.582-8-8-8s-8,3.582-8,8v16H24
		v-32h16c4.418,0,8-3.582,8-8s-3.582-8-8-8H24v-32h8c4.418,0,8-3.582,8-8s-3.582-8-8-8h-8v-32h16c4.418,0,8-3.582,8-8s-3.582-8-8-8
		H24v-32h8c4.418,0,8-3.582,8-8s-3.582-8-8-8h-8v-32h16c4.418,0,8-3.582,8-8c0-4.418-3.582-8-8-8H24v-32h8c4.418,0,8-3.582,8-8
		s-3.582-8-8-8h-8v-32h16c4.418,0,8-3.582,8-8s-3.582-8-8-8H24v-32h8c4.418,0,8-3.582,8-8s-3.582-8-8-8h-8V72h16
		c4.418,0,8-3.582,8-8s-3.582-8-8-8H24V24h3.69L488,484.31V488z"/>
	<path fill="#FFFFFF" d="M112,408h176c4.418,0,8-3.581,8-8c0-2.122-0.843-4.156-2.343-5.657l-176-176
		c-3.125-3.124-8.189-3.124-11.314,0c-1.5,1.5-2.343,3.535-2.343,5.657v176C104,404.418,107.582,408,112,408z M120,243.313
		L268.686,392H120V243.313z"/>
	<path fill="#FFFFFF" d="M493.71,278.51L233.49,18.29c-3.124-3.122-8.187-3.122-11.31,0l-67.89,67.89
		c-3.122,3.124-3.122,8.186,0,11.31l260.22,260.22c3.124,3.122,8.187,3.122,11.311,0l67.89-67.89
		C496.832,286.696,496.832,281.634,493.71,278.51L493.71,278.51z M420.17,340.74l-5.66-5.66l5.66-5.66
		c3.123-3.126,3.121-8.191-0.005-11.314s-8.192-3.121-11.315,0.004l0,0l-5.649,5.65l-11.32-11.31l16.97-16.97
		c3.044-3.203,2.914-8.268-0.289-11.311c-3.088-2.934-7.933-2.934-11.021,0l-16.97,16.971l-11.32-11.32l5.66-5.65
		c3.126-3.123,3.128-8.189,0.005-11.314c-3.123-3.127-8.189-3.129-11.315-0.006l-5.659,5.66L346.63,267.2l16.97-16.97
		c3.126-3.126,3.126-8.194,0-11.32s-8.193-3.126-11.319,0l-16.971,16.97L324,244.57l5.66-5.66c3.123-3.126,3.121-8.192-0.005-11.315
		c-3.126-3.123-8.192-3.121-11.315,0.005l0,0l-5.649,5.65l-11.32-11.31l16.97-16.97c3.043-3.203,2.914-8.267-0.29-11.31
		c-3.087-2.934-7.932-2.934-11.02,0l-16.97,16.97l-11.311-11.32l5.65-5.65c3.125-3.123,3.128-8.189,0.004-11.315
		c-3.123-3.125-8.188-3.128-11.314-0.005l-5.66,5.66l-11.31-11.31l16.97-16.97c3.126-3.125,3.126-8.194,0-11.32
		s-8.193-3.126-11.32,0l-16.97,16.97l-11.31-11.31l5.66-5.66c3.123-3.126,3.121-8.192-0.005-11.315s-8.192-3.121-11.315,0.005l0,0
		l-5.65,5.65l-11.32-11.31l16.97-16.97c3.043-3.203,2.914-8.267-0.29-11.31c-3.087-2.934-7.932-2.934-11.02,0l-16.97,16.97
		l-11.31-11.32l5.65-5.65c3.126-3.123,3.128-8.189,0.005-11.315s-8.189-3.128-11.315-0.005l0,0l-5.66,5.66l-5.65-5.66l39.59-39.59
		l248.9,248.9L420.17,340.74z M471.08,289.82l-248.9-248.9l5.65-5.66l248.9,248.91L471.08,289.82z"/>
</g>
</svg>
