<?xml version="1.0" encoding="utf-8"?>
<!-- Generator: Adobe Illustrator 16.0.0, SVG Export Plug-In . SVG Version: 6.00 Build 0)  -->
<!DOCTYPE svg PUBLIC "-//W3C//DTD SVG 1.1//EN" "http://www.w3.org/Graphics/SVG/1.1/DTD/svg11.dtd">
<svg version="1.1" id="Capa_1" xmlns="http://www.w3.org/2000/svg" xmlns:xlink="http://www.w3.org/1999/xlink" x="0px" y="0px"
	 width="612px" height="792px" viewBox="0 0 612 792" enable-background="new 0 0 612 792" xml:space="preserve">
<g>
	<g>
		<path fill="#FFFFFF" d="M568.931,513.963c-19.967-14.845-44.836-24.468-71.659-28.018V354.034H329.959v-96.618h101.582V90.103
			H180.572v167.313h101.583v96.618H127.988v125.777L0,581.791l150.098,119.595l150.098-119.595l-124.403-99.122v-80.831h273.677
			v84.265c-26.366,3.675-50.793,13.237-70.464,27.861c-27.774,20.649-43.069,48.77-43.069,79.182
			c0,30.411,15.296,58.532,43.069,79.181c25.65,19.07,59.376,29.572,94.963,29.572s69.313-10.502,94.963-29.572
			C596.705,651.678,612,623.558,612,593.146S596.703,534.612,568.931,513.963z M223.481,581.791l-73.385,58.474l-73.385-58.474
			l73.385-58.474L223.481,581.791z M228.376,209.611v-71.705h155.362v71.706L228.376,209.611L228.376,209.611z M473.967,654.093
			c-48.909,0-90.229-27.911-90.229-60.95c0-33.038,41.32-60.95,90.229-60.95c48.908,0,90.229,27.912,90.229,60.95
			C564.196,626.183,522.876,654.093,473.967,654.093z"/>
	</g>
</g>
</svg>
