<?xml version="1.0" encoding="utf-8"?>
<!-- Generator: Adobe Illustrator 16.0.0, SVG Export Plug-In . SVG Version: 6.00 Build 0)  -->
<!DOCTYPE svg PUBLIC "-//W3C//DTD SVG 1.1//EN" "http://www.w3.org/Graphics/SVG/1.1/DTD/svg11.dtd">
<svg version="1.1" id="Layer_1" focusable="false" xmlns="http://www.w3.org/2000/svg" xmlns:xlink="http://www.w3.org/1999/xlink"
	 x="0px" y="0px" width="612px" height="792px" viewBox="0 0 612 792" enable-background="new 0 0 612 792" xml:space="preserve">
<path fill="#FFFFFF" d="M581.189,151.439L451.406,21.656C437.484,7.734,418.612-0.155,398.967-0.155H83.25
	C42.258,0,9,33.258,9,74.25v643.5C9,758.742,42.258,792,83.25,792h445.5c40.992,0,74.25-33.258,74.25-74.25V204.033
	C603,184.388,595.111,165.361,581.189,151.439z M522.717,198H405V80.283L522.717,198z M83.25,717.75V74.25h247.5v160.875
	c0,20.573,16.552,37.125,37.125,37.125H528.75v445.5H83.25z"/>
<g>
	<g>
		<path fill="#FFFFFF" d="M232.826,397.002h-26.609c-11.002,0-19.957,8.955-19.957,19.957v66.521c0,3.672,2.974,6.652,6.652,6.652
			s6.652-2.98,6.652-6.652v-19.957h39.913v19.957c0,3.672,2.974,6.652,6.652,6.652s6.652-2.98,6.652-6.652v-66.521
			C252.783,405.957,243.829,397.002,232.826,397.002z M239.479,450.219h-39.913v-33.26c0-3.665,2.98-6.652,6.652-6.652h26.609
			c3.672,0,6.652,2.988,6.652,6.652V450.219L239.479,450.219z"/>
	</g>
</g>
<g>
	<g>
		<path fill="#FFFFFF" d="M319.305,397.002h-26.609c-3.678,0-6.652,2.98-6.652,6.652v79.826c0,3.672,2.974,6.652,6.652,6.652
			s6.652-2.98,6.652-6.652v-19.957h19.957c18.34,0,33.261-14.92,33.261-33.26S337.645,397.002,319.305,397.002z M319.305,450.219
			h-19.957v-39.912h19.957c11.002,0,19.957,8.955,19.957,19.957S330.307,450.219,319.305,450.219z"/>
	</g>
</g>
<g>
	<g>
		<path fill="#FFFFFF" d="M432.392,476.828h-19.956v-66.521h19.956c3.679,0,6.652-2.98,6.652-6.652s-2.974-6.652-6.652-6.652
			h-53.218c-3.678,0-6.652,2.98-6.652,6.652s2.974,6.652,6.652,6.652h19.957v66.521h-19.957c-3.678,0-6.652,2.98-6.652,6.652
			s2.974,6.652,6.652,6.652h53.218c3.679,0,6.652-2.98,6.652-6.652C439.043,479.809,436.07,476.828,432.392,476.828z"/>
	</g>
</g>
<g>
	<g>
		<path fill="#FFFFFF" d="M445.695,330.481h-103.68l-24.66-24.66c-2.601-2.601-6.805-2.601-9.406,0l-24.659,24.66H179.609
			c-11.002,0-19.957,8.953-19.957,19.957v19.957c0,3.672,2.974,6.652,6.652,6.652c3.678,0,6.652-2.98,6.652-6.652v-19.957
			c0-3.666,2.979-6.652,6.652-6.652h106.435c1.77,0,3.459-0.699,4.703-1.949l21.905-21.906l21.906,21.906
			c1.243,1.25,2.934,1.949,4.703,1.949h106.434c3.672,0,6.652,2.987,6.652,6.652v19.956c0,3.672,2.974,6.652,6.652,6.652
			c3.68,0,6.652-2.979,6.652-6.651v-19.957C465.652,339.434,456.699,330.481,445.695,330.481z"/>
	</g>
</g>
<g>
	<g>
		<path fill="#FFFFFF" d="M459,510.09c-3.679,0-6.652,2.98-6.652,6.652v19.955c0,3.666-2.98,6.652-6.652,6.652H339.262
			c-1.77,0-3.46,0.699-4.703,1.949l-21.906,21.906l-21.905-21.906c-1.244-1.25-2.934-1.949-4.703-1.949H179.609
			c-3.672,0-6.652-2.986-6.652-6.652v-19.955c0-3.672-2.974-6.652-6.652-6.652s-6.652,2.98-6.652,6.652v19.955
			c0,11.004,8.954,19.957,19.957,19.957h103.68l24.66,24.66c1.297,1.297,3,1.947,4.703,1.947s3.405-0.65,4.703-1.947l24.658-24.66
			h103.682c11.002,0,19.956-8.953,19.956-19.957v-19.955C465.652,513.07,462.679,510.09,459,510.09z"/>
	</g>
</g>
</svg>
