<?xml version="1.0" encoding="utf-8"?>
<!-- Generator: Adobe Illustrator 16.0.0, SVG Export Plug-In . SVG Version: 6.00 Build 0)  -->
<!DOCTYPE svg PUBLIC "-//W3C//DTD SVG 1.1//EN" "http://www.w3.org/Graphics/SVG/1.1/DTD/svg11.dtd">
<svg version="1.1" id="Layer_1" focusable="false" xmlns="http://www.w3.org/2000/svg" xmlns:xlink="http://www.w3.org/1999/xlink"
	 x="0px" y="0px" width="612px" height="792px" viewBox="0 0 612 792" enable-background="new 0 0 612 792" xml:space="preserve">
<path fill="#FFFFFF" d="M581.189,151.439L451.406,21.656C437.484,7.734,418.612-0.155,398.967-0.155H83.25
	C42.258,0,9,33.258,9,74.25v643.5C9,758.742,42.258,792,83.25,792h445.5c40.992,0,74.25-33.258,74.25-74.25V204.033
	C603,184.388,595.111,165.361,581.189,151.439z M522.717,198H405V80.283L522.717,198z M83.25,717.75V74.25h247.5v160.875
	c0,20.573,16.552,37.125,37.125,37.125H528.75v445.5H83.25z"/>
<g>
	<g>
		<g>
			<path fill="#FFFFFF" d="M290.854,537.7c0-2.815-2.285-5.1-5.101-5.1h-0.051c-2.815,0-5.075,2.284-5.075,5.1s2.311,5.1,5.126,5.1
				S290.854,540.516,290.854,537.7z"/>
			<path fill="#FFFFFF" d="M402.9,604c2.82,0,5.1-2.284,5.1-5.1v-30.6c0-2.815-2.279-5.1-5.1-5.1h-51c-2.82,0-5.1,2.284-5.1,5.1
				v30.6c0,2.815,2.279,5.1,5.1,5.1s5.1-2.284,5.1-5.1v-25.5h40.8v25.5C397.8,601.716,400.08,604,402.9,604z"/>
			<path fill="#FFFFFF" d="M382.5,410.2c2.82,0,5.1-2.285,5.1-5.101c0-2.814-2.279-5.1-5.1-5.1h-20.4c-2.82,0-5.1,2.285-5.1,5.1
				c0,2.815,2.279,5.101,5.1,5.101H382.5z"/>
			<path fill="#FFFFFF" d="M331.5,604c2.82,0,5.1-2.284,5.1-5.1v-30.6c0-2.815-2.279-5.1-5.1-5.1h-51c-2.814,0-5.1,2.284-5.1,5.1
				v30.6c0,2.815,2.285,5.1,5.1,5.1c2.815,0,5.1-2.284,5.1-5.1v-25.5H326.4v25.5C326.4,601.716,328.68,604,331.5,604z"/>
			<path fill="#FFFFFF" d="M423.301,410.2c2.82,0,5.1-2.285,5.1-5.101c0-2.814-2.279-5.1-5.1-5.1h-20.4c-2.82,0-5.1,2.285-5.1,5.1
				c0,2.815,2.279,5.101,5.1,5.101H423.301z"/>
			<path fill="#FFFFFF" d="M433.5,318.4h-255c-14.061,0-25.5,11.438-25.5,25.5v30.6c0,2.815,2.285,5.1,5.1,5.1h275.4
				c2.82,0,5.1-2.284,5.1-5.1c0-2.814-2.279-5.1-5.1-5.1H163.2v-25.5c0-8.436,6.864-15.3,15.3-15.3h255
				c8.436,0,15.3,6.864,15.3,15.3v255c0,8.436-6.864,15.3-15.3,15.3h-255c-8.436,0-15.3-6.864-15.3-15.3v-204
				c0-2.815-2.285-5.101-5.1-5.101s-5.1,2.285-5.1,5.101v204c0,14.061,11.439,25.5,25.5,25.5h255c14.061,0,25.5-11.439,25.5-25.5
				v-255C459,329.839,447.561,318.4,433.5,318.4z"/>
			<path fill="#FFFFFF" d="M204,435.701V517.3c0,2.815,2.285,5.101,5.1,5.101h51c1.352,0,2.647-0.536,3.605-1.494l37.195-37.195
				l16.793,16.795c1.994,1.993,5.219,1.993,7.212,0l26.994-26.995l26.995,26.995c1.994,1.993,5.217,1.993,7.211,0
				c1.994-1.995,1.994-5.218,0-7.212l-30.6-30.6c-1.994-1.994-5.219-1.994-7.212,0l-26.995,26.995l-16.793-16.795
				c-1.995-1.993-5.218-1.993-7.212,0L257.988,512.2H214.2v-71.4h183.6v71.4H290.7c-2.815,0-5.101,2.285-5.101,5.1
				c0,2.815,2.285,5.101,5.101,5.101h112.2c2.82,0,5.1-2.285,5.1-5.101v-81.599c0-2.815-2.279-5.101-5.1-5.101H209.1
				C206.284,430.6,204,432.885,204,435.701z"/>
			<path fill="#FFFFFF" d="M341.699,410.2c2.82,0,5.1-2.285,5.1-5.101c0-2.814-2.279-5.1-5.1-5.1h-20.4
				c-2.82,0-5.099,2.285-5.099,5.1c0,2.815,2.279,5.101,5.099,5.101H341.699z"/>
			<path fill="#FFFFFF" d="M244.8,349c0,5.625,4.575,10.2,10.2,10.2s10.2-4.574,10.2-10.2c0-5.625-4.575-10.2-10.2-10.2
				S244.8,343.375,244.8,349z"/>
			<path fill="#FFFFFF" d="M260.1,604c2.815,0,5.1-2.284,5.1-5.1v-30.6c0-2.815-2.284-5.1-5.1-5.1h-51c-2.815,0-5.1,2.284-5.1,5.1
				v30.6c0,2.815,2.285,5.1,5.1,5.1s5.1-2.284,5.1-5.1v-25.5H255v25.5C255,601.716,257.285,604,260.1,604z"/>
			<path fill="#FFFFFF" d="M229.5,400h-40.801c-2.814,0-5.099,2.285-5.099,5.1c0,2.815,2.285,5.1,5.099,5.1H229.5
				c2.814,0,5.1-2.284,5.1-5.1C234.6,402.285,232.314,400,229.5,400z"/>
			<path fill="#FFFFFF" d="M214.2,349c0,5.625,4.574,10.2,10.2,10.2c5.625,0,10.199-4.574,10.199-10.2
				c0-5.625-4.574-10.2-10.199-10.2C218.774,338.8,214.2,343.375,214.2,349z"/>
			<path fill="#FFFFFF" d="M183.6,349c0,5.625,4.575,10.2,10.2,10.2S204,354.626,204,349c0-5.625-4.574-10.2-10.2-10.2
				C188.175,338.8,183.6,343.375,183.6,349z"/>
			<path fill="#FFFFFF" d="M331.653,537.7c0-2.815-2.284-5.1-5.1-5.1h-0.052c-2.814,0-5.074,2.284-5.074,5.1s2.311,5.1,5.126,5.1
				S331.653,540.516,331.653,537.7z"/>
			<path fill="#FFFFFF" d="M311.253,537.7c0-2.815-2.285-5.1-5.101-5.1h-0.051c-2.814,0-5.074,2.284-5.074,5.1s2.305,5.1,5.125,5.1
				C308.968,542.801,311.253,540.516,311.253,537.7z"/>
			<path fill="#FFFFFF" d="M234.6,466.3c0,8.436,6.865,15.301,15.301,15.301s15.3-6.865,15.3-15.301c0-8.435-6.864-15.3-15.3-15.3
				S234.6,457.865,234.6,466.3z M255,466.3c0,2.811-2.289,5.101-5.1,5.101s-5.101-2.29-5.101-5.101c0-2.81,2.29-5.1,5.101-5.1
				C252.71,461.2,255,463.49,255,466.3z"/>
		</g>
	</g>
</g>
</svg>
