<?xml version="1.0" encoding="utf-8"?>
<!-- Generator: Adobe Illustrator 16.0.0, SVG Export Plug-In . SVG Version: 6.00 Build 0)  -->
<!DOCTYPE svg PUBLIC "-//W3C//DTD SVG 1.1//EN" "http://www.w3.org/Graphics/SVG/1.1/DTD/svg11.dtd">
<svg version="1.1" id="Capa_1" xmlns="http://www.w3.org/2000/svg" xmlns:xlink="http://www.w3.org/1999/xlink" x="0px" y="0px"
	 width="550.801px" height="550.801px" viewBox="0 0 550.801 550.801" enable-background="new 0 0 550.801 550.801"
	 xml:space="preserve">
<g>
	<g>
		<path fill="#FFFFFF" d="M475.084,131.992c-0.021-2.521-0.828-5.021-2.562-6.993L366.324,3.689
			c-0.031-0.035-0.063-0.045-0.084-0.077c-0.633-0.706-1.371-1.284-2.151-1.803c-0.231-0.145-0.464-0.285-0.707-0.422
			c-0.675-0.367-1.392-0.665-2.13-0.886c-0.201-0.063-0.38-0.145-0.58-0.197C359.87,0.114,359.037,0,358.193,0H97.2
			C85.282,0,75.6,9.693,75.6,21.601v507.6c0,11.907,9.682,21.601,21.6,21.601H453.6c11.908,0,21.602-9.692,21.602-21.601V133.202
			C475.2,132.791,475.137,132.393,475.084,131.992z M181.101,495.672c8.931,0,18.845-1.939,24.677-4.271l4.472,23.129
			c-5.444,2.722-17.684,5.643-33.626,5.643c-45.291,0-68.618-28.19-68.618-65.506c0-44.709,31.88-69.589,71.529-69.589
			c15.356,0,27.021,3.105,32.276,5.833l-6.033,23.514c-6.02-2.524-14.386-4.846-24.877-4.846c-23.517,0-41.784,14.186-41.784,43.331
			C139.116,479.155,154.662,495.672,181.101,495.672z M261.776,520.172c-14.964,0-29.742-3.892-37.125-7.973l6.02-24.49
			c7.976,4.082,20.218,8.163,32.854,8.163c13.605,0,20.798-5.644,20.798-14.196c0-8.163-6.218-12.824-21.963-18.457
			c-21.766-7.583-35.955-19.627-35.955-38.675c0-22.359,18.658-39.467,49.565-39.467c14.771,0,25.66,3.106,33.429,6.612
			l-6.603,23.909c-5.258-2.53-14.575-6.223-27.412-6.223c-12.825,0-19.045,5.833-19.045,12.636c0,8.369,7.38,12.056,24.304,18.468
			c23.123,8.56,34.014,20.599,34.014,39.065C314.645,501.504,297.738,520.172,261.776,520.172z M400.18,518.216h-34.594
			L323.6,387.213h32.464L372,442.616c4.472,15.546,8.554,30.512,11.665,46.844h0.58c3.301-15.747,7.383-31.298,11.854-46.259
			l16.718-55.982h31.492L400.18,518.216z M97.2,366.752V21.601h250.191v110.521c0,5.962,4.843,10.8,10.802,10.8H453.6v223.837H97.2
			V366.752z"/>
		<path fill="#FFFFFF" d="M377.188,170.058h-66.148h-2.311h-66.149l0,0h-65v29.223v2.193v27.032v2.312v26.924v2.302v29.226h68.462
			l0,0h131.27v-92.688h-0.121v-26.524H377.188z M243.728,286.971H179.89v-26.927h63.837L243.728,286.971L243.728,286.971z
			 M243.728,257.742H179.89v-26.924h63.837L243.728,257.742L243.728,257.742z M243.728,228.506H179.89v-26.913h62.688h1.149
			L243.728,228.506L243.728,228.506z M244.891,199.281v-26.913h63.837v26.913H246.04H244.891z M374.604,286.568h-25.206v-77.097
			H332.09v77.097h-14.418v-61.129h-17.309v61.129h-12.697v-45.361h-17.31v45.361h-24.321v-26.524v-2.302v-26.924v-2.312v-26.913
			h62.688h2.315h63.564L374.604,286.568L374.604,286.568z M374.878,196.581h-0.274v2.7h-63.564v-26.913h63.84L374.878,196.581
			L374.878,196.581z"/>
	</g>
</g>
</svg>
