<?xml version="1.0" encoding="utf-8"?>
<!-- Generator: Adobe Illustrator 16.0.0, SVG Export Plug-In . SVG Version: 6.00 Build 0)  -->
<!DOCTYPE svg PUBLIC "-//W3C//DTD SVG 1.1//EN" "http://www.w3.org/Graphics/SVG/1.1/DTD/svg11.dtd">
<svg version="1.1" id="Layer_1" xmlns="http://www.w3.org/2000/svg" xmlns:xlink="http://www.w3.org/1999/xlink" x="0px" y="0px"
	 width="512px" height="512px" viewBox="0 0 512 512" enable-background="new 0 0 512 512" xml:space="preserve">
<path fill="#FFFFFF" d="M432,273H80V153.121h352V273z M120,233h272v-39.879H120V233z M432,76.121H80v40h352V76.121z M432,349.879
	H240v40h192V349.879z M200,429.879H80V310h120V429.879z M120,389.879h40V350h-40V389.879z M452,512H60c-33.086,0-60-26.914-60-60V60
	C0,26.914,26.914,0,60,0h392c33.086,0,60,26.914,60,60v392C512,485.086,485.086,512,452,512z M60,40c-11.027,0-20,8.973-20,20v392
	c0,11.027,8.973,20,20,20h392c11.027,0,20-8.973,20-20V60c0-11.027-8.973-20-20-20H60z"/>
</svg>
