<?xml version="1.0" encoding="utf-8"?>
<!-- Generator: Adobe Illustrator 16.0.0, SVG Export Plug-In . SVG Version: 6.00 Build 0)  -->
<!DOCTYPE svg PUBLIC "-//W3C//DTD SVG 1.1//EN" "http://www.w3.org/Graphics/SVG/1.1/DTD/svg11.dtd">
<svg version="1.1" id="Capa_1" xmlns="http://www.w3.org/2000/svg" xmlns:xlink="http://www.w3.org/1999/xlink" x="0px" y="0px"
	 width="512px" height="512px" viewBox="0 0 512 512" enable-background="new 0 0 512 512" xml:space="preserve">
<g>
	<path fill="#FFFFFF" d="M467,88.759H45c-24.78,0-45,20.219-45,45v110c0,24.781,20.22,45,45,45h117.457
		c4.653-7.784,10.248-14.948,16.627-21.325c50.564-50.564,134.157-39.408,170.46,21.325H467c24.781,0,45-20.219,45-45v-110
		C512,108.979,491.781,88.759,467,88.759z M134.6,195.132c-3.964,6.899-12.6,9.436-19.625,5.918
		c-0.446,7.884-6.979,14.141-14.975,14.141s-14.529-6.256-14.975-14.141c-7.025,3.518-15.66,0.98-19.625-5.918
		c-3.966-6.902-1.808-15.645,4.776-19.941c-6.584-4.296-8.742-13.04-4.776-19.942c3.964-6.899,12.6-9.436,19.625-5.918
		c0.446-7.884,6.979-14.14,14.975-14.14s14.53,6.256,14.975,14.141c7.025-3.519,15.66-0.981,19.625,5.918
		c3.966,6.902,1.808,15.645-4.776,19.942C136.408,179.487,138.566,188.23,134.6,195.132z M238.6,195.132
		c-3.964,6.899-12.6,9.436-19.625,5.918c-0.446,7.884-6.979,14.141-14.975,14.141s-14.529-6.256-14.975-14.141
		c-7.025,3.518-15.66,0.98-19.625-5.918c-3.966-6.902-1.808-15.645,4.776-19.941c-6.584-4.296-8.742-13.04-4.776-19.942
		c3.964-6.899,12.6-9.436,19.625-5.918c0.446-7.884,6.979-14.14,14.975-14.14s14.53,6.256,14.975,14.141
		c7.025-3.519,15.661-0.981,19.625,5.918c3.966,6.902,1.808,15.645-4.776,19.942C240.408,179.487,242.566,188.23,238.6,195.132z
		 M342.6,195.132c-3.964,6.899-12.6,9.436-19.625,5.918c-0.445,7.884-6.979,14.141-14.975,14.141s-14.529-6.256-14.975-14.141
		c-7.025,3.518-15.66,0.98-19.625-5.918c-3.967-6.902-1.809-15.645,4.775-19.941c-6.583-4.296-8.742-13.04-4.775-19.942
		c3.963-6.899,12.6-9.436,19.625-5.918c0.445-7.884,6.979-14.14,14.975-14.14s14.53,6.256,14.975,14.141
		c7.025-3.519,15.661-0.981,19.625,5.918c3.967,6.902,1.809,15.645-4.775,19.942C344.408,179.487,346.566,188.23,342.6,195.132z
		 M446.6,195.132c-3.964,6.899-12.6,9.436-19.625,5.918c-0.445,7.884-6.979,14.141-14.975,14.141s-14.529-6.256-14.975-14.141
		c-7.025,3.518-15.66,0.98-19.625-5.918c-3.967-6.902-1.809-15.645,4.775-19.941c-6.583-4.296-8.742-13.04-4.775-19.942
		c3.964-6.899,12.6-9.436,19.625-5.918c0.445-7.884,6.979-14.14,14.975-14.14s14.53,6.256,14.975,14.141
		c7.025-3.519,15.661-0.981,19.625,5.918c3.967,6.902,1.809,15.645-4.775,19.942C448.408,179.487,450.566,188.23,446.6,195.132z"/>
	<path fill="#FFFFFF" d="M256,265.458c-21.68,0-41.4,8.88-55.706,23.187c-14.306,14.306-23.186,34.025-23.186,55.705
		s8.88,41.398,23.186,55.705s34.026,23.187,55.705,23.187c21.681,0,41.399-8.88,55.706-23.187
		c14.306-14.306,23.186-34.025,23.186-55.705s-8.88-41.399-23.186-55.705C297.4,274.338,277.68,265.458,256,265.458z
		 M302.686,333.298l-42.656,42.656c-5.857,5.856-15.354,5.856-21.211,0l-17.909-17.909c-5.857-5.857-5.857-15.354,0-21.211
		c5.857-5.857,15.354-5.857,21.211,0l7.303,7.303l32.052-32.051c5.857-5.857,15.354-5.857,21.211,0
		C308.543,317.943,308.543,327.439,302.686,333.298z"/>
</g>
</svg>
