<?xml version="1.0" encoding="utf-8"?>
<!-- Generator: Adobe Illustrator 16.0.0, SVG Export Plug-In . SVG Version: 6.00 Build 0)  -->
<!DOCTYPE svg PUBLIC "-//W3C//DTD SVG 1.1//EN" "http://www.w3.org/Graphics/SVG/1.1/DTD/svg11.dtd">
<svg version="1.1" id="Layer_1" xmlns="http://www.w3.org/2000/svg" xmlns:xlink="http://www.w3.org/1999/xlink" x="0px" y="0px"
	 width="612px" height="792px" viewBox="0 0 612 792" enable-background="new 0 0 612 792" xml:space="preserve">
<g>
	<g>
		<path fill="#FFFFFF" d="M602.218,372.222l-221.015-221.02c-6.309-6.309-14.718-9.772-23.684-9.772
			c-8.976,0-17.38,3.468-23.688,9.772l-20.066,20.071c-6.305,6.299-9.777,14.713-9.777,23.684c0,8.966,3.473,17.664,9.777,23.962
			L442.701,348.14H33.063C14.593,348.14,0,362.599,0,381.073v28.376c0,18.474,14.593,34.391,33.063,34.391h411.102L313.77,573.782
			c-6.305,6.309-9.777,14.494-9.777,23.465c0,8.961,3.473,17.265,9.777,23.569l20.066,20.007c6.309,6.309,14.713,9.747,23.688,9.747
			c8.966,0,17.375-3.483,23.684-9.792l221.015-221.015c6.324-6.329,9.803-14.777,9.777-23.759
			C612.02,386.994,608.547,378.541,602.218,372.222z"/>
	</g>
</g>
</svg>
