<?xml version="1.0" encoding="utf-8"?>
<!-- Generator: Adobe Illustrator 16.0.0, SVG Export Plug-In . SVG Version: 6.00 Build 0)  -->
<!DOCTYPE svg PUBLIC "-//W3C//DTD SVG 1.1//EN" "http://www.w3.org/Graphics/SVG/1.1/DTD/svg11.dtd">
<svg version="1.1" id="Capa_1" xmlns="http://www.w3.org/2000/svg" xmlns:xlink="http://www.w3.org/1999/xlink" x="0px" y="0px"
	 width="612px" height="612px" viewBox="0 0 612 612" enable-background="new 0 0 612 612" xml:space="preserve">
<g>
	<g id="_x32__4_">
		<g>
			<path fill="#FFFFFF" d="M254.254,335.223l-76.214,78.128l0.351-41.942c0-9.026-7.146-16.352-15.951-16.352
				c-8.805,0-15.951,7.325-15.951,16.352v81.759c0,4.842,1.946,8.748,5.04,11.447c2.887,3.025,6.907,4.905,11.358,4.905h79.31
				c8.805,0,15.951-7.325,15.951-16.353c0-9.025-7.146-16.351-15.951-16.351H200.26l76.55-78.474L254.254,335.223z M242.196,175.185
				c8.805,0,15.951-7.326,15.951-16.353c0-9.026-7.146-16.352-15.951-16.352h-79.309c-4.45,0-8.471,1.897-11.358,4.905
				c-3.094,2.698-5.04,6.606-5.04,11.447v81.76c0,9.026,7.146,16.352,15.951,16.352c8.806,0,15.95-7.326,15.95-16.352l-0.351-41.96
				l76.214,78.13l22.555-23.122l-76.535-78.456H242.196z M449.561,355.057c-8.804,0-15.951,7.325-15.951,16.351l0.353,41.96
				l-76.216-78.13l-22.555,23.121l76.55,78.457h-41.936c-8.804,0-15.951,7.326-15.951,16.352c0,9.027,7.147,16.353,15.951,16.353
				h79.311c4.465,0,8.469-1.897,11.356-4.921c3.096-2.683,5.04-6.59,5.04-11.432v-81.76
				C465.512,362.382,458.365,355.057,449.561,355.057z M449.114,142.48h-79.31c-8.805,0-15.951,7.326-15.951,16.352
				c0,9.026,7.146,16.353,15.951,16.353h41.92l-76.549,78.474l22.555,23.122l76.214-78.13l-0.336,41.942
				c0,9.026,7.147,16.352,15.951,16.352c8.805,0,15.951-7.326,15.951-16.352v-81.76c0-4.84-1.962-8.749-5.04-11.447
				C457.584,144.376,453.565,142.48,449.114,142.48z M497.415,44.368H114.586c-35.236,0-63.805,29.286-63.805,65.408v392.448
				c0,36.121,28.569,65.408,63.805,65.408h382.829c35.235,0,63.805-29.287,63.805-65.408V109.776
				C561.22,73.654,532.65,44.368,497.415,44.368z M529.317,502.224c0,18.068-14.276,32.703-31.902,32.703H114.586
				c-17.626,0-31.902-14.635-31.902-32.703V109.776c0-18.053,14.276-32.704,31.902-32.704h382.829
				c17.625,0,31.901,14.651,31.901,32.704L529.317,502.224L529.317,502.224z"/>
		</g>
	</g>
</g>
</svg>
