<?xml version="1.0" encoding="utf-8"?>
<!-- Generator: Adobe Illustrator 16.0.0, SVG Export Plug-In . SVG Version: 6.00 Build 0)  -->
<!DOCTYPE svg PUBLIC "-//W3C//DTD SVG 1.1//EN" "http://www.w3.org/Graphics/SVG/1.1/DTD/svg11.dtd">
<svg version="1.1" id="Capa_1" xmlns="http://www.w3.org/2000/svg" xmlns:xlink="http://www.w3.org/1999/xlink" x="0px" y="0px"
	 width="612px" height="792px" viewBox="0 0 612 792" enable-background="new 0 0 612 792" xml:space="preserve">
<g>
	<g>
		<path fill="#FFFFFF" d="M310.75,11.998c-31.273,0-57.571,21.311-64.74,49.951C173.649,75.934,107.64,113.32,58.643,168.448
			c-53.385,60.063-82.784,137.147-82.784,217.05c0,12.087,9.952,21.885,22.228,21.885c12.275,0,22.228-9.797,22.228-21.885
			c0-69.297,25.493-136.145,71.783-188.226c41.579-46.782,97.254-78.846,158.377-91.57c10.705,22.208,33.694,37.604,60.275,37.604
			c36.77,0,66.682-29.453,66.682-65.654S347.52,11.998,310.75,11.998z"/>
	</g>
</g>
<g>
	<g>
		<path fill="#FFFFFF" d="M501.261,345.763c-5.376-3.681-15.602-9.5-22.894-12.601l-11.508-27.356
			c2.841-7.049,5.947-18.33,7.136-24.847c1.289-7.052-1.012-14.279-6.158-19.346l-31.265-30.782
			c-5.146-5.07-12.488-7.335-19.65-6.066c-6.518,1.155-17.898,4.161-25.233,7.028l-27.784-11.333
			c-3.045-6.947-8.952-17.094-12.8-22.538c-4.153-5.882-10.97-9.39-18.247-9.39h-44.214c-7.276,0-14.093,3.507-18.247,9.39
			c-3.739,5.292-9.65,15.36-12.8,22.538l-27.784,11.333c-7.159-2.798-18.616-5.856-25.235-7.028c-7.158-1.264-14.502,1-19.649,6.066
			l-31.263,30.782c-5.147,5.067-7.448,12.292-6.161,19.346c1.172,6.417,4.227,17.625,7.138,24.847l-11.51,27.356
			c-7.056,3-17.361,8.813-22.89,12.601c-5.975,4.092-9.538,10.802-9.538,17.967v43.531c0,7.166,3.563,13.877,9.538,17.968
			c5.374,3.683,15.6,9.501,22.89,12.602l11.51,27.356c-2.842,7.049-5.948,18.329-7.138,24.846
			c-1.288,7.052,1.014,14.279,6.161,19.348l31.263,30.782c5.145,5.066,12.481,7.328,19.649,6.063
			c6.519-1.152,17.9-4.159,25.235-7.026l27.784,11.333c3.047,6.946,8.953,17.093,12.8,22.537c4.155,5.883,10.971,9.391,18.247,9.391
			h44.214c7.277,0,14.094-3.508,18.247-9.391c3.741-5.291,9.65-15.36,12.8-22.537l27.784-11.333
			c7.16,2.796,18.615,5.854,25.233,7.026c7.164,1.268,14.504-0.996,19.65-6.063l31.265-30.782
			c5.146-5.067,7.447-12.295,6.158-19.348c-1.169-6.419-4.224-17.624-7.136-24.846l11.508-27.356
			c7.058-2.999,17.365-8.813,22.894-12.602c5.974-4.091,9.535-10.802,9.535-17.968v-43.531
			C510.796,356.564,507.234,349.853,501.261,345.763z M310.75,473.037c-49.025,0-88.909-39.27-88.909-87.539
			s39.884-87.539,88.909-87.539c49.025,0,88.91,39.27,88.91,87.539S359.775,473.037,310.75,473.037z"/>
	</g>
</g>
<g>
	<g>
		<path fill="#FFFFFF" d="M623.414,363.612c-12.277,0-22.229,9.799-22.229,21.886c0,69.298-25.492,136.144-71.783,188.227
			c-41.577,46.782-97.254,78.847-158.379,91.569c-10.705-22.206-33.691-37.604-60.273-37.604c-36.768,0-66.682,29.452-66.682,65.654
			s29.914,65.654,66.682,65.654c31.271,0,57.572-21.311,64.741-49.952c72.359-13.983,138.37-51.369,187.367-106.497
			c53.385-60.064,82.782-137.147,82.782-217.051C645.641,373.411,635.689,363.612,623.414,363.612z"/>
	</g>
</g>
</svg>
