<?xml version="1.0" encoding="utf-8"?>
<!-- Generator: Adobe Illustrator 16.0.0, SVG Export Plug-In . SVG Version: 6.00 Build 0)  -->
<!DOCTYPE svg PUBLIC "-//W3C//DTD SVG 1.1//EN" "http://www.w3.org/Graphics/SVG/1.1/DTD/svg11.dtd">
<svg version="1.1" id="Capa_1" xmlns="http://www.w3.org/2000/svg" xmlns:xlink="http://www.w3.org/1999/xlink" x="0px" y="0px"
	 width="612px" height="792px" viewBox="0 0 612 792" enable-background="new 0 0 612 792" xml:space="preserve">
<g>
	<g>
		<path fill="#FFFFFF" d="M522.375,179.625C464.578,121.83,387.735,90,306,90s-158.579,31.83-216.375,89.625
			C31.83,237.421,0,314.265,0,396s31.83,158.578,89.625,216.375C147.421,670.17,224.265,702,306,702s158.578-31.83,216.375-89.625
			C580.17,554.578,612,477.735,612,396S580.17,237.421,522.375,179.625z M306,173.672c36.25,0,65.742,29.492,65.742,65.742
			S342.25,305.156,306,305.156s-65.742-29.492-65.742-65.742S269.75,173.672,306,173.672z M389.672,592.031H222.328v-35.859h35.859
			V376.875h-35.859v-35.859h131.484v215.156h35.859V592.031z"/>
	</g>
</g>
</svg>
