<?xml version="1.0" encoding="utf-8"?>
<!-- Generator: Adobe Illustrator 16.0.0, SVG Export Plug-In . SVG Version: 6.00 Build 0)  -->
<!DOCTYPE svg PUBLIC "-//W3C//DTD SVG 1.1//EN" "http://www.w3.org/Graphics/SVG/1.1/DTD/svg11.dtd">
<svg version="1.1" id="Layer_4" xmlns="http://www.w3.org/2000/svg" xmlns:xlink="http://www.w3.org/1999/xlink" x="0px" y="0px"
	 width="512px" height="512px" viewBox="0 0 512 512" enable-background="new 0 0 512 512" xml:space="preserve">
<path fill="#FFFFFF" d="M426.667,469.333h-21.334V399.51c0-34.73-14.784-67.969-40.597-91.18l-36.117-32.49
	c-5.696-5.141-8.832-12.182-8.832-19.84c0-7.659,3.136-14.699,8.832-19.819l36.117-32.491c25.813-23.253,40.597-56.469,40.597-91.2
	V42.667h21.334c11.797,0,21.333-9.557,21.333-21.333C448,9.557,438.464,0,426.667,0H85.333C73.536,0,64,9.557,64,21.333
	c0,11.776,9.536,21.333,21.333,21.333h21.333v69.824c0,34.73,14.784,67.968,40.598,91.179l36.117,32.491
	c5.696,5.141,8.832,12.181,8.832,19.84c0,7.658-3.136,14.699-8.832,19.818l-36.117,32.491c-25.813,23.253-40.598,56.47-40.598,91.2
	v69.823H85.333c-11.797,0-21.333,9.558-21.333,21.334C64,502.442,73.536,512,85.333,512h341.333
	c11.797,0,21.333-9.558,21.333-21.333C448,478.891,438.464,469.333,426.667,469.333z M170.667,401.686
	c0-15.68,6.102-30.4,17.195-41.494l56.832-56.832c6.25-6.25,16.384-6.25,22.635,0l56.832,56.832
	c11.093,11.094,17.194,25.814,17.194,41.494v67.647H170.667V401.686z"/>
</svg>
