<?xml version="1.0" encoding="utf-8"?>
<!-- Generator: Adobe Illustrator 16.0.0, SVG Export Plug-In . SVG Version: 6.00 Build 0)  -->
<!DOCTYPE svg PUBLIC "-//W3C//DTD SVG 1.1//EN" "http://www.w3.org/Graphics/SVG/1.1/DTD/svg11.dtd">
<svg version="1.1" id="Capa_1" xmlns="http://www.w3.org/2000/svg" xmlns:xlink="http://www.w3.org/1999/xlink" x="0px" y="0px"
	 width="463.623px" height="463.623px" viewBox="0 0 463.623 463.623" enable-background="new 0 0 463.623 463.623"
	 xml:space="preserve">
<g>
	<path fill="#FFFFFF" d="M463.533,116.746V49.318c0-3.667-2.944-6.64-6.578-6.64H6.574C2.946,42.678,0,45.646,0,49.318v86.928
		c0,0.465,0.046,0.919,0.134,1.356v283.343h463.489V116.746H463.533z M447.029,404.354H16.728V142.881h430.301V404.354z
		 M188.503,318.144l-87.546-45.095V262.86l87.546-45.09v13.013l-73.774,36.979v0.384l73.774,36.979V318.144z M363.384,273.245
		l-87.541,44.902V305.13l74.343-36.984v-0.377l-74.343-36.976v-13.018l87.541,44.898V273.245L363.384,273.245z M206.68,349.422
		h-14.558l60.586-157.474h14.773L206.68,349.422z"/>
</g>
</svg>
