<?xml version="1.0" encoding="utf-8"?>
<!-- Generator: Adobe Illustrator 16.0.0, SVG Export Plug-In . SVG Version: 6.00 Build 0)  -->
<!DOCTYPE svg PUBLIC "-//W3C//DTD SVG 1.1//EN" "http://www.w3.org/Graphics/SVG/1.1/DTD/svg11.dtd">
<svg version="1.1" id="Capa_1" xmlns="http://www.w3.org/2000/svg" xmlns:xlink="http://www.w3.org/1999/xlink" x="0px" y="0px"
	 width="512px" height="512px" viewBox="0 0 512 512" enable-background="new 0 0 512 512" xml:space="preserve">
<g>
	<path fill="#FFFFFF" d="M466.137,193.904c2.391-8.546,3.599-17.368,3.599-26.329c0-53.826-43.799-97.617-97.634-97.617
		c-3.87,0-7.709,0.222-11.481,0.663c-7.724-19.216-20.508-35.807-37.335-48.342C303.718,7.704,280.445,0,255.985,0
		c-24.46,0-47.731,7.704-67.298,22.279c-16.827,12.535-29.611,29.124-37.335,48.339c-3.765-0.438-7.604-0.66-11.483-0.66
		c-53.818,0-97.604,43.791-97.604,97.617c0,8.961,1.208,17.783,3.598,26.329C22.304,208.615,8,234.144,8,262.42
		c0,44.589,36.271,80.865,80.854,80.865h15.31v32.52c0,11.672,9.495,21.168,21.166,21.168h3.951
		c2.687,9.276,6.392,18.215,11.073,26.706l-2.772,2.773c-4.005,3.979-6.215,9.291-6.225,14.956
		c-0.009,5.679,2.193,11.015,6.197,15.019l22.163,22.195c8.273,8.221,21.702,8.209,29.923-0.012l2.825-2.815
		c8.484,4.673,17.412,8.372,26.681,11.056v3.953c0,11.688,9.508,21.196,21.194,21.196h31.318c11.688,0,21.193-9.509,21.193-21.196
		v-3.956c9.25-2.684,18.174-6.381,26.665-11.051l2.802,2.803c8.26,8.261,21.697,8.26,29.958-0.001l22.187-22.189
		c8.218-8.273,8.208-21.701-0.022-29.935l-2.804-2.804c4.668-8.491,8.372-17.426,11.069-26.698h3.935
		c11.688,0,21.194-9.496,21.194-21.168v-32.52h15.31c44.584,0,80.854-36.275,80.854-80.865
		C504,234.144,489.696,208.615,466.137,193.904L466.137,193.904z M387.836,375.805c0,0.622-0.559,1.168-1.194,1.168h-11.677
		c-4.674,0-8.725,3.237-9.754,7.797c-2.814,12.462-7.72,24.293-14.576,35.163c-2.492,3.951-1.917,9.103,1.388,12.405l8.274,8.277
		c0.438,0.438,0.427,1.247,0.001,1.676l-22.163,22.166c-0.268,0.268-0.603,0.324-0.836,0.324s-0.568-0.058-0.836-0.323l-8.274-8.277
		c-3.306-3.304-8.457-3.88-12.408-1.387c-10.884,6.866-22.697,11.76-35.114,14.545c-4.566,1.024-7.813,5.078-7.813,9.758v11.707
		c0,0.626-0.568,1.196-1.193,1.196h-31.318c-0.637,0-1.194-0.559-1.194-1.196v-11.707c0-4.682-3.247-8.735-7.815-9.759
		c-12.441-2.785-24.251-7.677-35.101-14.538c-3.948-2.497-9.098-1.929-12.405,1.369l-8.315,8.288
		c-0.445,0.443-1.238,0.433-1.668,0.005l-22.139-22.171c-0.286-0.286-0.346-0.62-0.346-0.851c0.001-0.32,0.109-0.592,0.345-0.825
		l8.276-8.277c3.308-3.308,3.88-8.468,1.378-12.42c-6.876-10.859-11.775-22.679-14.562-35.13c-1.022-4.567-5.077-7.815-9.759-7.815
		H125.33c-0.632,0-1.166-0.535-1.166-1.168v-32.52h46.583c-1.085,5.517-1.652,11.145-1.652,16.844
		c0,47.918,38.979,86.902,86.891,86.902c47.928,0,86.92-38.984,86.92-86.902c0-5.686-0.572-11.313-1.668-16.844h46.599
		L387.836,375.805L387.836,375.805z M423.146,323.285H300.879c-5.521,0-10,4.479-10,10s4.479,10,10,10h19.854
		c1.435,5.494,2.173,11.133,2.173,16.844c0,36.89-30.021,66.902-66.92,66.902c-36.884,0-66.891-30.014-66.891-66.902
		c0-5.736,0.731-11.375,2.151-16.844h19.847c5.522,0,10-4.479,10-10s-4.478-10-10-10H88.854C55.299,323.285,28,295.98,28,262.42
		c0-23.515,13.144-44.506,34.303-54.783c4.652-2.26,6.814-7.695,4.984-12.533c-3.332-8.808-5.021-18.069-5.021-27.528
		c0-42.798,34.812-77.617,77.604-77.617c5.514,0,10.891,0.555,15.983,1.647c5.041,1.083,10.081-1.848,11.635-6.766
		C179.736,46.058,215.301,20,255.985,20c40.686,0,76.25,26.057,88.499,64.84c1.552,4.914,6.584,7.847,11.625,6.768
		c5.125-1.095,10.506-1.649,15.992-1.649c42.808,0,77.634,34.819,77.634,77.617c0,9.459-1.689,18.721-5.021,27.528
		c-1.83,4.838,0.332,10.273,4.984,12.533C470.856,217.914,484,238.905,484,262.42C484,295.98,456.701,323.285,423.146,323.285z"/>
	<path fill="#FFFFFF" d="M361.613,141.875c-5.522,0-10,4.478-10,10v98.644c0,5.522,4.478,10,10,10c5.521,0,10-4.479,10-10v-98.644
		C371.613,146.353,367.136,141.875,361.613,141.875z"/>
	<path fill="#FFFFFF" d="M281.975,141.875H254c-5.433,0-10,4.551-10,10v100.458c0,5.522,4.478,10,10,10c5.521,0,10-4.478,10-10
		v-33.688c6.221-0.038,13.864-0.078,17.975-0.078c21.453,0,38.907-17.202,38.907-38.346S303.428,141.875,281.975,141.875z
		 M281.975,198.566c-4.093,0-11.627,0.039-17.826,0.077c-0.03-6.391-0.063-14.234-0.063-18.423c0-3.55-0.025-11.688-0.049-18.346
		h17.938c10.25,0,18.908,8.401,18.908,18.346C300.883,190.165,292.223,198.566,281.975,198.566L281.975,198.566z"/>
	<path fill="#FFFFFF" d="M175.241,149.761c-0.026-0.069-0.053-0.139-0.081-0.207c-1.882-4.669-6.346-7.687-11.372-7.687
		s-9.49,3.018-11.372,7.687c-0.024,0.06-0.048,0.119-0.07,0.179l-37.723,99.041c-1.966,5.161,0.624,10.938,5.785,12.904
		c5.162,1.967,10.938-0.623,12.904-5.785l6.94-18.221h46.794l6.867,18.192c1.511,4.004,5.316,6.472,9.357,6.472
		c1.173,0,2.366-0.208,3.529-0.646c5.167-1.95,7.774-7.721,5.824-12.888L175.241,149.761z M147.87,217.672l15.885-41.706
		l15.742,41.706H147.87z"/>
	<path fill="#FFFFFF" d="M255.985,323.285c-5.522,0-10,4.479-10,10s4.478,10,10,10h0.058c5.521,0,9.973-4.479,9.973-10
		S261.508,323.285,255.985,323.285L255.985,323.285z"/>
</g>
</svg>
