<?xml version="1.0" encoding="utf-8"?>
<!-- Generator: Adobe Illustrator 16.0.0, SVG Export Plug-In . SVG Version: 6.00 Build 0)  -->
<!DOCTYPE svg PUBLIC "-//W3C//DTD SVG 1.1//EN" "http://www.w3.org/Graphics/SVG/1.1/DTD/svg11.dtd">
<svg version="1.1" id="Layer_1" focusable="false" xmlns="http://www.w3.org/2000/svg" xmlns:xlink="http://www.w3.org/1999/xlink"
	 x="0px" y="0px" width="612px" height="792px" viewBox="0 0 612 792" enable-background="new 0 0 612 792" xml:space="preserve">
<path fill="#FFFFFF" d="M139.433,352.192c7.159,7.476,19.023,7.733,26.5,0.574c0.195-0.188,0.387-0.379,0.574-0.574l115.646-119.328
	c33.648-34.664,31.676-92.159-5.869-124.169c-32.74-27.899-81.449-22.878-111.499,8.128L153,128.943l-11.774-12.121
	c-30.002-31.006-78.771-36.027-111.511-8.128c-37.544,32.01-39.445,89.469-5.977,124.169L139.433,352.192z M311.463,472.309h-57.375
	l-8.462-17.021c-4.792-12.787-17.016-21.258-30.672-21.252h-85.716c-13.656-0.006-25.881,8.465-30.672,21.252l-8.367,17.021H32.823
	C14.702,472.302,0.007,486.987,0,505.108c0,0.008,0,0.016,0,0.023v164.057C-0.007,687.303,14.673,701.993,32.788,702l0,0h278.675
	c18.111-0.014,32.787-14.699,32.787-32.812V505.132C344.257,487.016,329.579,472.322,311.463,472.309z M172.125,649.406
	c-34.328,0-62.156-27.828-62.156-62.156s27.828-62.156,62.156-62.156s62.156,27.828,62.156,62.156S206.453,649.406,172.125,649.406z
	 M596.939,510.869h-72.412l26.727-60.662c2.511-7.948-4.697-15.79-14.559-15.79h-90.354c-7.53,0-13.938,4.662-14.941,10.878
	l-20.081,127.814c-1.195,7.53,5.833,14.212,14.941,14.212h74.479l-28.927,99.212c-2.259,7.948,5.021,15.419,14.619,15.419
	c5.108,0.135,9.968-2.202,13.053-6.275l110.446-166.041C615.766,521.376,608.546,510.869,596.939,510.869L596.939,510.869z
	 M571.455,90.395l-177.588,27.301c-17.499,2.689-30.492,18.826-30.492,37.844v127.624c-6.295-1.293-12.699-1.974-19.125-2.032
	c-42.254,0-76.5,25.675-76.5,57.375s34.246,57.375,76.5,57.375c42.075,0,76.178-25.484,76.5-56.968V209.125l133.875-20.583v56.395
	c-6.295-1.293-12.699-1.974-19.125-2.032c-42.254,0-76.5,25.675-76.5,57.375s34.246,57.375,76.5,57.375
	c42.075,0,76.178-25.484,76.5-56.969V128.25C612,104.965,592.875,87.107,571.455,90.395L571.455,90.395z"/>
</svg>
