<?xml version="1.0" encoding="utf-8"?>
<!-- Generator: Adobe Illustrator 16.0.0, SVG Export Plug-In . SVG Version: 6.00 Build 0)  -->
<!DOCTYPE svg PUBLIC "-//W3C//DTD SVG 1.1//EN" "http://www.w3.org/Graphics/SVG/1.1/DTD/svg11.dtd">
<svg version="1.1" id="Layer_1" focusable="false" xmlns="http://www.w3.org/2000/svg" xmlns:xlink="http://www.w3.org/1999/xlink"
	 x="0px" y="0px" width="612px" height="792px" viewBox="0 0 612 792" enable-background="new 0 0 612 792" xml:space="preserve">
<path fill="#FFFFFF" d="M554.625,166.5H57.375C25.688,166.5,0,192.188,0,223.875v344.25C0,599.813,25.688,625.5,57.375,625.5h497.25
	c31.688,0,57.375-25.688,57.375-57.375v-344.25C612,192.188,586.313,166.5,554.625,166.5z M547.453,568.125H64.547
	c-3.961,0-7.172-3.211-7.172-7.172V231.047c0-3.961,3.211-7.172,7.172-7.172h482.906c3.961,0,7.172,3.211,7.172,7.172v329.906
	C554.625,564.914,551.414,568.125,547.453,568.125z M153,271.688c-26.406,0-47.813,21.407-47.813,47.813
	s21.407,47.813,47.813,47.813s47.813-21.407,47.813-47.813S179.406,271.688,153,271.688z M114.75,510.75h382.5v-95.625
	L392.643,310.517c-5.602-5.601-14.684-5.601-20.286,0L229.5,453.375l-47.233-47.232c-5.601-5.602-14.683-5.602-20.286,0
	l-47.231,47.232V510.75z"/>
</svg>
