<?xml version="1.0" encoding="utf-8"?>
<!-- Generator: Adobe Illustrator 16.0.0, SVG Export Plug-In . SVG Version: 6.00 Build 0)  -->
<!DOCTYPE svg PUBLIC "-//W3C//DTD SVG 1.1//EN" "http://www.w3.org/Graphics/SVG/1.1/DTD/svg11.dtd">
<svg version="1.1" id="Layer_1" focusable="false" xmlns="http://www.w3.org/2000/svg" xmlns:xlink="http://www.w3.org/1999/xlink"
	 x="0px" y="0px" width="612px" height="792px" viewBox="0 0 612 792" enable-background="new 0 0 612 792" xml:space="preserve">
<path fill="#FFFFFF" d="M146.593,96.407c-8.535-8.529-22.366-8.529-30.901,0L6.407,227.55c-13.715,13.729-3.975,37.308,15.45,37.308
	h65.572v415.285c0,12.071,9.786,21.857,21.857,21.857H153c12.071,0,21.857-9.786,21.857-21.857V264.857h65.572
	c19.412,0,29.207-23.551,15.45-37.308L146.593,96.407z M546.429,614.571h-21.857v-153c0-12.071-9.786-21.857-21.857-21.857h-65.571
	c-8.264,0.008-15.817,4.675-19.521,12.063l-21.857,43.715c-5.409,10.791-1.047,23.925,9.745,29.334
	c3.034,1.521,6.382,2.314,9.776,2.317h21.856v87.429h-21.856c-12.071,0-21.857,9.786-21.857,21.857v43.714
	c0,12.071,9.786,21.857,21.857,21.857h131.143c12.071,0,21.857-9.786,21.857-21.857v-43.714
	C568.286,624.357,558.5,614.571,546.429,614.571z M451.036,93.975c-36.212,9.918-64.667,37.943-75.134,74
	c-19.494,69.738,28.946,133.561,94.026,140.063c-8.581,7.239-18.178,13.181-28.482,17.636
	c-10.342,4.645-14.754,17.035-11.175,27.786l13.524,27.321c3.92,11.79,17.116,18.428,28.551,13.538
	c79.232-33.838,117.823-84.164,117.823-180.322v-14.712C590.143,129.329,524.053,74.509,451.036,93.975L451.036,93.975z
	 M480.857,226.607c-15.09,0-27.321-12.232-27.321-27.321s12.231-27.321,27.321-27.321c15.089,0,27.321,12.232,27.321,27.321
	S495.946,226.607,480.857,226.607z"/>
</svg>
