<?xml version="1.0" encoding="utf-8"?>
<!-- Generator: Adobe Illustrator 16.0.0, SVG Export Plug-In . SVG Version: 6.00 Build 0)  -->
<!DOCTYPE svg PUBLIC "-//W3C//DTD SVG 1.1//EN" "http://www.w3.org/Graphics/SVG/1.1/DTD/svg11.dtd">
<svg version="1.1" id="Layer_1" focusable="false" xmlns="http://www.w3.org/2000/svg" xmlns:xlink="http://www.w3.org/1999/xlink"
	 x="0px" y="0px" width="612px" height="792px" viewBox="0 0 612 792" enable-background="new 0 0 612 792" xml:space="preserve">
<path fill="#FFFFFF" d="M0,90v612h612V90H0z M333.048,567.306c0,59.561-34.971,86.745-85.926,86.745
	c-46.036,0-72.675-23.77-86.335-52.594l46.856-28.277c9.016,15.982,17.212,29.507,37.021,29.507
	c18.852,0,30.873-7.377,30.873-36.201V371.001h57.511V567.306L333.048,567.306z M469.109,654.051
	c-53.414,0-87.976-25.409-104.778-58.741l46.856-27.048c12.295,20.081,28.414,34.972,56.692,34.972
	c23.77,0,39.069-11.885,39.069-28.415c0-19.671-15.573-26.638-41.938-38.25l-14.344-6.146
	c-41.528-17.623-68.986-39.89-68.986-86.746c0-43.168,32.922-75.954,84.149-75.954c36.611,0,62.84,12.705,81.691,46.037
	l-44.808,28.688c-9.835-17.622-20.49-24.589-37.021-24.589c-16.803,0-27.458,10.655-27.458,24.589
	c0,17.213,10.655,24.18,35.382,34.972l14.344,6.147c48.905,20.9,76.363,42.348,76.363,90.434
	C564.324,625.637,523.615,654.051,469.109,654.051L469.109,654.051z"/>
</svg>
