<?xml version="1.0" encoding="utf-8"?>
<!-- Generator: Adobe Illustrator 16.0.0, SVG Export Plug-In . SVG Version: 6.00 Build 0)  -->
<!DOCTYPE svg PUBLIC "-//W3C//DTD SVG 1.1//EN" "http://www.w3.org/Graphics/SVG/1.1/DTD/svg11.dtd">
<svg version="1.1" id="Capa_1" xmlns="http://www.w3.org/2000/svg" xmlns:xlink="http://www.w3.org/1999/xlink" x="0px" y="0px"
	 width="612px" height="792px" viewBox="0 0 612 792" enable-background="new 0 0 612 792" xml:space="preserve">
<g>
	<g>
		<path fill="#FFFFFF" d="M410.043,595.056h-65.696l0,0h-41.351l0,0h-65.695c-14.512,0-26.528,12.153-26.528,27.185v98.818
			c0,14.872,11.859,27.184,26.528,27.184h172.585c14.513,0,26.528-12.152,26.528-27.184V622.24
			C436.57,607.369,424.556,595.056,410.043,595.056z"/>
		<path fill="#FFFFFF" d="M677.973,595.056h-65.695l0,0h-41.352l0,0H505.23c-14.513,0-26.527,12.153-26.527,27.185v98.818
			c0,14.872,11.86,27.184,26.527,27.184h172.742c14.512,0,26.527-12.152,26.527-27.184V622.24
			C704.344,607.369,692.484,595.056,677.973,595.056z"/>
		<path fill="#FFFFFF" d="M142.27,595.056H76.574l0,0H35.223l0,0h-65.695C-44.984,595.056-57,607.209-57,622.24v98.818
			c0,14.872,11.86,27.184,26.528,27.184h172.586c14.512,0,26.528-12.152,26.528-27.184V622.24
			C168.642,607.369,156.782,595.056,142.27,595.056z"/>
		<path fill="#FFFFFF" d="M76.574,510.467h226.578v47.334h41.352v-47.334h226.577v47.334h41.352v-68.599
			c0-11.673-9.206-21.108-20.598-21.108H344.347v-70.036h116.255c17.633,0,32.146-14.872,32.146-32.94v-163.42
			c0-18.07-14.513-32.94-32.146-32.94H354.646l0,0h-61.949l0,0H186.742c-17.633,0-32.145,14.871-32.145,32.94v163.58
			c0,18.069,14.512,32.94,32.145,32.94h116.254v70.036H55.821c-11.392,0-20.598,9.434-20.598,21.107v68.598h41.352V510.467z
			 M207.028,245.031c0-5.276,4.213-9.435,9.208-9.435h215.029c5.15,0,9.207,4.318,9.207,9.435v12.473
			c0,5.277-4.213,9.433-9.207,9.433H216.235c-5.15,0-9.208-4.316-9.208-9.433V245.031L207.028,245.031z M216.235,331.058
			c-5.15,0-9.208-4.317-9.208-9.434v-12.473c0-5.277,4.213-9.434,9.208-9.434h215.029c5.15,0,9.207,4.317,9.207,9.434v12.473
			c0,5.276-4.213,9.434-9.207,9.434H216.235z"/>
	</g>
</g>
</svg>
