<?xml version="1.0" encoding="utf-8"?>
<!-- Generator: Adobe Illustrator 16.0.0, SVG Export Plug-In . SVG Version: 6.00 Build 0)  -->
<!DOCTYPE svg PUBLIC "-//W3C//DTD SVG 1.1//EN" "http://www.w3.org/Graphics/SVG/1.1/DTD/svg11.dtd">
<svg version="1.1" id="Capa_1" xmlns="http://www.w3.org/2000/svg" xmlns:xlink="http://www.w3.org/1999/xlink" x="0px" y="0px"
	 width="612px" height="792px" viewBox="0 0 612 792" enable-background="new 0 0 612 792" xml:space="preserve">
<g>
	<g>
		<path fill="#FFFFFF" d="M570.297,160.307c-32.977-32.92-72.285-46.72-113.683-39.923c-34.841,5.727-70.821,26.287-104.05,59.461
			l-69.523,69.409c-11.222,11.204-21.007,22.724-29.275,34.401c-40.932,0.47-83.145,21.387-122.965,61.14l-69.524,69.41
			C21.189,454.225,0,497.24,0,538.599c0,34.146,14.032,65.467,41.707,93.095c27.5,27.455,59.403,41.614,93.254,41.612
			c6.738,0,13.557-0.563,20.43-1.69c34.842-5.727,70.824-26.287,104.053-59.46l69.524-69.409
			c11.221-11.202,21.006-22.723,29.273-34.401c40.929-0.476,83.144-21.389,122.964-61.144l69.523-69.409
			C590.812,337.773,612,294.758,612,253.399C612,219.255,597.97,187.933,570.297,160.307z M516.946,343.956l-69.522,69.409
			c-20.808,20.773-42.204,35.049-62.641,42.096c1.265-4.259,2.313-8.51,3.138-12.739c7.767-39.825-3.686-78.063-33.12-110.579
			l-35.445,32.087c47.377,52.339,13.009,107.565-24.168,144.678l-69.524,69.409c-26.119,26.073-53.1,42.021-78.025,46.117
			c-26.299,4.321-49.905-4.37-72.151-26.58c-18.364-18.331-27.674-38.268-27.674-59.256c0-35.864,25.691-69.04,47.244-90.556
			l69.525-69.41c20.801-20.767,42.197-35.042,62.629-42.09c-1.265,4.257-2.313,8.503-3.138,12.731
			c-7.774,39.827,3.68,78.067,33.127,110.585l35.441-32.094c-47.38-52.32-13.001-107.554,24.18-144.676l69.522-69.41
			c26.117-26.073,53.096-42.02,78.021-46.116c26.307-4.32,49.904,4.373,72.148,26.579c18.364,18.332,27.675,38.268,27.675,59.257
			C564.188,289.263,538.498,322.439,516.946,343.956z"/>
	</g>
</g>
</svg>
