<?xml version="1.0" encoding="utf-8"?>
<!-- Generator: Adobe Illustrator 16.0.0, SVG Export Plug-In . SVG Version: 6.00 Build 0)  -->
<!DOCTYPE svg PUBLIC "-//W3C//DTD SVG 1.1//EN" "http://www.w3.org/Graphics/SVG/1.1/DTD/svg11.dtd">
<svg version="1.1" id="Capa_1" xmlns="http://www.w3.org/2000/svg" xmlns:xlink="http://www.w3.org/1999/xlink" x="0px" y="0px"
	 width="612px" height="792px" viewBox="0 0 612 792" enable-background="new 0 0 612 792" xml:space="preserve">
<g>
	<g>
		<path fill="#FFFFFF" d="M70.523,325.477C31.636,325.477,0,357.113,0,396c0,38.887,31.636,70.523,70.523,70.523
			s70.523-31.637,70.523-70.523C141.047,357.113,109.411,325.477,70.523,325.477z M70.523,418.711
			C58,418.711,47.813,408.523,47.813,396S58,373.289,70.523,373.289S93.234,383.477,93.234,396S83.047,418.711,70.523,418.711z"/>
	</g>
</g>
<g>
	<g>
		<path fill="#FFFFFF" d="M70.523,560.953C31.636,560.953,0,592.59,0,631.477S31.636,702,70.523,702s70.523-31.637,70.523-70.523
			S109.411,560.953,70.523,560.953z M70.523,654.188C58,654.188,47.813,644,47.813,631.477S58,608.766,70.523,608.766
			s22.711,10.188,22.711,22.711S83.047,654.188,70.523,654.188z"/>
	</g>
</g>
<g>
	<g>
		<path fill="#FFFFFF" d="M70.523,90C31.636,90,0,121.636,0,160.523s31.636,70.523,70.523,70.523s70.523-31.636,70.523-70.523
			S109.411,90,70.523,90z M70.523,183.234c-12.523,0-22.711-10.188-22.711-22.711S58,137.813,70.523,137.813
			S93.234,148,93.234,160.523S83.047,183.234,70.523,183.234z"/>
	</g>
</g>
<g>
	<g>
		<rect x="193.641" y="372.094" fill="#FFFFFF" width="418.359" height="47.813"/>
	</g>
</g>
<g>
	<g>
		<rect x="193.641" y="136.617" fill="#FFFFFF" width="418.359" height="47.813"/>
	</g>
</g>
<g>
	<g>
		<rect x="193.641" y="607.57" fill="#FFFFFF" width="418.359" height="47.813"/>
	</g>
</g>
</svg>
