<?xml version="1.0" encoding="utf-8"?>
<!-- Generator: Adobe Illustrator 16.0.0, SVG Export Plug-In . SVG Version: 6.00 Build 0)  -->
<!DOCTYPE svg PUBLIC "-//W3C//DTD SVG 1.1//EN" "http://www.w3.org/Graphics/SVG/1.1/DTD/svg11.dtd">
<svg version="1.1" id="Layer_1" focusable="false" xmlns="http://www.w3.org/2000/svg" xmlns:xlink="http://www.w3.org/1999/xlink"
	 x="0px" y="0px" width="612px" height="792px" viewBox="0 0 612 792" enable-background="new 0 0 612 792" xml:space="preserve">
<path fill="#FFFFFF" d="M306,124c-73.939,0-133.875,59.936-133.875,133.875c0,59.776,87.497,168.725,121.019,208.271
	c6.79,8.011,18.934,8.011,25.713,0c33.521-39.547,121.019-148.495,121.019-208.271C439.875,183.936,379.939,124,306,124z M306,302.5
	c-24.65,0-44.625-19.975-44.625-44.625S281.35,213.25,306,213.25c24.65,0,44.625,19.975,44.625,44.625S330.65,302.5,306,302.5z
	 M21.377,353.447C8.469,358.61,0.003,371.111,0,385.014v265.965c0,12.027,12.145,20.252,23.311,15.789L170,600V352.353
	c-9.393-16.979-17.074-33.511-22.578-49.321L21.377,353.447z M306,506.149c-14.949,0-29.091-6.566-38.792-18.021
	c-20.889-24.649-43.105-52.721-63.208-81.515v193.375l204,68V406.625c-20.103,28.783-42.309,56.865-63.208,81.515
	C335.091,499.583,320.949,506.149,306,506.149z M588.688,295.232L442,362v306l148.622-59.447
	C603.533,603.393,612,590.89,612,576.986V311.021C612,298.994,599.855,290.77,588.688,295.232L588.688,295.232z"/>
</svg>
