<?xml version="1.0" encoding="utf-8"?>
<!-- Generator: Adobe Illustrator 16.0.0, SVG Export Plug-In . SVG Version: 6.00 Build 0)  -->
<!DOCTYPE svg PUBLIC "-//W3C//DTD SVG 1.1//EN" "http://www.w3.org/Graphics/SVG/1.1/DTD/svg11.dtd">
<svg version="1.1" id="Layer_1" xmlns="http://www.w3.org/2000/svg" xmlns:xlink="http://www.w3.org/1999/xlink" x="0px" y="0px"
	 width="512px" height="512px" viewBox="0 0 512 512" enable-background="new 0 0 512 512" xml:space="preserve">
<g>
	<path fill="#FFFFFF" d="M349.055,224.23c22.586-0.224,40.837-20.004,41.016-44.452v-32.516h-82.084v32.544
		C308.183,204.263,326.458,224.033,349.055,224.23z"/>
	<path fill="#FFFFFF" d="M163.496,235.538c-4.018-0.024-8.019-0.559-11.922-1.59v117.43c0.007,7.414,5.557,13.421,12.405,13.431
		h184.043c6.85-0.008,12.4-6.016,12.408-13.431V234.083c-3.729,0.942-7.543,1.431-11.373,1.455
		c-19.923-0.16-38.007-12.645-46.541-32.134c-11.929,27.807-42.424,39.881-68.114,26.969c-10.804-5.431-19.525-14.763-24.666-26.395
		C201.107,223.146,183.194,235.372,163.496,235.538L163.496,235.538z"/>
	<path fill="#FFFFFF" d="M400.518,171.622c0.108,17.562,13.341,31.708,29.566,31.607h0.436c16.227-0.11,29.299-14.439,29.197-32.003
		v-23.964h-59.199V171.622z"/>
	<path fill="#FFFFFF" d="M455.564,135.954l-35.232-61.629c-2.211-3.898-6.14-6.267-10.364-6.25h-44.797l33.257,67.882
		L455.564,135.954z"/>
	<path fill="#FFFFFF" d="M423.969,430.497V214.066c-10.431-1.708-19.808-7.826-26.075-17.01
		c-4.489,14.537-14.241,26.475-27.021,33.076v121.246c-0.015,13.655-10.237,24.723-22.852,24.739H163.979
		c-12.617-0.016-22.841-11.082-22.855-24.739V229.871c-12.696-6.734-22.324-18.756-26.681-33.315
		c-6.266,9.445-15.788,15.753-26.408,17.497v216.445c0.008,7.414,5.559,13.422,12.409,13.431h311.115
		C418.408,443.919,423.96,437.911,423.969,430.497L423.969,430.497z"/>
	<path fill="#FFFFFF" d="M81.663,203.229h0.618c16.221-0.129,29.283-14.446,29.202-32.003v-23.964h-59.2v24.359
		C52.384,189.108,65.507,203.226,81.663,203.229z"/>
	<path fill="#FFFFFF" d="M122.426,179.807c-0.097,24.535,18.2,44.509,40.866,44.614c22.667,0.105,41.121-19.699,41.217-44.233
		c0.001-0.137,0.001-0.273,0-0.409v-32.516h-82.083V179.807z"/>
	<path fill="#FFFFFF" d="M386.609,135.954l-33.261-67.882h-66.86l19.616,67.882H386.609z"/>
	<path fill="#FFFFFF" d="M153.931,68.072h-43.877c-3.858,0.008-7.487,1.986-9.792,5.336l-42.829,62.546h56.414L153.931,68.072z"/>
	<path fill="#FFFFFF" d="M205.894,135.954l19.617-67.882h-59.18l-40.086,67.882H205.894z"/>
	<path fill="#FFFFFF" d="M295.158,135.954l-19.617-67.882h-39.082l-19.617,67.882H295.158z"/>
	<path fill="#FFFFFF" d="M256.025,224.23c22.587-0.225,40.839-20.005,41.018-44.453v-32.511h-82.086v32.544
		C215.156,204.267,233.432,224.034,256.025,224.23z"/>
</g>
</svg>
