<?xml version="1.0" encoding="utf-8"?>
<!-- Generator: Adobe Illustrator 16.0.0, SVG Export Plug-In . SVG Version: 6.00 Build 0)  -->
<!DOCTYPE svg PUBLIC "-//W3C//DTD SVG 1.1//EN" "http://www.w3.org/Graphics/SVG/1.1/DTD/svg11.dtd">
<svg version="1.1" id="Layer_1" xmlns="http://www.w3.org/2000/svg" xmlns:xlink="http://www.w3.org/1999/xlink" x="0px" y="0px"
	 width="612px" height="792px" viewBox="0 0 612 792" enable-background="new 0 0 612 792" xml:space="preserve">
<g>
	<g>
		<path fill="#FFFFFF" d="M405.92,388.009h-66.594v-72.531c0-20.047-14.861-36.231-33.268-36.231
			c-18.406,0-33.266,16.185-33.266,36.231v72.531h-66.593c-18.406,0-33.266,16.185-33.266,36.232s14.86,36.232,33.266,36.232h66.593
			v72.532c0,20.048,14.86,36.233,33.266,36.233c18.407,0,33.268-16.186,33.268-36.233v-72.465h66.594
			c18.406,0,33.266-16.185,33.266-36.232C439.186,404.26,424.326,388.009,405.92,388.009z"/>
		<path fill="#FFFFFF" d="M562.649,217.304L429.463,72.308c-6.238-6.794-14.677-10.657-23.543-10.657H139.605
			c-55.098,0-99.921,48.82-99.921,108.763v435.123c0,60.01,44.824,108.762,99.86,108.762h332.908
			c55.099,0,99.861-48.819,99.861-108.762V242.947C572.435,233.29,568.888,224.097,562.649,217.304z M505.841,279.245v326.358
			c0,19.981-14.921,36.232-33.328,36.232H139.605c-18.406,0-33.266-16.251-33.266-36.232V170.415
			c0-20.046,14.921-36.232,33.266-36.232h233.047"/>
	</g>
</g>
</svg>
