<?xml version="1.0" encoding="utf-8"?>
<!-- Generator: Adobe Illustrator 16.0.0, SVG Export Plug-In . SVG Version: 6.00 Build 0)  -->
<!DOCTYPE svg PUBLIC "-//W3C//DTD SVG 1.1//EN" "http://www.w3.org/Graphics/SVG/1.1/DTD/svg11.dtd">
<svg version="1.1" id="Capa_1" xmlns="http://www.w3.org/2000/svg" xmlns:xlink="http://www.w3.org/1999/xlink" x="0px" y="0px"
	 width="536.461px" height="536.46px" viewBox="0 0 536.461 536.46" enable-background="new 0 0 536.461 536.46"
	 xml:space="preserve">
<g>
	<g>
		<path fill="#FFFFFF" d="M153.667,257.36c18.188-8.386,35.585-12.581,52.183-12.581h220.398v-42.388
			c0-16.247-5.829-30.206-17.489-41.863c-11.658-11.656-25.604-17.483-41.854-17.483H222.801v-8.477
			c0-16.248-5.827-30.201-17.482-41.853c-11.656-11.656-25.607-17.487-41.854-17.487H78.701c-16.247,0-30.198,5.83-41.854,17.487
			c-11.656,11.653-17.481,25.606-17.481,41.854v254.312c0,0.709,0.045,1.814,0.134,3.318c0.087,1.499,0.133,2.604,0.133,3.31
			l1.323-1.583l89.27-104.91C120.997,276.298,135.478,265.744,153.667,257.36z"/>
		<path fill="#FFFFFF" d="M510.079,282.128c-4.677-2.3-10.019-3.452-16.025-3.452H205.849c-11.655,0-24.326,3.137-38.01,9.409
			c-13.685,6.277-24.326,13.905-31.917,22.919L46.917,415.908c-5.476,6.181-8.214,12.011-8.214,17.489
			c0,5.296,2.341,9.094,7.02,11.387c4.679,2.3,10.021,3.448,16.026,3.448h288.212c11.653,0,24.318-3.139,38.006-9.405
			c13.686-6.269,24.321-13.907,31.915-22.919l89.006-104.903c5.473-6.184,8.207-12.006,8.207-17.489
			C517.1,288.219,514.763,284.424,510.079,282.128z"/>
	</g>
</g>
</svg>
