<?xml version="1.0" encoding="utf-8"?>
<!-- Generator: Adobe Illustrator 16.0.0, SVG Export Plug-In . SVG Version: 6.00 Build 0)  -->
<!DOCTYPE svg PUBLIC "-//W3C//DTD SVG 1.1//EN" "http://www.w3.org/Graphics/SVG/1.1/DTD/svg11.dtd">
<svg version="1.1" id="Layer_1" focusable="false" xmlns="http://www.w3.org/2000/svg" xmlns:xlink="http://www.w3.org/1999/xlink"
	 x="0px" y="0px" width="612px" height="792px" viewBox="0 0 612 792" enable-background="new 0 0 612 792" xml:space="preserve">
<path fill="#FFFFFF" d="M535.5,204.75v382.5h38.25c10.563,0,19.125,8.563,19.125,19.125v38.25c0,10.563-8.563,19.125-19.125,19.125
	H382.5c-10.563,0-19.125-8.563-19.125-19.125v-38.25c0-10.563,8.563-19.125,19.125-19.125h38.25v-153h-229.5v153h38.25
	c10.563,0,19.125,8.563,19.125,19.125v38.25c0,10.563-8.563,19.125-19.125,19.125H38.25c-10.563,0-19.125-8.563-19.125-19.125
	v-38.25c0-10.563,8.563-19.125,19.125-19.125H76.5v-382.5H38.25c-10.563,0-19.125-8.563-19.125-19.125v-38.25
	c0-10.563,8.563-19.125,19.125-19.125H229.5c10.563,0,19.125,8.563,19.125,19.125v38.25c0,10.563-8.563,19.125-19.125,19.125h-38.25
	v153h229.5v-153H382.5c-10.563,0-19.125-8.563-19.125-19.125v-38.25c0-10.563,8.563-19.125,19.125-19.125h191.25
	c10.563,0,19.125,8.563,19.125,19.125v38.25c0,10.563-8.563,19.125-19.125,19.125H535.5z"/>
</svg>
