<?xml version="1.0" encoding="utf-8"?>
<!-- Generator: Adobe Illustrator 16.0.0, SVG Export Plug-In . SVG Version: 6.00 Build 0)  -->
<!DOCTYPE svg PUBLIC "-//W3C//DTD SVG 1.1//EN" "http://www.w3.org/Graphics/SVG/1.1/DTD/svg11.dtd">
<svg version="1.1" id="Layer_1" xmlns="http://www.w3.org/2000/svg" xmlns:xlink="http://www.w3.org/1999/xlink" x="0px" y="0px"
	 width="512px" height="512px" viewBox="0 0 512 512" enable-background="new 0 0 512 512" xml:space="preserve">
<path fill="#FFFFFF" d="M445.936,129.032H66.064C29.636,129.032,0,158.668,0,195.097v121.807c0,36.429,29.636,66.064,66.064,66.064
	h379.871c36.429,0,66.064-29.636,66.064-66.064V195.097C512,158.668,482.364,129.032,445.936,129.032z M478.968,316.903
	c0,18.214-14.818,33.032-33.032,33.032H66.064c-18.214,0-33.032-14.818-33.032-33.032V195.097c0-18.214,14.818-33.032,33.032-33.032
	h379.871c18.214,0,33.032,14.818,33.032,33.032V316.903z M163.249,254.285L159.814,256l3.435,1.715
	c15.556,7.767,9.973,31.296-7.39,31.296c-4.85,0-6.925-1.524-16.503-6.306v11.142c0,9.121-7.395,16.517-16.516,16.517
	s-16.516-7.396-16.516-16.517v-11.142l-9.139,4.563c-8.161,4.074-18.08,0.762-22.154-7.398c-4.074-8.161-0.762-18.08,7.399-22.154
	L85.863,256l-3.435-1.715c-8.161-4.074-11.473-13.993-7.399-22.154c4.074-8.161,13.994-11.475,22.154-7.399l9.139,4.563v-11.141
	c0-9.121,7.395-16.516,16.516-16.516s16.516,7.395,16.516,16.516v11.141l9.138-4.563c8.161-4.074,18.08-0.762,22.155,7.399
	C174.722,240.292,171.41,250.211,163.249,254.285z M416,294.193c0,9.121-7.396,16.516-16.517,16.516
	c-9.12,0-16.516-7.395-16.516-16.516c0-9.984,7.787-16.863,16.516-16.863C408.182,277.33,416,284.174,416,294.193z M416,218.153
	v25.976c0,9.121-7.396,16.516-16.517,16.516c-9.12,0-16.516-7.395-16.516-16.516v-25.976c0-9.121,7.396-16.516,16.516-16.516
	C408.604,201.637,416,209.032,416,218.153z M296.41,254.285L292.976,256l3.435,1.715c15.556,7.767,9.973,31.296-7.391,31.296
	c-4.85,0-6.926-1.524-16.504-6.306v11.142c0,9.121-7.395,16.517-16.516,16.517s-16.516-7.396-16.516-16.517v-11.142l-9.139,4.563
	c-8.161,4.074-18.08,0.762-22.154-7.398c-4.074-8.161-0.762-18.08,7.399-22.154l3.434-1.715l-3.434-1.715
	c-8.161-4.074-11.474-13.993-7.399-22.154c4.074-8.161,13.993-11.475,22.154-7.399l9.139,4.563v-11.141
	c0-9.121,7.395-16.516,16.516-16.516s16.516,7.395,16.516,16.516v11.141l9.139-4.563c8.162-4.074,18.08-0.762,22.154,7.399
	C307.884,240.292,304.57,250.211,296.41,254.285z"/>
</svg>
