<?xml version="1.0" encoding="utf-8"?>
<!-- Generator: Adobe Illustrator 16.0.0, SVG Export Plug-In . SVG Version: 6.00 Build 0)  -->
<!DOCTYPE svg PUBLIC "-//W3C//DTD SVG 1.1//EN" "http://www.w3.org/Graphics/SVG/1.1/DTD/svg11.dtd">
<svg version="1.1" id="Layer_1" focusable="false" xmlns="http://www.w3.org/2000/svg" xmlns:xlink="http://www.w3.org/1999/xlink"
	 x="0px" y="0px" width="612px" height="792px" viewBox="0 0 612 792" enable-background="new 0 0 612 792" xml:space="preserve">
<path fill="#FFFFFF" d="M174.857,297.643c0-42.183,34.319-76.5,76.5-76.5h185.786v-98.357c0-18.107-14.678-32.786-32.785-32.786
	H294.238c-15.142-26.105-43.377-43.714-75.667-43.714c-32.29,0-60.525,17.609-75.667,43.714H32.786C14.678,90,0,104.678,0,122.786
	v459c0,18.106,14.678,32.785,32.786,32.785h142.071V297.643z M218.571,100.929c18.107,0,32.786,14.678,32.786,32.786
	c0,18.107-14.678,32.786-32.786,32.786c-18.107,0-32.786-14.679-32.786-32.786C185.786,115.607,200.464,100.929,218.571,100.929z
	 M469.929,439.714H612v273.215c0,18.107-14.679,32.785-32.786,32.785H251.357c-18.107,0-32.786-14.678-32.786-32.785V297.643
	c0-18.107,14.679-32.786,32.786-32.786h185.786v142.071C437.143,424.961,451.896,439.714,469.929,439.714z M612,387.723V396H480.857
	V264.857h8.276c8.695,0,17.034,3.454,23.183,9.602l90.08,90.081C608.545,370.688,612,379.027,612,387.723z"/>
</svg>
