<?xml version="1.0" encoding="utf-8"?>
<!-- Generator: Adobe Illustrator 16.0.0, SVG Export Plug-In . SVG Version: 6.00 Build 0)  -->
<!DOCTYPE svg PUBLIC "-//W3C//DTD SVG 1.1//EN" "http://www.w3.org/Graphics/SVG/1.1/DTD/svg11.dtd">
<svg version="1.1" id="Layer_1" focusable="false" xmlns="http://www.w3.org/2000/svg" xmlns:xlink="http://www.w3.org/1999/xlink"
	 x="0px" y="0px" width="612px" height="792px" viewBox="0 0 612 792" enable-background="new 0 0 612 792" xml:space="preserve">
<path fill="#FFFFFF" d="M130.839,381.704l160.865-160.841l-52.737-52.737l-73.727,73.727c-3.693,3.7-9.687,3.706-13.387,0.013
	c-0.004-0.004-0.009-0.008-0.013-0.013l-13.4-13.399c-3.705-3.706-3.705-9.706,0-13.399l73.727-73.727l-40.21-40.222
	c-14.81-14.81-38.812-14.81-53.622,0L11.104,208.336c-14.798,14.81-14.81,38.812,0,53.622L130.839,381.704L130.839,381.704z
	 M595.182,242.092c22.425-22.424,22.412-58.774,0-81.198l-54.088-54.088c-22.424-22.424-58.785-22.424-81.221,0l-55.009,54.996
	l135.31,135.31L595.182,242.092L595.182,242.092z M377.814,188.864L22.807,543.824L0.382,672.249
	c-3.024,17.319,12.061,32.404,29.393,29.356l128.436-22.52l354.913-354.924L377.814,188.864z M600.896,530.042l-40.21-40.21
	l-73.728,73.727c-3.705,3.706-9.706,3.706-13.399,0l-13.399-13.399c-3.693-3.705-3.693-9.706,0-13.399l73.728-73.727l-52.762-52.761
	L320.26,571.113l119.782,119.771c14.811,14.81,38.813,14.81,53.622,0l107.231-107.22
	C615.705,568.854,615.705,544.853,600.896,530.042L600.896,530.042z"/>
</svg>
