<?xml version="1.0" encoding="utf-8"?>
<!-- Generator: Adobe Illustrator 16.0.0, SVG Export Plug-In . SVG Version: 6.00 Build 0)  -->
<!DOCTYPE svg PUBLIC "-//W3C//DTD SVG 1.1//EN" "http://www.w3.org/Graphics/SVG/1.1/DTD/svg11.dtd">
<svg version="1.1" id="Layer_1" focusable="false" xmlns="http://www.w3.org/2000/svg" xmlns:xlink="http://www.w3.org/1999/xlink"
	 x="0px" y="0px" width="612px" height="792px" viewBox="0 0 612 792" enable-background="new 0 0 612 792" xml:space="preserve">
<path fill="#FFFFFF" d="M581.4,151.2H153c-16.9,0-30.6,13.7-30.6,30.6v91.8h153v-61.2H459v306h122.4c16.899,0,30.6-13.7,30.6-30.601
	v-306C612,164.9,598.3,151.2,581.4,151.2z M221.85,249.694c0,4.753-3.853,8.606-8.606,8.606l0,0h-28.688
	c-4.753,0-8.606-3.853-8.606-8.606l0,0v-28.688c0-4.753,3.853-8.606,8.606-8.606h28.688c4.753,0,8.606,3.853,8.606,8.606V249.694z
	 M558.45,448.594c0,4.753-3.854,8.606-8.606,8.606h-28.688c-4.753,0-8.606-3.854-8.606-8.606v-28.688
	c0-4.753,3.854-8.606,8.606-8.606h28.688c4.753,0,8.606,3.854,8.606,8.606V448.594z M558.45,349.144
	c0,4.753-3.854,8.606-8.606,8.606h-28.688c-4.753,0-8.606-3.853-8.606-8.606v-28.688c0-4.753,3.854-8.606,8.606-8.606h28.688
	c4.753,0,8.606,3.853,8.606,8.606V349.144z M558.45,249.694c0,4.753-3.854,8.606-8.606,8.606l0,0h-28.688
	c-4.753,0-8.606-3.853-8.606-8.606l0,0v-28.688c0-4.753,3.854-8.606,8.606-8.606h28.688c4.753,0,8.606,3.853,8.606,8.606V249.694z
	 M397.8,304.2H30.6C13.7,304.2,0,317.9,0,334.8v275.4c0,16.899,13.7,30.6,30.6,30.6h367.2c16.9,0,30.601-13.7,30.601-30.6V334.8
	C428.4,317.9,414.7,304.2,397.8,304.2z M91.8,365.4c16.9,0,30.6,13.7,30.6,30.6c0,16.9-13.7,30.6-30.6,30.6S61.2,412.9,61.2,396
	C61.2,379.1,74.9,365.4,91.8,365.4z M367.2,579.6h-306V549l61.2-61.2L153,518.4L275.4,396l91.8,91.8V579.6z"/>
</svg>
