<?xml version="1.0" encoding="utf-8"?>
<!-- Generator: Adobe Illustrator 16.0.0, SVG Export Plug-In . SVG Version: 6.00 Build 0)  -->
<!DOCTYPE svg PUBLIC "-//W3C//DTD SVG 1.1//EN" "http://www.w3.org/Graphics/SVG/1.1/DTD/svg11.dtd">
<svg version="1.1" id="Layer_1" focusable="false" xmlns="http://www.w3.org/2000/svg" xmlns:xlink="http://www.w3.org/1999/xlink"
	 x="0px" y="0px" width="612px" height="792px" viewBox="0 0 612 792" enable-background="new 0 0 612 792" xml:space="preserve">
<path fill="#FFFFFF" d="M444.298,374.484L233.923,246.586c-18.886-10.519-42.673,2.988-42.673,25.102v248.625
	c0,21.994,23.667,35.62,42.673,25.102l210.375-120.727C463.9,413.811,463.9,385.481,444.298,374.484z M602.438,396
	c0-163.758-132.68-296.438-296.438-296.438S9.563,232.242,9.563,396S142.242,692.438,306,692.438S602.438,559.758,602.438,396z
	 M66.938,396c0-132.082,106.98-239.063,239.063-239.063S545.063,263.918,545.063,396S438.082,635.063,306,635.063
	S66.938,528.082,66.938,396z"/>
</svg>
