<?xml version="1.0" encoding="utf-8"?>
<!-- Generator: Adobe Illustrator 16.0.0, SVG Export Plug-In . SVG Version: 6.00 Build 0)  -->
<!DOCTYPE svg PUBLIC "-//W3C//DTD SVG 1.1//EN" "http://www.w3.org/Graphics/SVG/1.1/DTD/svg11.dtd">
<svg version="1.1" id="Layer_1" xmlns="http://www.w3.org/2000/svg" xmlns:xlink="http://www.w3.org/1999/xlink" x="0px" y="0px"
	 width="612px" height="792px" viewBox="0 0 612 792" enable-background="new 0 0 612 792" xml:space="preserve">
<path fill="#808080" d="M306,679.103c156.354,0,283.103-126.749,283.103-283.103S462.354,112.898,306,112.898
	S22.898,239.646,22.898,396S149.646,679.103,306,679.103z M306,702C136.994,702,0,565.006,0,396C0,226.994,136.994,90,306,90
	c169.006,0,306,136.994,306,306C612,565.006,475.006,702,306,702z"/>
<path fill="#808080" d="M509.967,240.973c-86.063-111.394-246.102-131.933-357.495-45.869
	c-111.369,86.063-131.908,246.102-45.845,357.47c86.039,111.394,246.078,131.958,357.471,45.895
	C575.491,512.43,596.03,352.342,509.967,240.973L509.967,240.973z"/>
<path fill="#FFFFFF" d="M358.404,310.772c-18.353,8.378-48.228,33.708-96.701,81.985l13.783,13.783l4.594,4.619l93.68-93.68
	c2.924-2.924,6.634-4.398,10.441-5.062C377.248,307.209,370.565,305.22,358.404,310.772 M399.729,346.519l-98.053,86.162
	c8.722,8.746,13.513,13.513,15.97,15.994C356.488,411.822,393.464,374.232,399.729,346.519 M232.246,422.657
	c0.147,0.245,0.295,0.221,0.442,0.196l39.728-8.574l-16.092-16.068l-24.028,24.004C232.221,422.264,232.098,422.362,232.246,422.657
	 M412.356,289.521l33.241-33.241c-6.707-5.233-14.839-7.813-22.972-7.813c-9.605,0-19.212,3.636-26.436,10.884
	c-7.075,7.075-10.957,16.46-10.957,26.46s3.882,19.409,10.957,26.485c10.859,10.884,27.296,14.004,41.398,7.837l-25.207-25.183
	c-0.713-0.713-1.131-1.695-1.131-2.703C411.227,291.216,411.645,290.257,412.356,289.521"/>
<path fill="#FFFFFF" d="M448.006,298.193c-0.664,0-1.327-0.246-1.892-0.688c-1.229-1.032-1.426-2.899-0.369-4.152
	c2.236-2.703,2.653-6.461,1.057-9.582c-0.713-1.45-0.123-3.219,1.327-3.956c1.449-0.712,3.218-0.123,3.955,1.327
	c2.604,5.208,1.892,11.498-1.843,15.969C449.701,297.8,448.865,298.193,448.006,298.193 M451.15,261.512l-30.686,30.735
	l23.979,23.979c1.671-1.179,3.219-2.506,4.692-3.931c7.076-7.076,10.958-16.485,10.958-26.485
	C460.094,276.818,456.948,268.318,451.15,261.512 M379.165,322.86l-93.409,93.434l10.736,10.736l98.912-86.875
	c2.481-2.187,3.906-5.233,4.005-8.525c0.099-3.317-1.13-6.437-3.464-8.796C391.326,318.241,383.809,318.241,379.165,322.86
	 M204.876,522.135c0,0,0.024,0,0.049-0.025c44.542-22.332,80.536-45.304,107.02-68.3l-15.109-15.085l-39.703,6.167l-78.619,78.618
	l25.158,25.158c0.614,0.59,1.229,0.442,1.646,0.246c0.418-0.246,0.86-0.688,0.688-1.523l-4.299-18.401
	C201.068,526.237,202.37,523.437,204.876,522.135 M195.761,551.567l-22.652-22.652l-19.212,19.213
	c-0.074,0.049-0.147,0.147-0.074,0.344c0.074,0.222,0.221,0.246,0.294,0.246L195.761,551.567z M267.305,434.744h0.074
	c0.074,0,0.221,0.024,0.295,0.024l22.333-2.898l-9.876-9.926L267.305,434.744z"/>
<path fill="#FF6C37" d="M452.108,281.143c-0.712-1.45-2.506-2.064-3.979-1.327c-1.45,0.712-2.04,2.481-1.327,3.956
	c1.572,3.12,1.154,6.879-1.081,9.582c-1.057,1.253-0.859,3.12,0.394,4.152c0.54,0.442,1.203,0.688,1.892,0.688
	c0.859,0,1.67-0.393,2.26-1.081C454,292.641,454.713,286.351,452.108,281.143"/>
</svg>
