<?xml version="1.0" encoding="utf-8"?>
<!-- Generator: Adobe Illustrator 16.0.0, SVG Export Plug-In . SVG Version: 6.00 Build 0)  -->
<!DOCTYPE svg PUBLIC "-//W3C//DTD SVG 1.1//EN" "http://www.w3.org/Graphics/SVG/1.1/DTD/svg11.dtd">
<svg version="1.1" id="Capa_1" xmlns="http://www.w3.org/2000/svg" xmlns:xlink="http://www.w3.org/1999/xlink" x="0px" y="0px"
	 width="134.025px" height="134.025px" viewBox="0 0 134.025 134.025" enable-background="new 0 0 134.025 134.025"
	 xml:space="preserve">
<g>
	<g>
		<path fill="#FFFFFF" d="M76.189,115.914H32.133c-6.746,0-12.239-5.775-12.239-12.869V46.424c0-7.094,5.494-12.869,12.239-12.869
			h44.056c5.905,0,10.852,4.421,11.989,10.28c1.587-0.467,3.185-0.839,4.79-1.045c-1.605-8.193-8.519-14.382-16.779-14.382H50.214
			c1.138-5.869,6.081-10.295,11.989-10.295h23.771c6.746,0,12.238,5.776,12.238,12.869v11.626c1.649,0.078,3.285,0.298,4.895,0.643
			v-12.27c0-9.936-7.682-18.017-17.133-18.017H62.203c-8.604,0-15.686,6.739-16.884,15.442H32.133
			c-9.446,0-17.134,8.082-17.134,18.017v56.621c0,9.934,7.688,18.016,17.134,18.016h44.056c7.43,0,13.696-5.025,16.073-11.979
			c-1.621-0.246-3.208-0.633-4.771-1.137C85.655,112.617,81.284,115.914,76.189,115.914z"/>
		<rect x="29.685" y="47.067" fill="#FFFFFF" width="32.584" height="3.86"/>
		<rect x="29.685" y="64.224" fill="#FFFFFF" width="25.088" height="3.86"/>
		<rect x="29.685" y="81.385" fill="#FFFFFF" width="25.088" height="3.861"/>
		<rect x="29.685" y="98.541" fill="#FFFFFF" width="32.584" height="3.861"/>
		<path fill="#FFFFFF" d="M114.948,74.593l4.488-1.737c0.617-0.236,0.934-0.967,0.713-1.619l-3.738-10.632
			c-0.23-0.648-0.928-0.988-1.54-0.747l-4.479,1.737c-0.627,0.241-1.372,0.132-1.669-0.233c-0.306-0.375-0.927-1.803-0.65-2.425
			l1.994-4.557c0.281-0.628,0.014-1.385-0.588-1.671l-9.781-4.748c-0.602-0.286-1.319-0.009-1.597,0.619l-1.998,4.557
			c-0.268,0.631-0.87,1.12-1.334,1.085c-0.453-0.033-1.864-0.566-2.094-1.217l-1.649-4.72c-0.229-0.649-0.918-0.983-1.539-0.747
			l-10.115,3.923c-0.622,0.241-0.942,0.968-0.713,1.621l1.65,4.715c0.229,0.649,0.133,1.443-0.22,1.754
			c-0.345,0.319-1.698,0.976-2.3,0.686l-4.329-2.101c-0.596-0.293-1.31-0.009-1.589,0.619l-4.519,10.297
			c-0.279,0.624-0.011,1.377,0.586,1.669l4.329,2.101c0.604,0.292,1.066,0.926,1.032,1.398c-0.024,0.482-0.538,1.965-1.157,2.207
			l-4.48,1.733c-0.62,0.241-0.938,0.966-0.71,1.618l3.729,10.643c0.225,0.648,0.92,0.984,1.537,0.748l4.485-1.738
			c0.613-0.24,1.368-0.135,1.67,0.23c0.301,0.363,0.922,1.791,0.65,2.424l-1.999,4.545c-0.278,0.629-0.009,1.387,0.583,1.674
			l9.795,4.75c0.604,0.291,1.32,0.01,1.592-0.619l1.993-4.547c0.278-0.635,0.881-1.119,1.334-1.092
			c0.453,0.029,1.859,0.566,2.089,1.221l1.653,4.705c0.23,0.652,0.924,0.99,1.54,0.754l10.115-3.92
			c0.622-0.242,0.937-0.971,0.712-1.625l-1.648-4.715c-0.229-0.648-0.124-1.441,0.219-1.754c0.354-0.322,1.712-0.977,2.305-0.684
			l4.331,2.1c0.604,0.287,1.314,0.012,1.597-0.617l4.504-10.295c0.28-0.629,0.009-1.389-0.584-1.674l-4.331-2.102
			c-0.594-0.291-1.004-1.81-1.004-2.281C113.821,75.428,114.327,74.834,114.948,74.593z M97.692,87.338
			c-6.205,2.402-13.099-0.941-15.39-7.467c-2.285-6.523,0.896-13.771,7.099-16.184c6.206-2.41,13.1,0.933,15.394,7.457
			C107.08,77.681,103.902,84.93,97.692,87.338z"/>
	</g>
</g>
</svg>
