<?xml version="1.0" encoding="utf-8"?>
<!-- Generator: Adobe Illustrator 16.0.0, SVG Export Plug-In . SVG Version: 6.00 Build 0)  -->
<!DOCTYPE svg PUBLIC "-//W3C//DTD SVG 1.1//EN" "http://www.w3.org/Graphics/SVG/1.1/DTD/svg11.dtd">
<svg version="1.1" id="Capa_1" xmlns="http://www.w3.org/2000/svg" xmlns:xlink="http://www.w3.org/1999/xlink" x="0px" y="0px"
	 width="612px" height="792px" viewBox="0 0 612 792" enable-background="new 0 0 612 792" xml:space="preserve">
<g>
	<g>
		<path fill="#FFFFFF" d="M536.457,413.93h57.613c9.902,0,17.93-8.027,17.93-17.93V223.158c0-9.902-8.027-17.93-17.93-17.93H439.158
			v-39.684c0-41.656-33.89-75.544-75.544-75.544s-75.544,33.89-75.544,75.544v39.684H133.158c-9.902,0-17.93,8.028-17.93,17.93
			V378.07H75.544C33.89,378.07,0,411.96,0,453.614s33.89,75.544,75.544,75.544h39.684V684.07c0,9.902,8.028,17.93,17.93,17.93H306
			c9.902,0,17.93-8.027,17.93-17.93v-57.614c0-21.883,17.803-39.685,39.685-39.685c21.881,0,39.685,17.804,39.685,39.685v57.614
			c0,9.902,8.027,17.93,17.93,17.93H594.07c9.902,0,17.93-8.027,17.93-17.93V511.229c0-9.902-8.027-17.93-17.93-17.93h-57.613
			c-21.884,0-39.686-17.804-39.686-39.685C496.771,431.732,514.573,413.93,536.457,413.93z M536.457,529.158h39.684v136.982H439.158
			v-39.685c0-41.655-33.89-75.544-75.544-75.544s-75.544,33.889-75.544,75.544v39.685H151.087V511.229
			c0-9.902-8.028-17.93-17.93-17.93H75.544c-21.883,0-39.685-17.804-39.685-39.685c0-21.882,17.803-39.685,39.685-39.685h57.614
			c9.902,0,17.93-8.027,17.93-17.93V241.087H306c9.902,0,17.93-8.028,17.93-17.93v-57.614c0-21.883,17.803-39.685,39.685-39.685
			c21.881,0,39.685,17.803,39.685,39.685v57.614c0,9.902,8.027,17.93,17.93,17.93h154.912V378.07h-39.684
			c-41.656,0-75.545,33.89-75.545,75.544S494.801,529.158,536.457,529.158z"/>
	</g>
</g>
</svg>
