<?xml version="1.0" encoding="utf-8"?>
<!-- Generator: Adobe Illustrator 16.0.0, SVG Export Plug-In . SVG Version: 6.00 Build 0)  -->
<!DOCTYPE svg PUBLIC "-//W3C//DTD SVG 1.1//EN" "http://www.w3.org/Graphics/SVG/1.1/DTD/svg11.dtd">
<svg version="1.1" id="Layer_1" focusable="false" xmlns="http://www.w3.org/2000/svg" xmlns:xlink="http://www.w3.org/1999/xlink"
	 x="0px" y="0px" width="612px" height="792px" viewBox="0 0 612 792" enable-background="new 0 0 612 792" xml:space="preserve">
<path fill="#FFFFFF" d="M551.907,430.691c-44.114,0-63.219,33.567-87.187,33.567C400.997,464.259,459,277,459,277
	s-208.556,85-208.556-3.503c0-38.066,38.556-49.141,38.556-91.359C289,144.417,259.128,124,223.698,124
	c-36.82,0-70.514,20.072-70.514,59.868c0,43.949,33.693,62.982,33.693,86.859C186.878,344.701,0,301.18,0,301.18v354.065
	c0,0,189.8,43.612,189.8-30.454c0-23.877-42.5-42.613-42.5-86.563c0-39.797,31.078-59.868,67.55-59.868
	c35.778,0,65.65,20.417,65.65,58.138c0,42.218-38.556,53.292-38.556,91.358c0,64.604,137.78,27.338,192.557,27.338
	c0,0-36.896-127.606,27.441-127.606c38.209,0,49.324,38.411,91.702,38.411C591.507,566,612,536.239,612,500.596
	C612,464.259,591.853,430.691,551.907,430.691z"/>
</svg>
