<?xml version="1.0" encoding="utf-8"?>
<!-- Generator: Adobe Illustrator 16.0.0, SVG Export Plug-In . SVG Version: 6.00 Build 0)  -->
<!DOCTYPE svg PUBLIC "-//W3C//DTD SVG 1.1//EN" "http://www.w3.org/Graphics/SVG/1.1/DTD/svg11.dtd">
<svg version="1.1" id="Layer_1" focusable="false" xmlns="http://www.w3.org/2000/svg" xmlns:xlink="http://www.w3.org/1999/xlink"
	 x="0px" y="0px" width="612px" height="792px" viewBox="0 0 612 792" enable-background="new 0 0 612 792" xml:space="preserve">
<path fill="#FFFFFF" d="M600.798,320.183c-10.519-42.211-30.463-74.041-72.948-74.041H473.07v64.751
	c0,50.271-42.621,92.62-91.253,92.62H235.92c-39.889,0-72.948,34.151-72.948,74.178v139.065c0,39.616,34.425,62.84,72.948,74.178
	c46.173,13.524,90.571,15.983,145.897,0c36.747-10.655,72.948-32.103,72.948-74.178v-55.599h-145.76v-18.579H527.85
	c42.485,0,58.195-29.644,72.948-74.041C616.099,422.775,615.415,378.788,600.798,320.183L600.798,320.183z M390.97,598.179
	c15.163,0,27.458,12.431,27.458,27.731c0,15.437-12.295,27.867-27.458,27.867c-15.026,0-27.458-12.567-27.458-27.867
	C363.648,610.474,375.943,598.179,390.97,598.179z M229.227,385.208h145.896c40.572,0,72.948-33.469,72.948-74.178V171.828
	c0-39.616-33.332-69.26-72.948-75.954c-48.905-8.06-102.045-7.65-145.896,0.137c-61.746,10.929-72.948,33.742-72.948,75.954v55.599
	h146.033v18.579H101.499c-42.485,0-79.642,25.545-91.253,74.041c-13.388,55.599-13.934,90.297,0,148.355
	c10.382,43.168,35.108,74.041,77.593,74.041h50.135v-66.664C137.973,427.693,179.638,385.208,229.227,385.208L229.227,385.208z
	 M220.074,190.406c-15.164,0-27.458-12.431-27.458-27.731c0.137-15.437,12.294-27.868,27.458-27.868
	c15.027,0,27.458,12.568,27.458,27.868C247.532,177.975,235.237,190.406,220.074,190.406z"/>
</svg>
