<?xml version="1.0" encoding="utf-8"?>
<!-- Generator: Adobe Illustrator 16.0.0, SVG Export Plug-In . SVG Version: 6.00 Build 0)  -->
<!DOCTYPE svg PUBLIC "-//W3C//DTD SVG 1.1//EN" "http://www.w3.org/Graphics/SVG/1.1/DTD/svg11.dtd">
<svg version="1.1" id="Layer_1" xmlns="http://www.w3.org/2000/svg" xmlns:xlink="http://www.w3.org/1999/xlink" x="0px" y="0px"
	 width="512px" height="512px" viewBox="0 0 512 512" enable-background="new 0 0 512 512" xml:space="preserve">
<path fill="#FFFFFF" d="M100,200C44.859,200,0,155.141,0,100S44.859,0,100,0s100,44.859,100,100S155.141,200,100,200z M100,40
	c-33.086,0-60,26.914-60,60s26.914,60,60,60s60-26.914,60-60S133.086,40,100,40z M512,80H240v40h272V80z M100,80
	c-11.027,0-20,8.973-20,20s8.973,20,20,20s20-8.973,20-20S111.027,80,100,80z M100,440C44.859,440,0,395.141,0,340
	s44.859-100,100-100s100,44.859,100,100S155.141,440,100,440z M100,280c-33.086,0-60,26.914-60,60s26.914,60,60,60s60-26.914,60-60
	S133.086,280,100,280z M512,320H240v40h272V320z"/>
</svg>
