<?xml version="1.0" encoding="utf-8"?>
<!-- Generator: Adobe Illustrator 16.0.0, SVG Export Plug-In . SVG Version: 6.00 Build 0)  -->
<!DOCTYPE svg PUBLIC "-//W3C//DTD SVG 1.1//EN" "http://www.w3.org/Graphics/SVG/1.1/DTD/svg11.dtd">
<svg version="1.1" id="Layer_1" focusable="false" xmlns="http://www.w3.org/2000/svg" xmlns:xlink="http://www.w3.org/1999/xlink"
	 x="0px" y="0px" width="612px" height="792px" viewBox="0 0 612 792" enable-background="new 0 0 612 792" xml:space="preserve">
<path fill="#FFFFFF" d="M580.658,299.53l-167.124-24.332L338.85,124.037c-6.714-13.508-19.811-20.335-32.907-20.335
	c-13.016,0-26.021,6.736-32.758,20.335l-74.708,151.15L31.342,299.496c-29.972,4.338-41.984,41.207-20.255,62.33l120.904,117.604
	l-28.613,166.107c-4.065,23.727,14.877,42.761,36.092,42.761c5.629,0,11.418-1.336,16.979-4.282l149.518-78.418l149.506,78.441
	c5.549,2.911,11.327,4.235,16.933,4.235c21.237,0,40.214-18.965,36.149-42.703l-28.579-166.119l120.928-117.581
	C622.642,340.749,610.63,303.869,580.658,299.53L580.658,299.53z M441.656,440.199l-20.689,20.118l4.887,28.407l22.288,129.536
	L331.53,557.072l-25.553-13.404l0.035-362.165l58.266,117.936l12.765,25.838l28.557,4.156l130.427,18.988L441.656,440.199z"/>
</svg>
