<?xml version="1.0" encoding="utf-8"?>
<!-- Generator: Adobe Illustrator 16.0.0, SVG Export Plug-In . SVG Version: 6.00 Build 0)  -->
<!DOCTYPE svg PUBLIC "-//W3C//DTD SVG 1.1//EN" "http://www.w3.org/Graphics/SVG/1.1/DTD/svg11.dtd">
<svg version="1.1" id="Layer_1" focusable="false" xmlns="http://www.w3.org/2000/svg" xmlns:xlink="http://www.w3.org/1999/xlink"
	 x="0px" y="0px" width="612px" height="792px" viewBox="0 0 612 792" enable-background="new 0 0 612 792" xml:space="preserve">
<path fill="#FFFFFF" d="M598.051,90h-56.67c-7.922-0.009-14.351,6.406-14.359,14.328c-0.001,0.232,0.005,0.465,0.016,0.697
	l4.781,98.924C475.553,137.646,392.959,99.467,306,99.563c-163.352,0-296.557,133.313-296.438,296.665
	C9.682,559.842,142.362,692.438,306,692.438c73.404,0.104,144.218-27.13,198.637-76.393c5.903-5.283,6.406-14.351,1.123-20.254
	c-0.178-0.198-0.36-0.392-0.549-0.58L464.57,554.57c-5.337-5.336-13.896-5.623-19.579-0.657
	c-87.231,76.747-220.162,68.247-296.909-18.984S79.834,314.767,167.066,238.02c87.231-76.747,220.162-68.248,296.909,18.984
	c6.016,6.837,11.581,14.058,16.66,21.616l-121.359-5.821c-7.913-0.376-14.633,5.733-15.009,13.646
	c-0.012,0.232-0.017,0.465-0.017,0.698v56.669c0,7.922,6.422,14.344,14.344,14.344h239.457c7.922,0,14.344-6.422,14.344-14.344
	V104.344C612.395,96.422,605.973,90,598.051,90L598.051,90z"/>
</svg>
