<?xml version="1.0" encoding="utf-8"?>
<!-- Generator: Adobe Illustrator 16.0.0, SVG Export Plug-In . SVG Version: 6.00 Build 0)  -->
<!DOCTYPE svg PUBLIC "-//W3C//DTD SVG 1.1//EN" "http://www.w3.org/Graphics/SVG/1.1/DTD/svg11.dtd">
<svg version="1.1" id="Capa_1" xmlns="http://www.w3.org/2000/svg" xmlns:xlink="http://www.w3.org/1999/xlink" x="0px" y="0px"
	 width="612px" height="792px" viewBox="0 0 612 792" enable-background="new 0 0 612 792" xml:space="preserve">
<g>
	<g>
		<path fill="#FFFFFF" d="M592.875,90h-229.5c-10.557,0-19.125,8.568-19.125,19.125v38.25c0,10.557,8.568,19.125,19.125,19.125
			h118.039L76.5,571.414V453.375c0-10.557-8.568-19.125-19.125-19.125h-38.25C8.568,434.25,0,442.818,0,453.375v229.5
			C0,693.432,8.568,702,19.125,702h229.5c10.557,0,19.125-8.568,19.125-19.125v-38.25c0-10.557-8.568-19.125-19.125-19.125h-118.04
			L535.5,220.585v118.04c0,10.557,8.568,19.125,19.125,19.125h38.25c10.557,0,19.125-8.568,19.125-19.125v-229.5
			C612,98.568,603.432,90,592.875,90z"/>
	</g>
</g>
</svg>
