<?xml version="1.0" encoding="utf-8"?>
<!-- Generator: Adobe Illustrator 16.0.0, SVG Export Plug-In . SVG Version: 6.00 Build 0)  -->
<!DOCTYPE svg PUBLIC "-//W3C//DTD SVG 1.1//EN" "http://www.w3.org/Graphics/SVG/1.1/DTD/svg11.dtd">
<svg version="1.1" id="Layer_1" xmlns="http://www.w3.org/2000/svg" xmlns:xlink="http://www.w3.org/1999/xlink" x="0px" y="0px"
	 width="512px" height="512px" viewBox="0 0 512 512" enable-background="new 0 0 512 512" xml:space="preserve">
<path fill="#FFFFFF" d="M512,60c0-33.086-26.914-60-60-60H60C26.914,0,0,26.914,0,60v76c0,15.355,5.805,29.375,15.328,40
	C5.805,186.625,0,200.645,0,216v80c0,15.355,5.805,29.375,15.328,40C5.805,346.625,0,360.645,0,376v76c0,33.086,26.914,60,60,60h392
	c33.086,0,60-26.914,60-60v-76c0-15.355-5.805-29.375-15.328-40C506.195,325.375,512,311.355,512,296v-80
	c0-15.355-5.805-29.375-15.328-40C506.195,165.375,512,151.355,512,136V60z M472,452c0,11.027-8.973,20-20,20H60
	c-11.027,0-20-8.973-20-20v-76c0-11.027,8.973-20,20-20h18v-40H60c-11.027,0-20-8.973-20-20v-80c0-11.027,8.973-20,20-20h18v-40H60
	c-11.027,0-20-8.973-20-20V60c0-11.027,8.973-20,20-20h392c11.027,0,20,8.973,20,20v76c0,11.027-8.973,20-20,20h-18v40h18
	c11.027,0,20,8.973,20,20v80c0,11.027-8.973,20-20,20h-18v40h18c11.027,0,20,8.973,20,20V452z M196,316h40v40h-40V316z M274,316h40
	v40h-40V316z M352,316h40v40h-40V316z M118,316h40v40h-40V316z M196,155h40v40h-40V155z M118,155h40v40h-40V155z M274,155h40v40h-40
	V155z M352,155h40v40h-40V155z"/>
<path fill="#FFFFFF" d="M512,60c0-33.086-26.914-60-60-60H60C26.914,0,0,26.914,0,60v76c0,15.355,5.805,29.375,15.328,40
	C5.805,186.625,0,200.645,0,216v80c0,15.355,5.805,29.375,15.328,40C5.805,346.625,0,360.645,0,376v76c0,33.086,26.914,60,60,60h392
	c33.086,0,60-26.914,60-60v-76c0-15.355-5.805-29.375-15.328-40C506.195,325.375,512,311.355,512,296v-80
	c0-15.355-5.805-29.375-15.328-40C506.195,165.375,512,151.355,512,136V60z M472,452c0,11.027-8.973,20-20,20H60
	c-11.027,0-20-8.973-20-20v-76c0-11.027,8.973-20,20-20h18v-40H60c-11.027,0-20-8.973-20-20v-80c0-11.027,8.973-20,20-20h18v-40H60
	c-11.027,0-20-8.973-20-20V60c0-11.027,8.973-20,20-20h392c11.027,0,20,8.973,20,20v76c0,11.027-8.973,20-20,20h-18v40h18
	c11.027,0,20,8.973,20,20v80c0,11.027-8.973,20-20,20h-18v40h18c11.027,0,20,8.973,20,20V452z M196,316h40v40h-40V316z M274,316h40
	v40h-40V316z M352,316h40v40h-40V316z M118,316h40v40h-40V316z M196,155h40v40h-40V155z M118,155h40v40h-40V155z M274,155h40v40h-40
	V155z M352,155h40v40h-40V155z"/>
</svg>
