<?xml version="1.0" encoding="utf-8"?>
<!-- Generator: Adobe Illustrator 16.0.0, SVG Export Plug-In . SVG Version: 6.00 Build 0)  -->
<!DOCTYPE svg PUBLIC "-//W3C//DTD SVG 1.1//EN" "http://www.w3.org/Graphics/SVG/1.1/DTD/svg11.dtd">
<svg version="1.1" id="Capa_1" xmlns="http://www.w3.org/2000/svg" xmlns:xlink="http://www.w3.org/1999/xlink" x="0px" y="0px"
	 width="612px" height="792px" viewBox="0 0 612 792" enable-background="new 0 0 612 792" xml:space="preserve">
<g>
	<g>
		<path fill="#FFFFFF" d="M510,561.75c28.178,0,50.745-22.821,50.745-51L561,230.25c0-28.177-22.822-51-51.001-51H102
			c-28.177,0-51,22.822-51,51v280.5c0,28.177,22.822,51,51,51H0c0,28.178,22.822,51.001,51,51.001h510c28.177,0,51-22.822,51-51.001
			H510z M102,230.25h408v280.5H102V230.25z M306,587.25c-14.024,0-25.5-11.475-25.5-25.5c0-14.024,11.475-25.499,25.5-25.499
			s25.5,11.475,25.5,25.499C331.5,575.775,320.024,587.25,306,587.25z"/>
	</g>
</g>
</svg>
