<?xml version="1.0" encoding="utf-8"?>
<!-- Generator: Adobe Illustrator 16.0.0, SVG Export Plug-In . SVG Version: 6.00 Build 0)  -->
<!DOCTYPE svg PUBLIC "-//W3C//DTD SVG 1.1//EN" "http://www.w3.org/Graphics/SVG/1.1/DTD/svg11.dtd">
<svg version="1.1" id="Capa_1" xmlns="http://www.w3.org/2000/svg" xmlns:xlink="http://www.w3.org/1999/xlink" x="0px" y="0px"
	 width="612px" height="792px" viewBox="0 0 612 792" enable-background="new 0 0 612 792" xml:space="preserve">
<g>
	<g>
		<path fill="#FFFFFF" d="M484.5,90h-357c-35.19,0-63.75,28.56-63.75,63.75v484.5c0,35.19,28.56,63.75,63.75,63.75h357
			c35.189,0,63.749-28.56,63.749-63.75v-484.5C548.25,118.56,519.689,90,484.5,90z M306,676.5c-21.166,0-38.25-17.084-38.25-38.25
			c0-21.165,17.084-38.25,38.25-38.25c21.165,0,38.25,17.085,38.25,38.25C344.25,659.416,327.165,676.5,306,676.5z M497.25,574.5
			h-382.5v-408h382.5V574.5z"/>
	</g>
</g>
</svg>
