<?xml version="1.0" encoding="utf-8"?>
<!-- Generator: Adobe Illustrator 16.0.0, SVG Export Plug-In . SVG Version: 6.00 Build 0)  -->
<!DOCTYPE svg PUBLIC "-//W3C//DTD SVG 1.1//EN" "http://www.w3.org/Graphics/SVG/1.1/DTD/svg11.dtd">
<svg version="1.1" id="Capa_1" xmlns="http://www.w3.org/2000/svg" xmlns:xlink="http://www.w3.org/1999/xlink" x="0px" y="0px"
	 width="154.883px" height="154.883px" viewBox="0 0 154.883 154.883" enable-background="new 0 0 154.883 154.883"
	 xml:space="preserve">
<g>
	<g id="Layer_7_11_">
		<path fill="#FFFFFF" d="M30.11,0v154.883h94.664V0H30.11z M65.184,8.28h24.531v2.204H65.184V8.28z M62.241,135.268H43.79v-9.721
			h18.451V135.268z M62.241,119.988H43.79v-9.729h18.451V119.988z M62.241,104.708H43.79V95.01h18.451V104.708z M62.241,89.053
			H43.79v-9.715h18.451V89.053z M89.709,148.627H65.178v-2.198h24.531V148.627z M86.668,94.999v9.699H68.215v-9.699H86.668z
			 M68.22,89.053v-9.715h18.454v9.715H68.22z M86.668,110.258v9.73H68.215v-9.73H86.668z M86.668,125.538v9.729H68.215v-9.729
			H86.668L86.668,125.538z M111.083,135.268H92.629v-9.721h18.453V135.268z M111.083,119.988H92.629v-9.729h18.453V119.988z
			 M111.083,104.708H92.629V95.01h18.453V104.708z M111.083,89.053H92.629v-9.715h18.453V89.053z M111.129,72.93L43.79,72.709
			V16.603l67.304-0.03L111.129,72.93z"/>
	</g>
</g>
</svg>
