<?xml version="1.0" encoding="utf-8"?>
<!-- Generator: Adobe Illustrator 16.0.0, SVG Export Plug-In . SVG Version: 6.00 Build 0)  -->
<!DOCTYPE svg PUBLIC "-//W3C//DTD SVG 1.1//EN" "http://www.w3.org/Graphics/SVG/1.1/DTD/svg11.dtd">
<svg version="1.1" id="Capa_1" xmlns="http://www.w3.org/2000/svg" xmlns:xlink="http://www.w3.org/1999/xlink" x="0px" y="0px"
	 width="612px" height="792px" viewBox="0 0 612 792" enable-background="new 0 0 612 792" xml:space="preserve">
<g>
	<path fill="#FFFFFF" d="M263.564,514.477H50.002c-4.964,0-9.006-4.045-9.006-9.009V158.011c0-4.962,4.043-9.006,9.006-9.006
		h511.976c4.966,0,9.007,4.043,9.007,9.006v76.097c14.994,1.771,29.045,6.685,40.994,14.763v-90.86
		c0-27.573-22.438-50.001-50.002-50.001H50.002C22.438,108.01,0,130.438,0,158.011v347.456c0,27.574,22.438,50.004,50.002,50.004
		h171.605v67.027h-27.062c-16.974,0-30.747,13.762-30.747,30.747c0,16.984,13.772,30.747,30.747,30.747h86.313
		c-10.788-15.173-17.293-33.59-17.293-53.587V514.477H263.564z"/>
	<path fill="#FFFFFF" d="M435.629,652.983v-44.287h-90.075v-282.87c0-5.967,4.844-10.821,10.809-10.821h203.814
		c5.965,0,10.808,4.854,10.808,10.821v87.544h15.355c9.387,0,18.074,2.712,25.639,7.135v-94.679
		c0-28.576-23.238-51.816-51.803-51.816H356.362c-28.563,0-51.803,23.24-51.803,51.816v304.578
		c0,28.576,23.239,51.814,51.803,51.814h88.516C439.233,674.112,435.629,662.817,435.629,652.983z"/>
	<path fill="#FFFFFF" d="M586.34,438.992h-99.425c-14.155,0-25.663,11.521-25.663,25.671v188.32
		c0,14.151,11.508,25.662,25.663,25.662h99.425c14.151,0,25.66-11.511,25.66-25.662V464.662
		C612,450.511,600.49,438.992,586.34,438.992z M491.997,469.738h89.256v162.788h-89.256V469.738z M536.638,666.175
		c-2.824,0-5.346-1.143-7.267-2.902c-2.184-1.982-3.584-4.767-3.584-7.939c0-5.983,4.845-10.829,10.85-10.829
		c5.965,0,10.809,4.846,10.809,10.829c0,3.173-1.401,5.956-3.563,7.939C541.959,665.034,539.438,666.175,536.638,666.175z"/>
</g>
</svg>
