<?xml version="1.0" encoding="utf-8"?>
<!-- Generator: Adobe Illustrator 16.0.0, SVG Export Plug-In . SVG Version: 6.00 Build 0)  -->
<!DOCTYPE svg PUBLIC "-//W3C//DTD SVG 1.1//EN" "http://www.w3.org/Graphics/SVG/1.1/DTD/svg11.dtd">
<svg version="1.1" id="Layer_1" focusable="false" xmlns="http://www.w3.org/2000/svg" xmlns:xlink="http://www.w3.org/1999/xlink"
	 x="0px" y="0px" width="612px" height="792px" viewBox="0 0 612 792" enable-background="new 0 0 612 792" xml:space="preserve">
<path fill="#FFFFFF" d="M592.875,549H191.25v-19.125c0-10.519-8.606-19.125-19.125-19.125h-38.25
	c-10.519,0-19.125,8.606-19.125,19.125V549H19.125C8.606,549,0,557.606,0,568.125v38.25C0,616.894,8.606,625.5,19.125,625.5h95.625
	v19.125c0,10.519,8.606,19.125,19.125,19.125h38.25c10.519,0,19.125-8.606,19.125-19.125V625.5h401.625
	c10.519,0,19.125-8.606,19.125-19.125v-38.25C612,557.606,603.394,549,592.875,549z M592.875,357.75H497.25v-19.125
	c0-10.519-8.606-19.125-19.125-19.125h-38.25c-10.519,0-19.125,8.606-19.125,19.125v19.125H19.125C8.606,357.75,0,366.356,0,376.875
	v38.25c0,10.519,8.606,19.125,19.125,19.125H420.75v19.125c0,10.519,8.606,19.125,19.125,19.125h38.25
	c10.519,0,19.125-8.606,19.125-19.125V434.25h95.625c10.519,0,19.125-8.606,19.125-19.125v-38.25
	C612,366.356,603.394,357.75,592.875,357.75z M592.875,166.5H344.25v-19.125c0-10.519-8.606-19.125-19.125-19.125h-38.25
	c-10.519,0-19.125,8.606-19.125,19.125V166.5H19.125C8.606,166.5,0,175.106,0,185.625v38.25C0,234.394,8.606,243,19.125,243H267.75
	v19.125c0,10.519,8.606,19.125,19.125,19.125h38.25c10.519,0,19.125-8.606,19.125-19.125V243h248.625
	c10.519,0,19.125-8.606,19.125-19.125v-38.25C612,175.106,603.394,166.5,592.875,166.5z"/>
</svg>
