<?xml version="1.0" encoding="utf-8"?>
<!-- Generator: Adobe Illustrator 16.0.0, SVG Export Plug-In . SVG Version: 6.00 Build 0)  -->
<!DOCTYPE svg PUBLIC "-//W3C//DTD SVG 1.1//EN" "http://www.w3.org/Graphics/SVG/1.1/DTD/svg11.dtd">
<svg version="1.1" id="Capa_1" xmlns="http://www.w3.org/2000/svg" xmlns:xlink="http://www.w3.org/1999/xlink" x="0px" y="0px"
	 width="512px" height="512px" viewBox="0 0 512 512" enable-background="new 0 0 512 512" xml:space="preserve">
<g>
	<path fill="#FFFFFF" d="M456.784,263.529c-27.017,0-49.548,19.51-54.284,45.177h-92.215c-4.736-25.667-27.268-45.177-54.284-45.177
		s-49.547,19.51-54.284,45.177h-92.215c-4.737-25.667-27.268-45.177-54.284-45.177c-30.446,0-55.216,24.77-55.216,55.216
		s24.77,55.216,55.216,55.216c23.363,0,43.369-14.594,51.42-35.137h97.944c8.051,20.543,28.057,35.137,51.42,35.137
		s43.369-14.594,51.42-35.137h97.944c8.051,20.543,28.057,35.137,51.42,35.137c30.446,0,55.216-24.77,55.216-55.216
		S487.23,263.529,456.784,263.529z M55.216,343.844c-13.839,0-25.098-11.26-25.098-25.099s11.259-25.099,25.098-25.099
		c13.839,0,25.098,11.26,25.098,25.099S69.055,343.844,55.216,343.844z M256,343.844c-13.839,0-25.098-11.26-25.098-25.099
		s11.259-25.099,25.098-25.099s25.098,11.26,25.098,25.099S269.839,343.844,256,343.844z M456.784,343.844
		c-13.839,0-25.098-11.26-25.098-25.099s11.259-25.099,25.098-25.099s25.099,11.26,25.099,25.099S470.623,343.844,456.784,343.844z"
		/>
	<path fill="#FFFFFF" d="M105.412,203.294H75.294V82.824H15.059v30.118h30.118v90.353H15.059v30.118h90.353V203.294z"/>
	<path fill="#FFFFFF" d="M301.176,203.294h-60.234v-16.449l60.234-35.137V82.824h-90.352v30.118h60.235v21.469l-60.235,35.137
		v63.864h90.352V203.294z"/>
	<path fill="#FFFFFF" d="M210.824,399.059h90.352v30.118h-90.352V399.059z"/>
	<path fill="#FFFFFF" d="M496.941,82.824h-90.354v30.118h60.235v30.117h-45.176v30.118h45.176v30.117h-60.235v30.118h90.354V82.824z
		"/>
</g>
</svg>
