<?xml version="1.0" encoding="utf-8"?>
<!-- Generator: Adobe Illustrator 16.0.0, SVG Export Plug-In . SVG Version: 6.00 Build 0)  -->
<!DOCTYPE svg PUBLIC "-//W3C//DTD SVG 1.1//EN" "http://www.w3.org/Graphics/SVG/1.1/DTD/svg11.dtd">
<svg version="1.1" id="Layer_1" xmlns="http://www.w3.org/2000/svg" xmlns:xlink="http://www.w3.org/1999/xlink" x="0px" y="0px"
	 width="512px" height="512px" viewBox="0 0 512 512" enable-background="new 0 0 512 512" xml:space="preserve">
<path fill="#FFFFFF" d="M465.236,28.324H108.122c-7.599,0-13.758,6.24-13.758,13.938V284.73h112.073
	c111.439-112.899,87.637-88.786,119.552-121.108h-62.689c-7.413,0-13.788-5.776-14.129-13.276c-0.361-8.004,5.924-14.6,13.746-14.6
	H359.2c8.119,0,13.759,6.794,13.759,13.938v97.15c0,7.504-5.686,13.958-13.082,14.317c-7.9,0.38-14.432-5.993-14.432-13.921v-63.901
	c-31.907,32.332-8.1,8.213-119.545,121.116v113.537h239.336c7.599,0,13.758-6.24,13.758-13.938V42.262
	C478.994,34.564,472.834,28.324,465.236,28.324z"/>
<path fill="#FFFFFF" d="M106.985,405.196c-5.367-5.443-5.367-14.274,0-19.717l71.935-72.876c-2.69,0-119.047,0-120.912,0
	c-7.599,0-13.758,6.243-13.758,13.938v128.272c0,7.698,6.16,13.938,13.758,13.938h126.616c7.599,0,13.758-6.239,13.758-13.938
	c0-2.881,0-118.612,0-122.493l-71.936,72.876C121.081,410.632,112.357,410.64,106.985,405.196z"/>
</svg>
