<?xml version="1.0" encoding="utf-8"?>
<!-- Generator: Adobe Illustrator 16.0.0, SVG Export Plug-In . SVG Version: 6.00 Build 0)  -->
<!DOCTYPE svg PUBLIC "-//W3C//DTD SVG 1.1//EN" "http://www.w3.org/Graphics/SVG/1.1/DTD/svg11.dtd">
<svg version="1.1" id="Capa_1" xmlns="http://www.w3.org/2000/svg" xmlns:xlink="http://www.w3.org/1999/xlink" x="0px" y="0px"
	 width="512px" height="512px" viewBox="0 0 512 512" enable-background="new 0 0 512 512" xml:space="preserve">
<g>
	<path fill="#FFFFFF" d="M30,30h83.717V0H0v113.717h30V30z"/>
	<path fill="#FFFFFF" d="M30,398.283H0V512h113.717v-30H30V398.283z"/>
	<path fill="#FFFFFF" d="M398.283,0v30H482v83.717h30V0H398.283z"/>
	<path fill="#FFFFFF" d="M482,482h-83.717v30H512V398.283h-30V482z"/>
	<path fill="#FFFFFF" d="M424.813,372.813c0-23.459-15.618-43.332-37-49.785V188.785c21.382-6.455,37-26.326,37-49.785
		c0-28.673-23.327-52-52-52c-23.527,0-43.444,15.71-49.84,37.188H189.027C182.632,102.71,162.715,87,139.188,87
		c-28.673,0-52,23.327-52,52c0,23.459,15.618,43.331,37,49.785v134.242c-21.382,6.455-37,26.326-37,49.785c0,28.673,23.327,52,52,52
		c23.459,0,43.331-15.618,49.785-37h134.054c6.455,21.382,26.326,37,49.785,37C401.485,424.813,424.813,401.485,424.813,372.813
		L424.813,372.813z M323.027,357.813H188.973c-5.02-16.629-18.156-29.766-34.785-34.785V188.785
		c16.567-5.001,29.67-18.056,34.732-34.597h134.16c5.062,16.541,18.165,29.596,34.732,34.597v134.242
		C341.183,328.047,328.047,341.184,323.027,357.813z M372.813,117c12.131,0,22,9.869,22,22s-9.869,22-22,22
		c-12.132,0-22-9.869-22-22S360.681,117,372.813,117z M117.188,139c0-12.131,9.869-22,22-22s22,9.869,22,22s-9.869,22-22,22
		S117.188,151.131,117.188,139z M139.188,394.813c-12.131,0-22-9.869-22-22s9.869-22,22-22s22,9.869,22,22
		S151.319,394.813,139.188,394.813z M372.813,394.813c-12.132,0-22-9.869-22-22s9.868-22,22-22c12.131,0,22,9.869,22,22
		S384.943,394.813,372.813,394.813z"/>
</g>
</svg>
