<?xml version="1.0" encoding="utf-8"?>
<!-- Generator: Adobe Illustrator 16.0.0, SVG Export Plug-In . SVG Version: 6.00 Build 0)  -->
<!DOCTYPE svg PUBLIC "-//W3C//DTD SVG 1.1//EN" "http://www.w3.org/Graphics/SVG/1.1/DTD/svg11.dtd">
<svg version="1.1" id="Layer_1" xmlns="http://www.w3.org/2000/svg" xmlns:xlink="http://www.w3.org/1999/xlink" x="0px" y="0px"
	 width="612px" height="792px" viewBox="0 0 612 792" enable-background="new 0 0 612 792" xml:space="preserve">
<g>
	<polygon fill="#FFFFFF" points="696.5,174.049 696.5,148.277 585.667,148.277 585.667,174.049 628.196,174.049 628.196,607.735 
		585.667,607.735 585.667,633.509 696.5,633.509 696.5,607.735 653.972,607.735 653.972,174.049 	"/>
	<g>
		<path fill="#FFFFFF" d="M-85.593,528.613L44.125,235.718c9.044-20.197,25.519-32.427,47.854-32.427h4.785
			c22.321,0,38.275,12.228,47.31,32.427l129.723,292.895c2.658,5.847,4.256,11.162,4.256,16.479
			c0,21.794-17.014,39.335-38.813,39.335c-19.137,0-31.899-11.161-39.34-28.175l-24.984-58.469H11.17l-26.05,61.129
			c-6.914,15.946-20.732,25.515-37.747,25.515c-21.274,0-37.749-17.009-37.749-38.273C-90.375,540.308-88.251,534.46-85.593,528.613
			z M144.611,425.49L93.039,302.696L41.471,425.49H144.611z"/>
		<path fill="#FFFFFF" d="M316.841,499.377v-1.065c0-62.192,47.317-90.897,114.835-90.897c28.712,0,49.448,4.783,69.65,11.696
			v-4.784c0-33.492-20.737-52.093-61.142-52.093c-22.328,0-40.403,3.188-55.82,7.974c-4.784,1.594-7.978,2.124-11.703,2.124
			c-18.602,0-33.487-14.352-33.487-32.955c0-14.354,9.035-26.58,21.793-31.366c25.518-9.567,53.167-14.883,90.912-14.883
			c44.124,0,76.025,11.693,96.23,31.893c21.264,21.261,30.832,52.628,30.832,90.9v129.701c0,21.798-17.543,38.805-39.343,38.805
			c-23.391,0-38.806-16.478-38.806-33.489v-0.533c-19.671,21.794-46.791,36.146-86.127,36.146
			C360.967,586.554,316.841,555.727,316.841,499.377z M502.383,480.771v-14.353c-13.82-6.377-31.896-10.631-51.566-10.631
			c-34.562,0-55.822,13.822-55.822,39.335v1.063c0,21.796,18.075,34.552,44.124,34.552
			C476.865,530.74,502.383,510.01,502.383,480.771z"/>
	</g>
</g>
</svg>
