<?xml version="1.0" encoding="utf-8"?>
<!-- Generator: Adobe Illustrator 16.0.0, SVG Export Plug-In . SVG Version: 6.00 Build 0)  -->
<!DOCTYPE svg PUBLIC "-//W3C//DTD SVG 1.1//EN" "http://www.w3.org/Graphics/SVG/1.1/DTD/svg11.dtd">
<svg version="1.1" id="Capa_1" xmlns="http://www.w3.org/2000/svg" xmlns:xlink="http://www.w3.org/1999/xlink" x="0px" y="0px"
	 width="612px" height="792px" viewBox="0 0 612 792" enable-background="new 0 0 612 792" xml:space="preserve">
<g>
	<g>
		<g>
			<path fill="#FFFFFF" d="M111.663,245.685l-43.867-43.562C30.676,247.525,6.136,303.664,0,365.324h61.966
				C67.488,320.535,85.282,279.736,111.663,245.685z"/>
			<polygon fill="#FFFFFF" points="243.88,534.045 337.444,463.796 427.939,396 337.444,328.204 243.88,257.955 			"/>
			<path fill="#FFFFFF" d="M274.556,152.734V90.767c-61.66,6.136-117.798,30.678-163.199,67.796l43.561,43.868
				C188.968,176.048,229.769,158.256,274.556,152.734z"/>
			<path fill="#FFFFFF" d="M337.444,90.767v61.966C457.695,168.686,550.646,271.759,550.646,396
				c0,124.24-92.951,227.314-213.204,243.266v61.967C491.747,684.975,612,554.292,612,396S491.747,107.025,337.444,90.767z"/>
			<path fill="#FFFFFF" d="M61.966,426.676H0c6.136,61.66,30.676,117.799,67.796,163.2l43.868-43.868
				C85.282,512.265,67.488,471.465,61.966,426.676z"/>
			<path fill="#FFFFFF" d="M111.356,633.438c45.401,37.118,101.847,61.66,163.199,67.796v-61.966
				c-44.788-5.522-85.588-23.314-119.639-49.696L111.356,633.438z"/>
		</g>
	</g>
</g>
</svg>
