<?xml version="1.0" encoding="utf-8"?>
<!-- Generator: Adobe Illustrator 16.0.0, SVG Export Plug-In . SVG Version: 6.00 Build 0)  -->
<!DOCTYPE svg PUBLIC "-//W3C//DTD SVG 1.1//EN" "http://www.w3.org/Graphics/SVG/1.1/DTD/svg11.dtd">
<svg version="1.1" id="Layer_1" xmlns="http://www.w3.org/2000/svg" xmlns:xlink="http://www.w3.org/1999/xlink" x="0px" y="0px"
	 width="512px" height="512px" viewBox="0 0 512 512" enable-background="new 0 0 512 512" xml:space="preserve">
<path fill="#FFFFFF" d="M8.828,282.484H54.73c12.063,91.066,83.719,162.723,174.785,174.785v45.902
	c0.016,4.871,3.961,8.813,8.828,8.828h35.313c4.867-0.016,8.813-3.957,8.828-8.828V457.27
	c91.066-12.063,162.723-83.719,174.785-174.785h45.902c4.871-0.016,8.813-3.961,8.828-8.828v-35.313
	c-0.016-4.867-3.957-8.813-8.828-8.828H457.27C445.207,138.449,373.551,66.793,282.484,54.73V8.828
	c-0.016-4.871-3.961-8.813-8.828-8.828h-35.313c-4.867,0.016-8.813,3.957-8.828,8.828V54.73
	C138.449,66.793,66.793,138.449,54.73,229.516H8.828c-4.871,0.016-8.813,3.961-8.828,8.828v35.313
	C0.016,278.523,3.957,282.469,8.828,282.484z M256,105.93c82.879,0,150.07,67.191,150.07,150.07S338.879,406.07,256,406.07
	S105.93,338.879,105.93,256C106.047,173.168,173.168,106.047,256,105.93z"/>
<path fill="#FFFFFF" d="M326.621,256c0,39.004-31.617,70.621-70.621,70.621S185.379,295.004,185.379,256
	s31.617-70.621,70.621-70.621S326.621,216.996,326.621,256z"/>
</svg>
