<?xml version="1.0" encoding="utf-8"?>
<!-- Generator: Adobe Illustrator 16.0.0, SVG Export Plug-In . SVG Version: 6.00 Build 0)  -->
<!DOCTYPE svg PUBLIC "-//W3C//DTD SVG 1.1//EN" "http://www.w3.org/Graphics/SVG/1.1/DTD/svg11.dtd">
<svg version="1.1" id="Capa_1" xmlns="http://www.w3.org/2000/svg" xmlns:xlink="http://www.w3.org/1999/xlink" x="0px" y="0px"
	 width="612px" height="792px" viewBox="0 0 612 792" enable-background="new 0 0 612 792" xml:space="preserve">
<g>
	<path fill="#FFFFFF" d="M313.585,169.708c-153.326,0-292.371,81.684-394.97,214.361c-8.374,10.87-8.374,26.055,0,36.926
		c102.599,132.837,241.644,214.521,394.97,214.521s292.37-81.686,394.971-214.361c8.372-10.872,8.372-26.056,0-36.926
		C605.955,251.39,466.911,169.708,313.585,169.708z M324.585,566.618C222.804,572.854,138.754,491.17,145.157,391.9
		c5.253-81.843,73.38-148.182,157.43-153.298c101.78-6.233,185.831,75.45,179.428,174.717
		C476.598,495.006,408.472,561.345,324.585,566.618z M319.496,490.85c-54.832,3.357-100.14-40.603-96.528-93.993
		c2.79-44.12,39.563-79.768,84.872-82.644c54.828-3.356,100.138,40.602,96.526,93.992
		C401.41,452.484,364.639,488.132,319.496,490.85z"/>
</g>
</svg>
