<?xml version="1.0" encoding="utf-8"?>
<!-- Generator: Adobe Illustrator 16.0.0, SVG Export Plug-In . SVG Version: 6.00 Build 0)  -->
<!DOCTYPE svg PUBLIC "-//W3C//DTD SVG 1.1//EN" "http://www.w3.org/Graphics/SVG/1.1/DTD/svg11.dtd">
<svg version="1.1" id="Capa_1" xmlns="http://www.w3.org/2000/svg" xmlns:xlink="http://www.w3.org/1999/xlink" x="0px" y="0px"
	 width="550.801px" height="550.8px" viewBox="0 0 550.801 550.8" enable-background="new 0 0 550.801 550.8" xml:space="preserve">
<g>
	<path fill="#FFFFFF" d="M494.919,70.473H55.881c-17.633,0-31.931,14.332-31.931,32.01v328.108
		c0,17.677,14.297,32.008,31.931,32.008h439.038c17.634,0,31.932-14.331,31.932-32.01V102.483
		C526.851,84.805,512.554,70.473,494.919,70.473z M494.919,102.483v232.803l-62.926-57.354c-9.459-8.619-24.003-8.274-33.041,0.793
		l-63.686,63.835l-125.57-150.368c-9.492-11.364-26.878-11.476-36.512-0.248L55.881,328.612V102.483H494.919z M359.218,186.511
		c0-24.313,19.649-44.015,43.902-44.015c24.252,0,43.904,19.703,43.904,44.015c0,24.312-19.652,44.014-43.904,44.014
		C378.869,230.525,359.218,210.823,359.218,186.511z"/>
</g>
</svg>
