<?xml version="1.0" encoding="utf-8"?>
<!-- Generator: Adobe Illustrator 16.0.0, SVG Export Plug-In . SVG Version: 6.00 Build 0)  -->
<!DOCTYPE svg PUBLIC "-//W3C//DTD SVG 1.1//EN" "http://www.w3.org/Graphics/SVG/1.1/DTD/svg11.dtd">
<svg version="1.1" id="Capa_1" xmlns="http://www.w3.org/2000/svg" xmlns:xlink="http://www.w3.org/1999/xlink" x="0px" y="0px"
	 width="512px" height="512px" viewBox="0 0 512 512" enable-background="new 0 0 512 512" xml:space="preserve">
<path fill="#FFFFFF" d="M448,128c0-35.347,28.653-64,64-64c-35.346,0-64-28.654-64-64c0,35.345-28.654,64-64,64
	C419.345,64,448,92.652,448,128z"/>
<path fill="#FFFFFF" d="M464,192c0,26.509-21.49,48-48,48c26.511,0,48,21.491,48,48c0-26.511,21.491-48,48-48
	C485.489,240,464,218.51,464,192z"/>
<path fill="#FFFFFF" d="M224,192c0-53.02,42.98-96,96-96c-53.02,0-96-42.98-96-96c0,53.02-42.98,96-96,96
	C181.02,96,224,138.981,224,192L224,192z"/>
<path fill="#FFFFFF" d="M352,96L0,448l64,64l352-352L352,96z M297.375,198.625l45.249-45.25l16.001,16l-45.25,45.25L297.375,198.625
	L297.375,198.625z"/>
</svg>
