<?xml version="1.0" encoding="utf-8"?>
<!-- Generator: Adobe Illustrator 16.0.0, SVG Export Plug-In . SVG Version: 6.00 Build 0)  -->
<!DOCTYPE svg PUBLIC "-//W3C//DTD SVG 1.1//EN" "http://www.w3.org/Graphics/SVG/1.1/DTD/svg11.dtd">
<svg version="1.1" id="Capa_1" xmlns="http://www.w3.org/2000/svg" xmlns:xlink="http://www.w3.org/1999/xlink" x="0px" y="0px"
	 width="512px" height="512px" viewBox="0 0 512 512" enable-background="new 0 0 512 512" xml:space="preserve">
<g>
	<path fill="#FFFFFF" d="M448.354,173.656c-9.275-9.583-24.021-10.186-33.992-1.797c-1.443,1.213-0.327,0.145-22.283,22.811
		l56.996,58.837l20.482-20.882c9.903-10.223,9.903-26.857,0-37.082L448.354,173.656z"/>
	<path fill="#FFFFFF" d="M275.199,316.438l-33.525,74.164c-2.259,4.997-1.248,10.916,2.527,14.814
		c3.777,3.899,9.514,4.941,14.352,2.61l71.844-34.611c2.842-1.37-5.764,6.943,100.603-101.486l-56.882-58.721
		C268.657,322.075,276.554,313.444,275.199,316.438L275.199,316.438z"/>
	<path fill="#FFFFFF" d="M351.793,389.525c-3.11,3.171-6.695,5.742-10.655,7.652l-71.844,34.61
		c-14.129,6.807-31.387,4.214-43.053-7.83c-11.287-11.65-14.336-29.511-7.586-44.444l33.527-74.166
		c1.884-4.165,4.436-7.926,7.584-11.176l108.008-111.497V71.581c0-21.688-17.091-39.331-38.101-39.331H81.598
		c-21.009,0-38.101,17.644-38.101,39.331v368.838c0,21.687,17.092,39.331,38.101,39.331h248.075
		c21.01,0,38.101-17.645,38.101-39.331v-67.188L351.793,389.525z M111.232,117.03h189.655c7.015,0,12.7,5.87,12.7,13.11
		s-5.686,13.11-12.7,13.11H111.232c-7.013,0-12.7-5.87-12.7-13.11S104.219,117.03,111.232,117.03z M111.232,186.952h149.016
		c7.014,0,12.699,5.87,12.699,13.11c0,7.24-5.686,13.11-12.699,13.11H111.232c-7.013,0-12.7-5.87-12.7-13.11
		C98.533,192.822,104.219,186.952,111.232,186.952z M98.533,269.984c0-7.24,5.687-13.11,12.7-13.11h108.375
		c7.014,0,12.7,5.87,12.7,13.11s-5.687,13.11-12.7,13.11H111.232C104.219,283.095,98.533,277.225,98.533,269.984z"/>
</g>
</svg>
