<?xml version="1.0" encoding="utf-8"?>
<!-- Generator: Adobe Illustrator 16.0.0, SVG Export Plug-In . SVG Version: 6.00 Build 0)  -->
<!DOCTYPE svg PUBLIC "-//W3C//DTD SVG 1.1//EN" "http://www.w3.org/Graphics/SVG/1.1/DTD/svg11.dtd">
<svg version="1.1" id="Capa_1" xmlns="http://www.w3.org/2000/svg" xmlns:xlink="http://www.w3.org/1999/xlink" x="0px" y="0px"
	 width="612px" height="792px" viewBox="0 0 612 792" enable-background="new 0 0 612 792" xml:space="preserve">
<g>
	<g>
		<path fill="#FFFFFF" d="M454.219,238.219H157.781C70.78,238.219,0,308.999,0,396s70.78,157.781,157.781,157.781h296.438
			C541.22,553.781,612,483.001,612,396S541.22,238.219,454.219,238.219z M157.781,505.969c-60.637,0-109.969-49.332-109.969-109.969
			c0-60.637,49.332-109.969,109.969-109.969h183.41C313.515,314.47,296.438,353.276,296.438,396
			c0,42.724,17.077,81.53,44.754,109.969H157.781z M454.219,505.969c-60.637,0-109.969-49.332-109.969-109.969
			c0-60.637,49.332-109.969,109.969-109.969S564.188,335.363,564.188,396C564.188,456.637,514.855,505.969,454.219,505.969z"/>
	</g>
</g>
</svg>
