<?xml version="1.0" encoding="utf-8"?>
<!-- Generator: Adobe Illustrator 16.0.0, SVG Export Plug-In . SVG Version: 6.00 Build 0)  -->
<!DOCTYPE svg PUBLIC "-//W3C//DTD SVG 1.1//EN" "http://www.w3.org/Graphics/SVG/1.1/DTD/svg11.dtd">
<svg version="1.1" id="Capa_1" xmlns="http://www.w3.org/2000/svg" xmlns:xlink="http://www.w3.org/1999/xlink" x="0px" y="0px"
	 width="960px" height="960px" viewBox="0 0 960 960" enable-background="new 0 0 960 960" xml:space="preserve">
<g>
	<path fill="#FFFFFF" d="M960,201.1V135c0-33.1-26.9-60-60-60h-87.6c-33.102,0-60,26.9-60,60v50.1H900
		C921.4,185.1,942,190.7,960,201.1z"/>
	<path fill="#FFFFFF" d="M370,75H60c-33.1,0-60,26.9-60,60v156.5v15.6V825c0,33.1,26.9,60,60,60h840c33.1,0,60-26.9,60-60V312.6
		v-7.5c0-33.1-26.9-60-60-60H752.4H696.1H483.5H430V135C430,101.9,403.1,75,370,75z"/>
	<path fill="#FFFFFF" d="M638.1,75h-44.6h-44.6c-33.102,0-60,26.9-60,60v50.1h104.6h104.6V135C698.1,101.9,671.3,75,638.1,75z"/>
</g>
</svg>
