<?xml version="1.0" encoding="utf-8"?>
<!-- Generator: Adobe Illustrator 16.0.0, SVG Export Plug-In . SVG Version: 6.00 Build 0)  -->
<!DOCTYPE svg PUBLIC "-//W3C//DTD SVG 1.1//EN" "http://www.w3.org/Graphics/SVG/1.1/DTD/svg11.dtd">
<svg version="1.1" id="Layer_1" focusable="false" xmlns="http://www.w3.org/2000/svg" xmlns:xlink="http://www.w3.org/1999/xlink"
	 x="0px" y="0px" width="612px" height="792px" viewBox="0 0 612 792" enable-background="new 0 0 612 792" xml:space="preserve">
<path fill="#FFFFFF" d="M476.156,367.256L273.544,164.644c-8.608-8.608-20.283-13.444-32.456-13.444H45.9
	C20.55,151.2,0,171.75,0,197.1v195.188c0,12.173,4.836,23.848,13.444,32.456l202.612,202.612c17.924,17.925,46.986,17.926,64.912,0
	l195.188-195.188C494.081,414.243,494.081,385.181,476.156,367.256L476.156,367.256z M107.1,304.2c-25.35,0-45.9-20.55-45.9-45.9
	c0-25.35,20.55-45.9,45.9-45.9s45.9,20.55,45.9,45.9C153,283.65,132.45,304.2,107.1,304.2z M598.556,432.168L403.368,627.356
	c-17.925,17.925-46.987,17.925-64.912,0l-0.345-0.345l166.444-166.443c16.256-16.256,25.207-37.868,25.207-60.856
	c0-22.988-8.952-44.6-25.207-60.855L316.898,151.2h46.59c12.173,0,23.848,4.836,32.456,13.444l202.612,202.612
	C616.481,385.181,616.481,414.243,598.556,432.168L598.556,432.168z"/>
</svg>
