<?xml version="1.0" encoding="utf-8"?>
<!-- Generator: Adobe Illustrator 16.0.0, SVG Export Plug-In . SVG Version: 6.00 Build 0)  -->
<!DOCTYPE svg PUBLIC "-//W3C//DTD SVG 1.1//EN" "http://www.w3.org/Graphics/SVG/1.1/DTD/svg11.dtd">
<svg version="1.1" id="Capa_1" xmlns="http://www.w3.org/2000/svg" xmlns:xlink="http://www.w3.org/1999/xlink" x="0px" y="0px"
	 width="512px" height="512px" viewBox="0 0 512 512" enable-background="new 0 0 512 512" xml:space="preserve">
<g>
	<path fill="#FFFFFF" d="M203.07,216.139h62.678h62.678c6.809,0,12.321-5.534,12.321-12.368v-13.479
		c0-35.349-28.08-65.877-66.341-65.877c20.206-4.039,35.439-21.931,35.439-43.407c0-24.444-19.746-44.257-44.098-44.257
		c-24.351,0-44.098,19.813-44.098,44.257c0,21.476,15.234,39.369,35.439,43.407c-38.21,0-66.341,30.481-66.341,65.877v13.479
		C190.75,210.604,196.263,216.139,203.07,216.139L203.07,216.139z"/>
	<path fill="#FFFFFF" d="M101.132,250.652c0.779,0.142,1.553,0.211,2.317,0.211c6.095,0,11.508-4.368,12.639-10.602
		c3.167-17.466,9.162-34.437,17.818-50.44c8.354-15.443,18.83-29.313,31.137-41.221c5.114-4.947,5.264-13.121,0.333-18.255
		c-4.929-5.133-13.072-5.283-18.186-0.335c-14.204,13.745-26.28,29.723-35.891,47.491c-9.96,18.414-16.864,37.974-20.52,58.138
		C89.509,242.652,94.144,249.375,101.132,250.652L101.132,250.652z"/>
	<path fill="#FFFFFF" d="M397.591,189.82c8.655,16.004,14.651,32.975,17.817,50.44c1.13,6.234,6.543,10.602,12.639,10.602
		c0.764,0,1.539-0.069,2.317-0.211c6.989-1.277,11.623-7.999,10.351-15.014c-3.655-20.164-10.56-39.725-20.52-58.138
		c-9.611-17.768-21.687-33.747-35.891-47.491c-5.113-4.948-13.257-4.797-18.187,0.335c-4.93,5.134-4.778,13.308,0.335,18.256
		C378.761,160.507,389.237,174.376,397.591,189.82z"/>
	<path fill="#FFFFFF" d="M317.708,349.263c-16.591,5.473-34.064,8.278-51.959,8.339c-0.231,0.009-0.472,0.009-0.703,0.009
		c-17.5,0-34.648-2.624-50.948-7.798c-6.774-2.152-13.994,1.617-16.137,8.417c-2.143,6.801,1.612,14.047,8.386,16.198
		c18.812,5.974,38.558,9.002,58.7,9.002h0.703c20.63-0.077,40.805-3.313,59.985-9.639c6.748-2.222,10.426-9.52,8.206-16.294
		C331.728,350.725,324.457,347.032,317.708,349.263L317.708,349.263z"/>
	<path fill="#FFFFFF" d="M129.405,383.525c20.207-4.039,35.441-21.938,35.441-43.408c0-24.442-19.747-44.265-44.097-44.265
		c-24.352,0-44.098,19.822-44.098,44.265c0,21.47,15.235,39.369,35.442,43.408c-38.179,0-66.343,30.45-66.343,65.878v13.479
		c0,6.826,5.514,12.368,12.322,12.368h62.678h62.678c6.808,0,12.321-5.542,12.321-12.368v-13.479
		C195.748,414.124,167.744,383.525,129.405,383.525L129.405,383.525z"/>
	<path fill="#FFFFFF" d="M418.907,383.525c20.206-4.039,35.441-21.938,35.441-43.408c0-24.442-19.747-44.265-44.098-44.265
		c-24.36,0-44.099,19.822-44.099,44.265c0,21.47,15.229,39.369,35.44,43.408c-38.267,0-66.343,30.521-66.343,65.877v13.479
		c0,6.826,5.515,12.368,12.323,12.368h62.677h62.678c6.8,0,12.321-5.542,12.321-12.368v-13.478
		C485.25,414.051,457.167,383.525,418.907,383.525L418.907,383.525z"/>
</g>
</svg>
