<?xml version="1.0" encoding="utf-8"?>
<!-- Generator: Adobe Illustrator 16.0.0, SVG Export Plug-In . SVG Version: 6.00 Build 0)  -->
<!DOCTYPE svg PUBLIC "-//W3C//DTD SVG 1.1//EN" "http://www.w3.org/Graphics/SVG/1.1/DTD/svg11.dtd">
<svg version="1.1" id="Layer_1" xmlns="http://www.w3.org/2000/svg" xmlns:xlink="http://www.w3.org/1999/xlink" x="0px" y="0px"
	 width="512px" height="512px" viewBox="0 0 512 512" enable-background="new 0 0 512 512" xml:space="preserve">
<path fill="#FFFFFF" d="M452,0H60C26.914,0,0,26.914,0,60v212c0,33.086,26.914,60,60,60h392c33.086,0,60-26.914,60-60V60
	C512,26.914,485.086,0,452,0z M472,272c0,11.027-8.973,20-20,20H60c-11.027,0-20-8.973-20-20V60c0-11.027,8.973-20,20-20h392
	c11.027,0,20,8.973,20,20V272z M177,121v131h-40V121H80V81h152v40H177z M217,212h40v40h-40V212z M297,212h40v40h-40V212z M377,212
	h40v40h-40V212z"/>
</svg>
