<?xml version="1.0" encoding="utf-8"?>
<!-- Generator: Adobe Illustrator 16.0.0, SVG Export Plug-In . SVG Version: 6.00 Build 0)  -->
<!DOCTYPE svg PUBLIC "-//W3C//DTD SVG 1.1//EN" "http://www.w3.org/Graphics/SVG/1.1/DTD/svg11.dtd">
<svg version="1.1" id="Capa_1" xmlns="http://www.w3.org/2000/svg" xmlns:xlink="http://www.w3.org/1999/xlink" x="0px" y="0px"
	 width="612px" height="792px" viewBox="0 0 612 792" enable-background="new 0 0 612 792" xml:space="preserve">
<g>
	<g>
		<g>
			<path fill="#FFFFFF" d="M230.702,243.01c-0.025,0.477-0.025,0.953,0,1.43c0.395,7.286,6.622,12.874,13.908,12.479h232.961
				c0.477,0.025,0.953,0.025,1.43,0c7.286-0.395,12.874-6.622,12.479-13.908V103.928c0.025-0.477,0.025-0.953,0-1.43
				c-0.396-7.286-6.622-12.874-13.908-12.479H244.61c-0.477-0.025-0.953-0.025-1.43,0c-7.286,0.395-12.874,6.622-12.479,13.908
				V243.01z M258.518,117.836h205.145v111.266H258.518V117.836z"/>
			<path fill="#FFFFFF" d="M561.021,465.54V326.458c0.025-0.477,0.025-0.953,0-1.43c-0.395-7.286-6.622-12.874-13.908-12.479H244.61
				c-0.477-0.025-0.953-0.025-1.43,0c-7.286,0.396-12.874,6.622-12.479,13.909V465.54c-0.025,0.477-0.025,0.953,0,1.43
				c0.395,7.286,6.622,12.874,13.908,12.479h302.502c0.477,0.025,0.953,0.025,1.43,0
				C555.829,479.055,561.416,472.826,561.021,465.54z M533.205,451.632H258.518V340.366h274.686L533.205,451.632L533.205,451.632z"
				/>
			<path fill="#FFFFFF" d="M491.48,548.989c0.025-0.476,0.025-0.952,0-1.429c-0.395-7.287-6.622-12.874-13.908-12.479H244.611
				c-0.477-0.024-0.953-0.024-1.429,0c-7.287,0.396-12.874,6.622-12.479,13.908v139.083c-0.025,0.477-0.025,0.952,0,1.429
				c0.396,7.286,6.622,12.874,13.908,12.479h232.961c0.477,0.025,0.953,0.025,1.43,0c7.286-0.396,12.874-6.622,12.479-13.908
				V548.989z M463.664,674.164H258.518V562.897h205.145L463.664,674.164L463.664,674.164z"/>
			<path fill="#FFFFFF" d="M172.217,151.98c-7.297-32.606-39.646-53.125-72.252-45.827c-27.614,6.179-47.255,30.674-47.288,58.97
				c-0.709,28.112,18.485,52.833,45.897,59.109V336.89c-32.646,7.124-53.335,39.362-46.212,72.008
				c5.043,23.113,23.098,41.168,46.212,46.212v112.656c-27.412,6.277-46.607,30.998-45.897,59.109
				c0.039,33.414,27.156,60.47,60.569,60.432c33.414-0.039,60.47-27.156,60.432-60.57c-0.032-28.297-19.674-52.791-47.287-58.971
				V455.109c27.537-6.235,46.961-30.88,46.592-59.11c0.369-28.232-19.056-52.875-46.592-59.11V224.233
				C158.998,216.936,179.516,184.587,172.217,151.98z M146.557,626.875c-0.378,18.162-15.212,32.688-33.38,32.685
				c-18.051,0-32.684-14.634-32.684-32.685s14.633-32.684,32.684-32.684C131.345,594.188,146.179,608.713,146.557,626.875z
				 M145.882,395.979c0.012,18.051-14.612,32.693-32.663,32.705c-0.013,0-0.028,0-0.042,0
				c-17.779-0.378-31.993-14.901-31.989-32.684c-0.004-17.783,14.21-32.306,31.989-32.685
				C131.229,363.305,145.872,377.928,145.882,395.979z M113.177,197.808c-17.779-0.378-31.992-14.901-31.988-32.684
				c-0.004-17.783,14.21-32.306,31.989-32.684c18.167-0.004,33.001,14.522,33.38,32.684
				C146.179,183.287,131.345,197.812,113.177,197.808z"/>
			<path fill="#FFFFFF" d="M286.334,166.515h79.972c7.682,0,13.908-6.227,13.908-13.908c0-7.682-6.227-13.908-13.908-13.908h-79.972
				c-7.682,0-13.908,6.227-13.908,13.908C272.426,160.288,278.653,166.515,286.334,166.515z"/>
			<path fill="#FFFFFF" d="M435.848,180.423H286.334c-7.682,0-13.908,6.227-13.908,13.908s6.227,13.908,13.908,13.908h149.513
				c7.682,0,13.908-6.227,13.908-13.908S443.529,180.423,435.848,180.423z"/>
			<path fill="#FFFFFF" d="M286.334,389.046h79.972c7.682,0,13.908-6.227,13.908-13.908s-6.227-13.908-13.908-13.908h-79.972
				c-7.682,0-13.908,6.227-13.908,13.908S278.653,389.046,286.334,389.046z"/>
			<path fill="#FFFFFF" d="M286.334,430.771h149.513c7.682,0,13.908-6.227,13.908-13.908s-6.227-13.908-13.908-13.908H286.334
				c-7.682,0-13.908,6.227-13.908,13.908S278.653,430.771,286.334,430.771z"/>
			<path fill="#FFFFFF" d="M286.334,611.577h79.972c7.682,0,13.908-6.227,13.908-13.908s-6.227-13.908-13.908-13.908h-79.972
				c-7.682,0-13.908,6.227-13.908,13.908S278.653,611.577,286.334,611.577z"/>
			<path fill="#FFFFFF" d="M286.334,653.301h149.513c7.682,0,13.908-6.227,13.908-13.908s-6.227-13.908-13.908-13.908H286.334
				c-7.682,0-13.908,6.227-13.908,13.908S278.653,653.301,286.334,653.301z"/>
		</g>
	</g>
</g>
</svg>
