<?xml version="1.0" encoding="utf-8"?>
<!-- Generator: Adobe Illustrator 16.0.0, SVG Export Plug-In . SVG Version: 6.00 Build 0)  -->
<!DOCTYPE svg PUBLIC "-//W3C//DTD SVG 1.1//EN" "http://www.w3.org/Graphics/SVG/1.1/DTD/svg11.dtd">
<svg version="1.1" id="Layer_1" focusable="false" xmlns="http://www.w3.org/2000/svg" xmlns:xlink="http://www.w3.org/1999/xlink"
	 x="0px" y="0px" width="612px" height="792px" viewBox="0 0 612 792" enable-background="new 0 0 612 792" xml:space="preserve">
<path fill="#FFFFFF" d="M590.143,461.571c0,156.962-127.181,284.143-284.143,284.143c-156.961,0-284.143-127.181-284.143-284.143
	c0-142.071,104.231-259.827,240.429-280.728v-47.129h-38.25c-9.016,0-16.393-7.377-16.393-16.393V62.679
	c0-9.016,7.376-16.393,16.393-16.393h163.928c9.017,0,16.394,7.377,16.394,16.393v54.643c0,9.016-7.377,16.393-16.394,16.393h-38.25
	v47.129c51.229,7.923,97.948,29.507,136.198,60.927l37.566-37.567c6.421-6.42,16.803-6.42,23.224,0l38.659,38.66
	c6.421,6.421,6.421,16.803,0,23.223l-40.162,40.163l-0.819,0.82C573.34,351.33,590.143,404.47,590.143,461.571z M349.714,510.75
	V303.79c0-9.016-7.376-16.393-16.393-16.393h-54.643c-9.016,0-16.393,7.376-16.393,16.393v206.96
	c0,9.016,7.377,16.393,16.393,16.393h54.643C342.338,527.143,349.714,519.766,349.714,510.75z"/>
</svg>
