<?xml version="1.0" encoding="utf-8"?>
<!-- Generator: Adobe Illustrator 16.0.0, SVG Export Plug-In . SVG Version: 6.00 Build 0)  -->
<!DOCTYPE svg PUBLIC "-//W3C//DTD SVG 1.1//EN" "http://www.w3.org/Graphics/SVG/1.1/DTD/svg11.dtd">
<svg version="1.1" id="Layer_1" focusable="false" xmlns="http://www.w3.org/2000/svg" xmlns:xlink="http://www.w3.org/1999/xlink"
	 x="0px" y="0px" width="612px" height="792px" viewBox="0 0 612 792" enable-background="new 0 0 612 792" xml:space="preserve">
<path fill="#FFFFFF" d="M306,99.563C142.242,99.563,9.563,232.242,9.563,396S142.242,692.438,306,692.438
	S602.438,559.758,602.438,396S469.758,99.563,306,99.563z M416.555,473.695L416.555,473.695l-23.906,29.883
	c-6.598,8.248-18.633,9.587-26.881,2.989c-0.001,0-0.002-0.001-0.002-0.001l0,0l-80.086-59.431
	c-11.335-9.075-17.932-22.81-17.93-37.33V223.875c0-10.563,8.563-19.125,19.125-19.125h38.25c10.563,0,19.125,8.563,19.125,19.125
	V396l69.328,50.801c8.248,6.599,9.585,18.634,2.986,26.882C416.562,473.687,416.558,473.691,416.555,473.695z"/>
</svg>
