<?xml version="1.0" encoding="utf-8"?>
<!-- Generator: Adobe Illustrator 16.0.0, SVG Export Plug-In . SVG Version: 6.00 Build 0)  -->
<!DOCTYPE svg PUBLIC "-//W3C//DTD SVG 1.1//EN" "http://www.w3.org/Graphics/SVG/1.1/DTD/svg11.dtd">
<svg version="1.1" id="Capa_1" xmlns="http://www.w3.org/2000/svg" xmlns:xlink="http://www.w3.org/1999/xlink" x="0px" y="0px"
	 width="487.295px" height="487.295px" viewBox="0 0 487.295 487.295" enable-background="new 0 0 487.295 487.295"
	 xml:space="preserve">
<g>
	<path fill="#FFFFFF" d="M339.689,151.639H83.808c-13.118,0-23.785,10.206-23.785,22.752v244.577
		c0,12.549,10.667,22.754,23.785,22.754h255.882c13.113,0,23.783-10.205,23.783-22.754V174.386
		C363.473,161.84,352.802,151.639,339.689,151.639z M323.573,177.536c5.625,0,10.185,4.365,10.185,9.747
		c0,5.389-4.565,9.752-10.185,9.752c-5.634,0-10.194-4.363-10.194-9.752C313.379,181.901,317.939,177.536,323.573,177.536z
		 M287.055,177.536c5.635,0,10.188,4.365,10.188,9.747c0,5.389-4.559,9.752-10.188,9.752c-5.625,0-10.185-4.363-10.185-9.752
		C276.87,181.901,281.43,177.536,287.055,177.536z M336.3,415.712H87.202V221.246h249.087v194.466H336.3z M403.493,45.574H147.605
		c-13.115,0-23.779,10.204-23.779,22.752v66.908h27.171v-20.05h249.095v194.468h-8.829v26.004h12.225
		c13.111,0,23.783-10.211,23.783-22.75V68.321C427.276,55.773,416.604,45.574,403.493,45.574z M350.862,90.971
		c-5.634,0-10.188-4.365-10.188-9.748c0-5.384,4.559-9.75,10.188-9.75c5.625,0,10.185,4.365,10.185,9.75
		C361.047,86.605,356.487,90.971,350.862,90.971z M387.377,90.971c-5.641,0-10.193-4.365-10.193-9.748
		c0-5.384,4.564-9.75,10.193-9.75c5.624,0,10.18,4.365,10.18,9.75C397.566,86.605,393.003,90.971,387.377,90.971z"/>
</g>
</svg>
