<?xml version="1.0" encoding="utf-8"?>
<!-- Generator: Adobe Illustrator 16.0.0, SVG Export Plug-In . SVG Version: 6.00 Build 0)  -->
<!DOCTYPE svg PUBLIC "-//W3C//DTD SVG 1.1//EN" "http://www.w3.org/Graphics/SVG/1.1/DTD/svg11.dtd">
<svg version="1.1" id="Layer_1" focusable="false" xmlns="http://www.w3.org/2000/svg" xmlns:xlink="http://www.w3.org/1999/xlink"
	 x="0px" y="0px" width="612px" height="792px" viewBox="0 0 612 792" enable-background="new 0 0 612 792" xml:space="preserve">
<path fill="#FFFFFF" d="M306,128.25c-169.017,0-306,111.284-306,248.625c0,59.287,25.58,113.555,68.133,156.228
	C53.191,593.346,3.228,647.016,2.63,647.613c-2.63,2.749-3.347,6.813-1.793,10.399c1.554,3.586,4.9,5.737,8.726,5.737
	c79.249,0,138.656-38.011,168.061-61.439C216.71,617.014,260.1,625.5,306,625.5c169.018,0,306-111.283,306-248.625
	C612,239.534,475.018,128.25,306,128.25z"/>
</svg>
