<?xml version="1.0" encoding="utf-8"?>
<!-- Generator: Adobe Illustrator 16.0.0, SVG Export Plug-In . SVG Version: 6.00 Build 0)  -->
<!DOCTYPE svg PUBLIC "-//W3C//DTD SVG 1.1//EN" "http://www.w3.org/Graphics/SVG/1.1/DTD/svg11.dtd">
<svg version="1.1" id="Capa_1" xmlns="http://www.w3.org/2000/svg" xmlns:xlink="http://www.w3.org/1999/xlink" x="0px" y="0px"
	 width="512px" height="512px" viewBox="0 0 512 512" enable-background="new 0 0 512 512" xml:space="preserve">
<g>
	<path fill="#FFFFFF" d="M44.25,355.418c0,13.285,11.109,24.053,24.814,24.053h373.871c13.705,0,24.814-10.768,24.814-24.053
		v-24.053H44.25V355.418z"/>
	<path fill="#FFFFFF" d="M243.593,142.952h24.814v56.123h-24.814V142.952z"/>
	<path fill="#FFFFFF" d="M342.851,175.022h24.814v24.053h-24.814V175.022z"/>
	<path fill="#FFFFFF" d="M144.335,110.882h24.814v88.193h-24.814V110.882z"/>
	<path fill="#FFFFFF" d="M442.936,50.75H69.064c-13.705,0-24.814,10.769-24.814,24.053v232.51h423.5V74.803
		C467.75,61.519,456.641,50.75,442.936,50.75z M318.036,162.996c0-6.643,5.555-12.026,12.407-12.026h49.629
		c6.853,0,12.407,5.384,12.407,12.026v48.105c0,6.643-5.555,12.026-12.407,12.026h-49.629c-6.853,0-12.407-5.384-12.407-12.026
		V162.996z M218.778,130.926c0-6.643,5.555-12.026,12.407-12.026h49.629c6.853,0,12.407,5.384,12.407,12.026v80.176
		c0,6.643-5.555,12.026-12.407,12.026h-49.629c-6.852,0-12.407-5.384-12.407-12.026V130.926z M119.521,98.855
		c0-6.643,5.555-12.026,12.407-12.026h49.629c6.852,0,12.407,5.384,12.407,12.026v112.246c0,6.643-5.555,12.026-12.407,12.026
		h-49.629c-6.852,0-12.407-5.384-12.407-12.026V98.855z M404.887,271.233H107.113c-6.852,0-12.407-5.384-12.407-12.026
		s5.555-12.026,12.407-12.026h297.773c6.853,0,12.407,5.384,12.407,12.026S411.739,271.233,404.887,271.233z"/>
	<path fill="#FFFFFF" d="M333.784,421.63l-7.477-2.071c-9.474-2.623-17.315-8.442-22.44-16.035h-95.735
		c-5.123,7.593-12.965,13.412-22.439,16.035l-7.477,2.071c-12.711,3.52-21.474,14.78-21.474,27.594
		c0,6.643,5.555,12.026,12.407,12.026h173.701c6.853,0,12.407-5.384,12.407-12.026C355.258,436.41,346.495,425.149,333.784,421.63z"
		/>
</g>
</svg>
