<?xml version="1.0" encoding="utf-8"?>
<!-- Generator: Adobe Illustrator 16.0.0, SVG Export Plug-In . SVG Version: 6.00 Build 0)  -->
<!DOCTYPE svg PUBLIC "-//W3C//DTD SVG 1.1//EN" "http://www.w3.org/Graphics/SVG/1.1/DTD/svg11.dtd">
<svg version="1.1" id="Layer_1" focusable="false" xmlns="http://www.w3.org/2000/svg" xmlns:xlink="http://www.w3.org/1999/xlink"
	 x="0px" y="0px" width="612px" height="792px" viewBox="0 0 612 792" enable-background="new 0 0 612 792" xml:space="preserve">
<path fill="#FFFFFF" d="M602.438,396c0,163.754-132.731,296.438-296.438,296.438C142.293,692.438,9.563,559.754,9.563,396
	C9.563,232.341,142.293,99.563,306,99.563C469.706,99.563,602.438,232.341,602.438,396z M313.955,197.578
	c-65.141,0-106.688,27.441-139.313,76.211c-4.227,6.318-2.813,14.84,3.246,19.433l41.476,31.449
	c6.222,4.718,15.086,3.596,19.92-2.537c21.353-27.083,35.995-42.789,68.495-42.789c24.419,0,54.624,15.716,54.624,39.396
	c0,17.901-14.778,27.094-38.889,40.612c-28.119,15.763-65.326,35.381-65.326,84.459v4.781c0,7.921,6.422,14.344,14.344,14.344
	h66.938c7.921,0,14.344-6.423,14.344-14.344V447c0-34.021,99.434-35.438,99.434-127.5
	C453.246,250.169,381.33,197.578,313.955,197.578z M306,494.016c-30.319,0-54.984,24.665-54.984,54.984
	c0,30.318,24.665,54.984,54.984,54.984s54.984-24.666,54.984-54.984C360.984,518.681,336.319,494.016,306,494.016z"/>
</svg>
