<?xml version="1.0" encoding="utf-8"?>
<!-- Generator: Adobe Illustrator 16.0.0, SVG Export Plug-In . SVG Version: 6.00 Build 0)  -->
<!DOCTYPE svg PUBLIC "-//W3C//DTD SVG 1.1//EN" "http://www.w3.org/Graphics/SVG/1.1/DTD/svg11.dtd">
<svg version="1.1" id="Layer_1" focusable="false" xmlns="http://www.w3.org/2000/svg" xmlns:xlink="http://www.w3.org/1999/xlink"
	 x="0px" y="0px" width="612px" height="792px" viewBox="0 0 612 792" enable-background="new 0 0 612 792" xml:space="preserve">
<path fill="#FFFFFF" d="M353.813,549h-95.625c-15.897,0-28.688-12.79-28.688-28.688V319.5H124.671
	c-21.276,0-31.915-25.699-16.854-40.76L289.624,96.813c8.965-8.965,23.667-8.965,32.632,0L504.183,278.74
	c15.062,15.061,4.423,40.76-16.854,40.76H382.5v200.813C382.5,536.21,369.71,549,353.813,549z M612,539.438v133.875
	C612,689.21,599.21,702,583.313,702H28.688C12.79,702,0,689.21,0,673.313V539.438c0-15.897,12.79-28.688,28.688-28.688H191.25v9.563
	c0,36.936,30.002,66.938,66.938,66.938h95.625c36.936,0,66.938-30.002,66.938-66.938v-9.563h162.563
	C599.21,510.75,612,523.54,612,539.438z M463.781,644.625c0-13.148-10.758-23.906-23.906-23.906s-23.906,10.758-23.906,23.906
	s10.758,23.906,23.906,23.906S463.781,657.773,463.781,644.625z M540.281,644.625c0-13.148-10.758-23.906-23.906-23.906
	s-23.906,10.758-23.906,23.906s10.758,23.906,23.906,23.906S540.281,657.773,540.281,644.625z"/>
</svg>
