<?xml version="1.0" encoding="utf-8"?>
<!-- Generator: Adobe Illustrator 16.0.0, SVG Export Plug-In . SVG Version: 6.00 Build 0)  -->
<!DOCTYPE svg PUBLIC "-//W3C//DTD SVG 1.1//EN" "http://www.w3.org/Graphics/SVG/1.1/DTD/svg11.dtd">
<svg version="1.1" id="Capa_1" xmlns="http://www.w3.org/2000/svg" xmlns:xlink="http://www.w3.org/1999/xlink" x="0px" y="0px"
	 width="612px" height="792px" viewBox="0 0 612 792" enable-background="new 0 0 612 792" xml:space="preserve">
<g>
	<path fill="#FFFFFF" d="M541.385,137.077H70.615C31.636,137.077,0,168.689,0,207.692v376.615c0,38.979,31.636,70.615,70.615,70.615
		h470.77c38.979,0,70.615-31.636,70.615-70.615V207.692C612,168.689,580.364,137.077,541.385,137.077z M564.923,584.308
		c0,12.97-10.568,23.538-23.538,23.538H70.615c-12.97,0-23.538-10.568-23.538-23.538V254.769h517.846V584.308z"/>
	<path fill="#FFFFFF" d="M456.693,424.6c0,24.221-2.942,45.335-8.804,63.342c-3.46,10.663-10.922,27.305-22.008,49.289h27.445
		c12.853-20.479,21.727-36.555,26.104-47.642c7.885-19.442,11.816-41.569,11.816-66.354c0-9.463-0.848-19.302-2.566-29.541
		c-1.718-10.216-4.59-20.573-8.614-31.024c-3.178-8.45-6.144-15.112-8.851-19.937c-1.624-2.848-5.272-8.874-10.498-17.324h-28.388
		c6.497,13.299,11.346,24.362,14.193,32.742C453.304,378.229,456.693,400.401,456.693,424.6z"/>
	<path fill="#FFFFFF" d="M154.483,424.6c0,24.221,2.942,45.335,8.803,63.342c3.46,10.663,10.898,27.305,21.985,49.289h-27.446
		c-12.852-20.479-21.726-36.555-26.104-47.642c-7.885-19.442-11.816-41.569-11.816-66.354c0-9.463,0.848-19.302,2.566-29.541
		c1.718-10.216,4.59-20.573,8.615-31.024c3.177-8.45,6.144-15.112,8.85-19.937c1.648-2.872,5.273-8.897,10.522-17.348h28.387
		c-6.497,13.299-11.346,24.362-14.194,32.742C157.873,378.229,154.483,400.401,154.483,424.6z"/>
	<g>
		<path fill="#FFFFFF" d="M400.86,374.533c0,8.898-2.825,15.983-8.498,21.232s-12.593,7.886-20.761,7.886
			c-4.896,0-9.722-0.612-14.476-1.836c-4.731-1.225-8.851-2.448-12.335-3.673c-1.624,1.13-4.024,3.578-7.179,7.368
			c-3.178,3.789-6.732,8.38-10.733,13.793c3.648,15.653,6.614,26.764,8.874,33.354c2.235,6.567,4.378,13.252,6.402,20.008
			c1.741,5.366,4.308,9.58,7.649,12.616c3.39,3.036,8.687,4.543,15.959,4.543c2.66,0,5.979-0.494,9.957-1.53
			c4.002-1.012,7.273-2.048,9.815-3.06l-3.39,13.864c-10.121,4.331-18.948,7.462-26.48,9.392c-7.556,1.978-14.288,2.942-20.22,2.942
			c-4.308,0-8.521-0.424-12.734-1.224c-4.189-0.824-8.026-2.307-11.463-4.449c-3.767-2.26-6.967-5.061-9.58-8.403
			c-2.589-3.39-4.825-8.097-6.662-14.123c-1.248-3.766-2.377-8.073-3.389-12.875c-1.036-4.802-2.072-9.063-3.107-12.734
			c-2.966,4.425-5.107,7.673-6.426,9.815c-1.342,2.165-3.272,5.178-5.814,9.063c-8.074,12.357-15.088,21.161-21.02,26.434
			s-13.04,7.885-21.302,7.885c-6.238,0-11.534-2.095-15.936-6.284c-4.402-4.19-6.591-9.651-6.591-16.383
			c0-9.109,2.825-16.266,8.498-21.562c5.696-5.249,12.617-7.886,20.832-7.886c4.896,0,9.604,0.589,14.123,1.766
			s8.756,2.472,12.734,3.907c1.53-1.247,3.931-3.625,7.156-7.226c3.225-3.555,6.708-8.004,10.498-13.323
			c-3.413-13.676-6.167-24.009-8.333-30.953c-2.189-6.943-4.378-13.841-6.638-20.69c-1.836-5.461-4.496-9.698-7.979-12.664
			c-3.46-3.013-8.686-4.496-15.629-4.496c-3.083,0-6.497,0.541-10.286,1.601c-3.79,1.083-6.944,2.071-9.486,2.989l3.366-13.864
			c9.204-4.119,17.889-7.226,26.104-9.274c8.239-2.071,15.112-3.083,20.62-3.083c5.014,0,9.298,0.376,12.875,1.083
			c3.555,0.706,7.344,2.236,11.299,4.59c3.672,2.236,6.873,5.084,9.58,8.497s4.943,8.097,6.661,14.029
			c1.271,4.096,2.401,8.333,3.437,12.711c1.036,4.425,1.907,8.191,2.637,11.345c2.142-3.271,4.378-6.638,6.661-10.121
			c2.283-3.484,4.261-6.544,5.885-9.204c7.886-12.358,14.924-21.232,21.161-26.599c6.214-5.39,13.252-8.05,21.114-8.05
			c6.426,0,11.792,2.118,16.1,6.355C398.718,362.293,400.86,367.801,400.86,374.533z"/>
	</g>
</g>
</svg>
