<?xml version="1.0" encoding="utf-8"?>
<!-- Generator: Adobe Illustrator 16.0.0, SVG Export Plug-In . SVG Version: 6.00 Build 0)  -->
<!DOCTYPE svg PUBLIC "-//W3C//DTD SVG 1.1//EN" "http://www.w3.org/Graphics/SVG/1.1/DTD/svg11.dtd">
<svg version="1.1" id="Layer_1" xmlns="http://www.w3.org/2000/svg" xmlns:xlink="http://www.w3.org/1999/xlink" x="0px" y="0px"
	 width="256px" height="193px" viewBox="0 0 256 193" enable-background="new 0 0 256 193" xml:space="preserve">
<path fill="#FFFFFF" d="M192.439,144.645h31.781V68.339l-35.806-35.804l-22.472,22.472l26.496,26.497V144.645L192.439,144.645z
	 M224.305,160.576H113.452L86.954,134.08l11.237-11.236l21.885,21.885h45.027l-44.356-44.44l11.319-11.32l44.357,44.358v-45.03
	l-21.801-21.801l11.152-11.153L110.685,0H0l31.696,31.696v0.084h65.74l23.227,23.227l-33.96,33.96L63.476,65.74V47.712h-31.78
	v31.193l55.007,55.007L64.314,156.3l35.805,35.806H256L224.305,160.576L224.305,160.576z"/>
</svg>
