<?xml version="1.0" encoding="utf-8"?>
<!-- Generator: Adobe Illustrator 16.0.0, SVG Export Plug-In . SVG Version: 6.00 Build 0)  -->
<!DOCTYPE svg PUBLIC "-//W3C//DTD SVG 1.1//EN" "http://www.w3.org/Graphics/SVG/1.1/DTD/svg11.dtd">
<svg version="1.1" id="Capa_1" xmlns="http://www.w3.org/2000/svg" xmlns:xlink="http://www.w3.org/1999/xlink" x="0px" y="0px"
	 width="512px" height="512px" viewBox="0 0 512 512" enable-background="new 0 0 512 512" xml:space="preserve">
<g>
	<path fill="#FFFFFF" d="M127.063,130.492c7.393,0,13.375-6.191,13.375-13.843c0-38.163,30.002-69.214,66.875-69.214
		s66.875,31.051,66.875,69.214c0,7.651,5.982,13.843,13.375,13.843s13.375-6.191,13.375-13.843
		c0-53.425-42.006-96.899-93.625-96.899c-51.62,0-93.625,43.475-93.625,96.899C113.688,124.301,119.67,130.492,127.063,130.492z"/>
	<path fill="#FFFFFF" d="M167.893,490.79c1.855,0.96,3.906,1.46,5.982,1.46h214c3.553,0,6.948-1.46,9.456-4.056
		C416.819,468.025,428,439.174,428,410.649c0-8.4,0-156.464,0-147.728c0-11.468-8.982-20.765-20.063-20.765
		s-20.063,9.297-20.063,20.765c0,3.161,0,51.292,0,48.449c0,7.646-5.988,13.843-13.375,13.843s-13.375-6.197-13.375-13.843
		c0-8.482,0-78.923,0-76.135c0-11.467-8.982-20.764-20.063-20.764S321,223.769,321,235.236c0,4.944,0,79.552,0,76.135
		c0,7.646-5.988,13.843-13.375,13.843s-13.375-6.197-13.375-13.843c0-3.792,0-108.278,0-103.821
		c0-11.467-8.982-20.764-20.063-20.764s-20.063,9.297-20.063,20.764c0,8.65,0,108.622,0,103.821c0,7.646-5.988,13.843-13.375,13.843
		s-13.375-6.197-13.375-13.843c0-5.396,0-226.615,0-215.486c0-11.467-8.983-20.764-20.063-20.764s-20.063,9.297-20.063,20.764
		c0,7.651,0,278.76,0,270.857c0,7.646-5.988,13.843-13.375,13.843s-13.375-6.197-13.375-13.843c0-5.944,0-72.872,0-69.214
		c0-15.29-11.976-27.686-26.75-27.686S107,282.238,107,297.528c0,8.284,0,95.045,0,90.356
		C107,431.347,130.328,471.351,167.893,490.79z"/>
</g>
</svg>
