<?xml version="1.0" encoding="utf-8"?>
<!-- Generator: Adobe Illustrator 16.0.0, SVG Export Plug-In . SVG Version: 6.00 Build 0)  -->
<!DOCTYPE svg PUBLIC "-//W3C//DTD SVG 1.1//EN" "http://www.w3.org/Graphics/SVG/1.1/DTD/svg11.dtd">
<svg version="1.1" id="Layer_1" focusable="false" xmlns="http://www.w3.org/2000/svg" xmlns:xlink="http://www.w3.org/1999/xlink"
	 x="0px" y="0px" width="612px" height="792px" viewBox="0 0 612 792" enable-background="new 0 0 612 792" xml:space="preserve">
<path fill="#FFFFFF" d="M612,149.014v494.108c0,33.196-25.955,59.015-59.015,59.015H59.014C26.365,702,0,676.591,0,642.985V149.014
	C0,116.092,25.682,90,59.014,90h494.108C585.908,90,612,115.682,612,149.014L612,149.014z M71.719,140.955H59.014
	c-4.371,0-7.923,3.825-7.923,7.923v494.107c0,4.099,3.552,7.924,7.923,7.924h494.108c4.372,0.137,7.924-3.688,7.924-7.924V149.014
	c0-4.098-3.552-7.923-7.924-7.923h-12.704 M205.184,300.375v50.544H104.778v-50.544H205.184z M205.184,402.011v50.954H104.778
	v-50.954H205.184z M507.223,300.375v50.544h-267.75v-50.544H507.223z M507.223,402.011v50.954h-267.75v-50.954H507.223z
	 M507.223,503.92v50.954H371.435V503.92H507.223z"/>
</svg>
