<?xml version="1.0" encoding="utf-8"?>
<!-- Generator: Adobe Illustrator 21.0.0, SVG Export Plug-In . SVG Version: 6.00 Build 0)  -->
<svg version="1.1" id="Layer_1" xmlns="http://www.w3.org/2000/svg" xmlns:xlink="http://www.w3.org/1999/xlink" x="0px" y="0px"
	 viewBox="0 0 100 100" style="enable-background:new 0 0 100 100;" xml:space="preserve">
<g>
	<path d="M36.5,56.8c-3.9,0.3-7.4,1.9-9.1,3.9c-0.8,0.9-1.7,2.7-1.7,4.3c0,1.3,0.4,2.4,0.8,3.3c1.5,2.7,5,4.4,8.7,4.6
		c5,0.3,10.4-2,12.1-5.9c0.6-1.4,0.7-3.5,0-5C45.8,58.6,41.3,56.4,36.5,56.8z"/>
	<path d="M40,28.5c-1.3-1.3-3.1-2.5-5.5-2.2c-3.9,0.5-5.8,4.9-5.1,9.7c0.5,3.3,2.9,7.2,5.7,8.5c1,0.4,2.4,0.7,3.6,0.4
		c3.2-0.8,4.9-4.7,4.5-8.7C43.1,33.4,41.7,30.2,40,28.5z"/>
	<path d="M50,0C22.4,0,0,22.4,0,50s22.4,50,50,50s50-22.4,50-50S77.6,0,50,0z M47.1,26.9c0.9,0.6,1.9,1.7,2.4,2.8
		c0.7,1.8,0.7,3.8,0.7,5.8c0,5.1-2.8,7.3-5.5,9.7c-1.1,1-2.1,1.8-2.1,3c0,1.3,1.3,2.3,2.2,3.1c2.8,2.4,6,4.5,7.4,8.3
		c0.3,0.9,0.5,2.1,0.5,3.3c0,8.2-5.7,11.9-12.5,13.1c-8,1.4-16.2-0.2-19.3-5.3c-0.8-1.3-1.2-2.5-1.3-4.2c-0.6-9.5,9.2-11.8,18.3-12
		c-0.2-0.8-0.2-1.2-0.7-1.8c-0.4-0.5-1.1-0.7-1.3-1.3c-0.3-1,0.2-2.1,0-3.5c-8.7,0.4-13.7-4.4-13-12.5c0.6-7.6,6.5-11,14.1-11.8
		c4.5-0.5,10.3,0.2,15.6-0.1C52,26,47.7,24.8,45.9,26C46.3,26.6,46.7,26.7,47.1,26.9z M80.3,36.9c-3.4,0-6.8,0-10.3,0
		c0,3.3,0,7.2,0,10.2c-0.8,0.2-2.1,0-3.1,0.1c0-3.4,0-6.8,0-10.3c-3.4,0-6.8,0-10.3,0c0.1-1-0.1-2.2,0.1-3.1c3.4,0,6.8,0,10.2,0
		c0.1-3.4-0.1-7,0.1-10.3c1,0,1.9,0,2.9,0c0.2,3.2,0,6.9,0.1,10.3c3.4,0,6.8,0,10.2,0C80.4,34.7,80.3,35.9,80.3,36.9z"/>
</g>
</svg>
