<?xml version="1.0" encoding="utf-8"?>
<!-- Generator: Adobe Illustrator 21.0.0, SVG Export Plug-In . SVG Version: 6.00 Build 0)  -->
<svg version="1.1" id="Layer_1" xmlns="http://www.w3.org/2000/svg" xmlns:xlink="http://www.w3.org/1999/xlink" x="0px" y="0px"
	 viewBox="0 0 100 100" style="enable-background:new 0 0 100 100;" xml:space="preserve">
<path d="M50,0C22.4,0,0,22.4,0,50s22.4,50,50,50s50-22.4,50-50S77.6,0,50,0z M74,50.2c-1.3,3.6-3.2,7-5.8,9.5
	c-2.9,2.8-7.7,5.7-14.3,5.1c-3.8-0.3-6.1-2-8.2-4.6c-1.3,4.5-1.9,9.2-3.6,13.3c-1.2,2.9-2.8,5.5-4.6,8c-0.5,0.8-1,1.9-2.1,2.1
	c-2.5-10.1,1.1-20.2,3.2-29.1c0.3-1.1,0.5-2.3,0.8-3.5c0.3-1.1,0.8-2.4,0.8-3.3c0-1.1-0.7-2.1-0.9-3.1c-0.9-4.7,0.3-9.5,3.1-11.7
	c1.3-1.1,4-2,6.2-1.2c4.6,1.7,2.9,8.4,1.5,12.9c-0.8,2.5-2.1,5.6-2.1,8c0.1,3.4,3.4,6.3,7.6,5.7c2.1-0.3,3.5-1.2,4.8-2.3
	c3.9-3.5,6.7-11.4,6.2-19.3s-6-12.9-13.8-13.5c-12-0.9-20.5,6.7-21.2,16.9c-0.3,3.7,0.6,6.5,2.2,8.6c0.3,0.4,0.9,1,1,1.7
	c0.1,0.9-0.9,4.9-1.8,5.1c-1.9,0.5-5.2-2.8-5.9-3.9C25.2,49,24,44.8,24,40.8c0-7.7,3.6-13.3,7.8-17.2c4.5-4.2,10.3-6.5,18.1-6.9
	c10.9-0.6,19.2,4.6,23.2,11.3c1.4,2.3,2.6,5.6,2.8,8.9C76.3,42,75.4,46.3,74,50.2z"/>
</svg>
