<?xml version="1.0" encoding="utf-8"?>
<!-- Generator: Adobe Illustrator 16.0.0, SVG Export Plug-In . SVG Version: 6.00 Build 0)  -->
<!DOCTYPE svg PUBLIC "-//W3C//DTD SVG 1.1//EN" "http://www.w3.org/Graphics/SVG/1.1/DTD/svg11.dtd">
<svg version="1.1" id="Layer_1" xmlns="http://www.w3.org/2000/svg" xmlns:xlink="http://www.w3.org/1999/xlink" x="0px" y="0px"
	 width="612px" height="792px" viewBox="0 0 612 792" enable-background="new 0 0 612 792" xml:space="preserve">
<g>
	<path fill="#FFFFFF" d="M262.12,315.522H159.732v29.253H262.12V315.522z M262.12,242.388H159.732v29.253H262.12V242.388z
		 M159.732,417.971h292.536v-29.314H159.732V417.971z M393.761,96.12H101.225c-31.15,0-58.507,31.518-58.507,62.669V633.15
		c0,31.15,27.356,62.668,58.507,62.668h409.611c31.151,0,58.508-16.891,58.508-48.042V271.642L393.761,96.12z M393.761,140
		l133.783,131.641H423.015c-20.747,0-29.254-8.507-29.254-29.253V140z M540.029,637.373c0,20.746-8.508,29.253-29.254,29.253
		H101.225c-20.747,0-29.253-8.507-29.253-29.253V169.254c0-20.747,8.507-43.88,29.253-43.88h263.282v131.641
		c0,31.151,12.729,43.88,43.881,43.88h131.642V637.373z M159.732,491.104h292.536v-29.253H159.732V491.104z M159.732,564.239
		h292.536v-29.254H159.732V564.239z"/>
</g>
</svg>
