<?xml version="1.0" encoding="utf-8"?>
<!-- Generator: Adobe Illustrator 16.0.0, SVG Export Plug-In . SVG Version: 6.00 Build 0)  -->
<!DOCTYPE svg PUBLIC "-//W3C//DTD SVG 1.1//EN" "http://www.w3.org/Graphics/SVG/1.1/DTD/svg11.dtd">
<svg version="1.1" id="Layer_1" focusable="false" xmlns="http://www.w3.org/2000/svg" xmlns:xlink="http://www.w3.org/1999/xlink"
	 x="0px" y="0px" width="612px" height="792px" viewBox="0 0 612 792" enable-background="new 0 0 612 792" xml:space="preserve">
<path fill="#FFFFFF" d="M306,99.563C142.242,99.563,9.563,232.242,9.563,396S142.242,692.438,306,692.438
	S602.438,559.758,602.438,396S469.758,99.563,306,99.563z M306,635.063c-132.082,0-239.063-106.98-239.063-239.063
	S173.918,156.938,306,156.938S545.063,263.918,545.063,396S438.082,635.063,306,635.063z M379.87,510.271l-101.482-73.75
	c-3.706-2.75-5.857-7.053-5.857-11.595V228.656c0-7.889,6.455-14.344,14.344-14.344h38.25c7.889,0,14.344,6.455,14.344,14.344
	v169.376l79.847,58.092c6.455,4.662,7.77,13.627,3.108,20.081l-22.473,30.959C395.29,513.499,386.325,514.934,379.87,510.271
	L379.87,510.271z"/>
</svg>
