<?xml version="1.0" encoding="utf-8"?>
<!-- Generator: Adobe Illustrator 16.0.0, SVG Export Plug-In . SVG Version: 6.00 Build 0)  -->
<!DOCTYPE svg PUBLIC "-//W3C//DTD SVG 1.1//EN" "http://www.w3.org/Graphics/SVG/1.1/DTD/svg11.dtd">
<svg version="1.1" id="Layer_1" focusable="false" xmlns="http://www.w3.org/2000/svg" xmlns:xlink="http://www.w3.org/1999/xlink"
	 x="0px" y="0px" width="612px" height="792px" viewBox="0 0 612 792" enable-background="new 0 0 612 792" xml:space="preserve">
<path fill="#FFFFFF" d="M437.143,658.286v54.643c0,18.107-14.678,32.785-32.785,32.785H32.786C14.678,745.714,0,731.036,0,712.929
	V210.214c0-18.107,14.678-32.786,32.786-32.786h98.357v404.357c0,42.183,34.317,76.5,76.5,76.5H437.143z M437.143,188.357V46.286
	h-229.5c-18.107,0-32.786,14.679-32.786,32.786v502.715c0,18.106,14.679,32.785,32.786,32.785h371.571
	c18.107,0,32.786-14.679,32.786-32.785V221.143H469.929C451.896,221.143,437.143,206.389,437.143,188.357z M602.397,145.969
	l-90.081-90.082c-6.148-6.148-14.487-9.602-23.183-9.602h-8.276v131.143H612v-8.277C612,160.457,608.546,152.118,602.397,145.969z"
	/>
</svg>
