<?xml version="1.0" encoding="utf-8"?>
<!-- Generator: Adobe Illustrator 16.0.0, SVG Export Plug-In . SVG Version: 6.00 Build 0)  -->
<!DOCTYPE svg PUBLIC "-//W3C//DTD SVG 1.1//EN" "http://www.w3.org/Graphics/SVG/1.1/DTD/svg11.dtd">
<svg version="1.1" id="Layer_1" focusable="false" xmlns="http://www.w3.org/2000/svg" xmlns:xlink="http://www.w3.org/1999/xlink"
	 x="0px" y="0px" width="612px" height="792px" viewBox="0 0 612 792" enable-background="new 0 0 612 792" xml:space="preserve">
<path fill="#FFFFFF" d="M379.85,396l227.342-227.355c6.407-6.407,6.407-16.789,0-23.182c-44.807-44.807-117.469-44.807-162.275,0
	L287.121,303.271l-33.961-33.96c5.888-14.917,9.125-31.16,9.125-48.168C262.286,148.714,203.572,90,131.143,90
	C58.714,90,0,148.714,0,221.143c0,72.429,58.714,131.143,131.143,131.143c6.202,0,12.281-0.437,18.25-1.271L194.378,396
	l-44.985,44.984c-5.97-0.833-12.063-1.271-18.25-1.271C58.714,439.714,0,498.428,0,570.857C0,643.286,58.714,702,131.143,702
	c72.429,0,131.143-58.714,131.143-131.143c0-17.008-3.237-33.25-9.125-48.168l33.961-33.961l157.795,157.809
	c44.807,44.808,117.469,44.808,162.275,0c6.407-6.393,6.407-16.775,0-23.182L379.85,396z M131.143,264.857
	c-24.098,0-43.714-19.617-43.714-43.715c0-24.097,19.617-43.714,43.714-43.714c24.097,0,43.714,19.617,43.714,43.714
	C174.857,245.24,155.24,264.857,131.143,264.857z M131.143,614.571c-24.098,0-43.714-19.616-43.714-43.714
	s19.617-43.715,43.714-43.715c24.097,0,43.714,19.617,43.714,43.715S155.24,614.571,131.143,614.571z"/>
</svg>
