<?xml version="1.0" encoding="utf-8"?>
<!-- Generator: Adobe Illustrator 16.0.0, SVG Export Plug-In . SVG Version: 6.00 Build 0)  -->
<!DOCTYPE svg PUBLIC "-//W3C//DTD SVG 1.1//EN" "http://www.w3.org/Graphics/SVG/1.1/DTD/svg11.dtd">
<svg version="1.1" id="Layer_1" focusable="false" xmlns="http://www.w3.org/2000/svg" xmlns:xlink="http://www.w3.org/1999/xlink"
	 x="0px" y="0px" width="612px" height="792px" viewBox="0 0 612 792" enable-background="new 0 0 612 792" xml:space="preserve">
<path fill="#FFFFFF" d="M258.188,90h95.625c15.897,0,28.688,12.79,28.688,28.688V319.5h104.829c21.276,0,31.915,25.699,16.854,40.76
	L322.376,542.187c-8.965,8.965-23.667,8.965-32.632,0L107.698,360.26c-15.061-15.061-4.423-40.76,16.854-40.76H229.5V118.688
	C229.5,102.79,242.29,90,258.188,90z M612,539.438v133.875C612,689.21,599.21,702,583.313,702H28.688C12.79,702,0,689.21,0,673.313
	V539.438c0-15.897,12.79-28.688,28.688-28.688H204.04l58.57,58.57c24.025,24.025,62.754,24.025,86.779,0l58.57-58.57h175.353
	C599.21,510.75,612,523.54,612,539.438z M463.781,644.625c0-13.148-10.758-23.906-23.906-23.906s-23.906,10.758-23.906,23.906
	s10.758,23.906,23.906,23.906S463.781,657.773,463.781,644.625z M540.281,644.625c0-13.148-10.758-23.906-23.906-23.906
	s-23.906,10.758-23.906,23.906s10.758,23.906,23.906,23.906S540.281,657.773,540.281,644.625z"/>
</svg>
