<?xml version="1.0" encoding="utf-8"?>
<!-- Generator: Adobe Illustrator 16.0.0, SVG Export Plug-In . SVG Version: 6.00 Build 0)  -->
<!DOCTYPE svg PUBLIC "-//W3C//DTD SVG 1.1//EN" "http://www.w3.org/Graphics/SVG/1.1/DTD/svg11.dtd">
<svg version="1.1" id="Layer_1" focusable="false" xmlns="http://www.w3.org/2000/svg" xmlns:xlink="http://www.w3.org/1999/xlink"
	 x="0px" y="0px" width="612px" height="792px" viewBox="0 0 612 792" enable-background="new 0 0 612 792" xml:space="preserve">
<path fill="#FFFFFF" d="M427.763,212.4l95.837,95.837c4.038,4.038,4.038,10.625,0,14.663L291.55,554.95l-98.6,10.943
	c-13.175,1.487-24.332-9.669-22.844-22.844l10.943-98.6L413.1,212.4C417.138,208.362,423.725,208.362,427.763,212.4L427.763,212.4z
	 M599.888,188.069l-51.851-51.85c-16.149-16.15-42.394-16.15-58.649,0l-37.612,37.612c-4.038,4.038-4.038,10.625,0,14.663
	l95.837,95.837c4.038,4.038,10.625,4.038,14.663,0l37.612-37.612C616.037,230.462,616.037,204.219,599.888,188.069z M408,491.838
	V600H68V260h244.162c3.4,0,6.588-1.381,9.031-3.719l42.5-42.5c8.075-8.075,2.338-21.781-9.031-21.781H51c-28.156,0-51,22.844-51,51
	v374c0,28.156,22.844,51,51,51h374c28.156,0,51-22.844,51-51V449.338c0-11.369-13.706-17-21.781-9.031l-42.5,42.5
	C409.381,485.25,408,488.438,408,491.838z"/>
</svg>
