<?xml version="1.0" encoding="utf-8"?>
<!-- Generator: Adobe Illustrator 16.0.0, SVG Export Plug-In . SVG Version: 6.00 Build 0)  -->
<!DOCTYPE svg PUBLIC "-//W3C//DTD SVG 1.1//EN" "http://www.w3.org/Graphics/SVG/1.1/DTD/svg11.dtd">
<svg version="1.1" id="Layer_1" focusable="false" xmlns="http://www.w3.org/2000/svg" xmlns:xlink="http://www.w3.org/1999/xlink"
	 x="0px" y="0px" width="612px" height="792px" viewBox="0 0 612 792" enable-background="new 0 0 612 792" xml:space="preserve">
<path fill="#FFFFFF" d="M0,292.179V122.786C0,104.617,14.617,90,32.786,90h169.393c9.016,0,16.393,7.377,16.393,16.393v54.643
	c0,9.016-7.376,16.393-16.393,16.393H87.429v114.75c0,9.016-7.377,16.393-16.393,16.393H16.393C7.377,308.571,0,301.195,0,292.179z
	 M393.429,106.393v54.643c0,9.016,7.377,16.393,16.393,16.393h114.75v114.75c0,9.016,7.377,16.393,16.393,16.393h54.644
	c9.016,0,16.393-7.376,16.393-16.393V122.786C612,104.617,597.383,90,579.214,90H409.821C400.806,90,393.429,97.377,393.429,106.393
	z M595.607,483.429h-54.644c-9.016,0-16.393,7.377-16.393,16.393v114.75h-114.75c-9.016,0-16.393,7.377-16.393,16.393v54.644
	c0,9.016,7.377,16.393,16.393,16.393h169.393C597.383,702,612,687.383,612,669.214V499.821
	C612,490.806,604.623,483.429,595.607,483.429z M218.571,685.607v-54.644c0-9.016-7.376-16.393-16.393-16.393H87.429v-114.75
	c0-9.016-7.377-16.393-16.393-16.393H16.393C7.377,483.429,0,490.806,0,499.821v169.393C0,687.383,14.617,702,32.786,702h169.393
	C211.195,702,218.571,694.623,218.571,685.607z"/>
</svg>
