<?xml version="1.0" encoding="utf-8"?>
<!-- Generator: Adobe Illustrator 16.0.0, SVG Export Plug-In . SVG Version: 6.00 Build 0)  -->
<!DOCTYPE svg PUBLIC "-//W3C//DTD SVG 1.1//EN" "http://www.w3.org/Graphics/SVG/1.1/DTD/svg11.dtd">
<svg version="1.1" id="Layer_1" focusable="false" xmlns="http://www.w3.org/2000/svg" xmlns:xlink="http://www.w3.org/1999/xlink"
	 x="0px" y="0px" width="612px" height="792px" viewBox="0 0 612 792" enable-background="new 0 0 612 792" xml:space="preserve">
<path fill="#FFFFFF" d="M581.189,151.439L451.406,21.656C437.484,7.734,418.612-0.155,398.967-0.155H83.25
	C42.258,0,9,33.258,9,74.25v643.5C9,758.742,42.258,792,83.25,792h445.5c40.992,0,74.25-33.258,74.25-74.25V204.033
	C603,184.388,595.111,165.361,581.189,151.439z M522.717,198H405V80.283L522.717,198z M83.25,717.75V74.25h247.5v160.875
	c0,20.573,16.552,37.125,37.125,37.125H528.75v445.5H83.25z"/>
</svg>
