<?xml version="1.0" encoding="utf-8"?>
<!-- Generator: Adobe Illustrator 16.0.0, SVG Export Plug-In . SVG Version: 6.00 Build 0)  -->
<!DOCTYPE svg PUBLIC "-//W3C//DTD SVG 1.1//EN" "http://www.w3.org/Graphics/SVG/1.1/DTD/svg11.dtd">
<svg version="1.1" id="Layer_1" focusable="false" xmlns="http://www.w3.org/2000/svg" xmlns:xlink="http://www.w3.org/1999/xlink"
	 x="0px" y="0px" width="612px" height="792px" viewBox="0 0 612 792" enable-background="new 0 0 612 792" xml:space="preserve">
<path fill="#FFFFFF" d="M345.6,247.5V79.2H98.1c-16.458,0-29.7,13.241-29.7,29.7v574.2c0,16.459,13.242,29.7,29.7,29.7h415.8
	c16.458,0,29.699-13.241,29.699-29.7V277.2H375.3C358.965,277.2,345.6,263.835,345.6,247.5z M424.8,539.55
	c0,8.167-6.683,14.851-14.85,14.851h-207.9c-8.167,0-14.85-6.684-14.85-14.851v-9.899c0-8.168,6.682-14.851,14.85-14.851h207.9
	c8.167,0,14.85,6.683,14.85,14.851V539.55z M424.8,460.35c0,8.168-6.683,14.851-14.85,14.851h-207.9
	c-8.167,0-14.85-6.683-14.85-14.851v-9.899c0-8.167,6.682-14.851,14.85-14.851h207.9c8.167,0,14.85,6.684,14.85,14.851V460.35z
	 M424.8,371.25v9.9c0,8.167-6.683,14.85-14.85,14.85h-207.9c-8.167,0-14.85-6.683-14.85-14.85v-9.9c0-8.167,6.682-14.85,14.85-14.85
	h207.9C418.117,356.4,424.8,363.083,424.8,371.25z M543.6,230.051v7.549H385.2V79.2h7.548c7.921,0,15.469,3.094,21.038,8.662
	l121.151,121.275C540.506,214.706,543.6,222.255,543.6,230.051z"/>
</svg>
