<?xml version="1.0" encoding="utf-8"?>
<!-- Generator: Adobe Illustrator 16.0.0, SVG Export Plug-In . SVG Version: 6.00 Build 0)  -->
<!DOCTYPE svg PUBLIC "-//W3C//DTD SVG 1.1//EN" "http://www.w3.org/Graphics/SVG/1.1/DTD/svg11.dtd">
<svg version="1.1" id="Capa_1" xmlns="http://www.w3.org/2000/svg" xmlns:xlink="http://www.w3.org/1999/xlink" x="0px" y="0px"
	 width="550.801px" height="550.801px" viewBox="0 0 550.801 550.801" enable-background="new 0 0 550.801 550.801"
	 xml:space="preserve">
<g>
	<g>
		<path fill="#FFFFFF" d="M475.095,131.992c-0.032-2.526-0.844-5.021-2.579-6.993L366.324,3.694
			c-0.031-0.034-0.063-0.045-0.084-0.076c-0.633-0.707-1.371-1.29-2.151-1.804c-0.231-0.15-0.464-0.285-0.707-0.422
			c-0.675-0.366-1.382-0.67-2.13-0.892c-0.201-0.058-0.38-0.14-0.58-0.192C359.87,0.114,359.037,0,358.193,0H97.2
			C85.292,0,75.6,9.693,75.6,21.601v507.6c0,11.913,9.692,21.601,21.6,21.601H453.6c11.908,0,21.602-9.688,21.602-21.601V133.202
			C475.2,132.796,475.137,132.398,475.095,131.992z M210.558,418.605h-35.764v106.128H145.06V418.605h-35.184V393.73h100.683
			L210.558,418.605L210.558,418.605z M298.814,524.733l-11.855-23.715c-4.855-9.134-7.973-15.937-11.662-23.52h-0.388
			c-2.724,7.583-6.022,14.386-10.104,23.52l-10.887,23.715h-33.827L258,458.452l-36.547-64.728h34.016l11.476,23.91
			c3.881,7.963,6.803,14.381,9.911,21.77h0.392c3.101-8.358,5.632-14.19,8.933-21.77l11.086-23.91h33.823l-36.937,63.946
			l38.877,67.063H298.814L298.814,524.733z M440.923,418.605h-35.765v106.128h-29.742V418.605h-35.189V393.73h100.687v24.875
			H440.923z M97.2,366.752V21.601h250.191v110.515c0,5.961,4.843,10.8,10.802,10.8H453.6v223.836H97.2z"/>
		<path fill="#FFFFFF" d="M174.351,148.269h119.812c3.966,0,7.203-3.225,7.203-7.198c0-3.973-3.237-7.193-7.203-7.193H174.351
			c-3.977,0-7.193,3.22-7.193,7.193C167.158,145.044,170.374,148.269,174.351,148.269z"/>
		<path fill="#FFFFFF" d="M370.797,191.432H174.161c-3.974,0-7.193,3.217-7.193,7.192c0,3.974,3.219,7.198,7.193,7.198h196.636
			c3.977,0,7.203-3.225,7.203-7.198C378,194.648,374.772,191.432,370.797,191.432z"/>
		<path fill="#FFFFFF" d="M370.797,248.58H174.161c-3.974,0-7.193,3.217-7.193,7.198c0,3.974,3.219,7.198,7.193,7.198h196.636
			c3.977,0,7.203-3.225,7.203-7.198C378,251.796,374.772,248.58,370.797,248.58z"/>
		<path fill="#FFFFFF" d="M370.797,307.1H174.161c-3.974,0-7.193,3.223-7.193,7.197c0,3.977,3.219,7.193,7.193,7.193h196.636
			c3.977,0,7.203-3.217,7.203-7.193S374.772,307.1,370.797,307.1z"/>
	</g>
</g>
</svg>
