<?xml version="1.0" encoding="utf-8"?>
<!-- Generator: Adobe Illustrator 16.0.0, SVG Export Plug-In . SVG Version: 6.00 Build 0)  -->
<!DOCTYPE svg PUBLIC "-//W3C//DTD SVG 1.1//EN" "http://www.w3.org/Graphics/SVG/1.1/DTD/svg11.dtd">
<svg version="1.1" id="Capa_1" xmlns="http://www.w3.org/2000/svg" xmlns:xlink="http://www.w3.org/1999/xlink" x="0px" y="0px"
	 width="550.801px" height="550.801px" viewBox="0 0 550.801 550.801" enable-background="new 0 0 550.801 550.801"
	 xml:space="preserve">
<g>
	<g>
		<path fill="#FFFFFF" d="M475.095,131.986c-0.032-2.525-0.844-5.015-2.567-6.992L366.324,3.684
			c-0.021-0.029-0.053-0.045-0.084-0.071c-0.633-0.712-1.36-1.289-2.142-1.803c-0.231-0.15-0.465-0.29-0.707-0.422
			c-0.686-0.372-1.393-0.669-2.131-0.891c-0.2-0.058-0.379-0.145-0.59-0.188C359.87,0.114,359.037,0,358.203,0H97.2
			C85.292,0,75.6,9.688,75.6,21.601v507.6c0,11.907,9.692,21.601,21.6,21.601H453.6c11.908,0,21.602-9.692,21.602-21.601V133.197
			C475.2,132.791,475.137,132.393,475.095,131.986z M97.2,21.601h250.203v110.51c0,5.962,4.831,10.8,10.8,10.8H453.6l0.012,223.837
			H97.2V21.601z M180.457,499.311h-21.642v-41.26h-35.744v41.26h-21.769v-98.612h21.769v37.895h35.744v-37.895h21.642V499.311z
			 M265.874,419.429h-26.188v79.882h-21.779v-79.882h-25.763v-18.73h73.73V419.429z M359.416,499.311l-1.424-37.746
			c-0.422-11.851-0.854-26.188-0.854-40.532h-0.422c-2.996,12.583-6.981,26.631-10.685,38.189l-11.665,38.477H317.43l-10.252-38.181
			c-3.133-11.56-6.412-25.607-8.689-38.485h-0.285c-0.564,13.321-1.002,28.535-1.692,40.827l-1.72,37.457h-20.07l6.117-98.613
			h28.903l9.396,32.917c2.995,11.412,5.976,23.704,8.121,35.264h0.422c2.711-11.417,5.976-24.427,9.112-35.406l10.252-32.773h28.329
			l5.263,98.613h-21.221V499.311z M457.238,499.311H397.3v-98.612h21.779v79.882h38.153v18.73H457.238z"/>
		<polygon fill="#FFFFFF" points="154.132,249.086 236.872,287.523 236.872,269.254 174.295,241.851 174.295,241.505 
			236.872,214.094 236.872,195.827 154.132,234.262 		"/>
		<polygon fill="#FFFFFF" points="249.642,294.416 267.047,294.416 303.93,169.452 286.527,169.452 		"/>
		<polygon fill="#FFFFFF" points="313.938,214.094 377.895,241.505 377.895,241.851 313.938,269.254 313.938,287.523 
			396.668,249.605 396.668,233.745 313.938,195.827 		"/>
	</g>
</g>
</svg>
