<?xml version="1.0" encoding="utf-8"?>
<!-- Generator: Adobe Illustrator 16.0.0, SVG Export Plug-In . SVG Version: 6.00 Build 0)  -->
<!DOCTYPE svg PUBLIC "-//W3C//DTD SVG 1.1//EN" "http://www.w3.org/Graphics/SVG/1.1/DTD/svg11.dtd">
<svg version="1.1" id="Layer_1" xmlns="http://www.w3.org/2000/svg" xmlns:xlink="http://www.w3.org/1999/xlink" x="0px" y="0px"
	 width="24px" height="24px" viewBox="0 0 24 24" enable-background="new 0 0 24 24" xml:space="preserve">
<path fill="#FFFFFF" d="M16.938,16.4c-1.548,0-2.854,0.92-3.344,2.2H9.813c-1.963,0-3.562-1.479-3.562-3.3v-3.328
	c0.995,0.697,2.221,1.128,3.562,1.128h3.781c0.49,1.279,1.794,2.2,3.344,2.2c1.968,0,3.563-1.478,3.563-3.301
	c0-1.823-1.595-3.3-3.563-3.3c-1.548,0-2.854,0.921-3.344,2.2H9.813c-1.963,0-3.562-1.481-3.562-3.3V7.397
	C7.631,6.943,8.625,5.734,8.625,4.3C8.625,2.477,7.03,1,5.062,1C3.094,1,1.5,2.477,1.5,4.301c0,1.434,0.994,2.644,2.375,3.098v7.902
	c0,3.032,2.664,5.501,5.938,5.501h3.781c0.49,1.279,1.794,2.2,3.344,2.2c1.968,0,3.563-1.477,3.563-3.301
	C20.5,17.878,18.905,16.4,16.938,16.4z M16.938,10.901c0.655,0,1.188,0.494,1.188,1.101c0,0.607-0.532,1.101-1.188,1.101
	s-1.188-0.494-1.188-1.101C15.75,11.395,16.282,10.901,16.938,10.901z M5.062,3.2c0.655,0,1.188,0.495,1.188,1.101
	c0,0.605-0.532,1.1-1.188,1.1s-1.188-0.495-1.188-1.1C3.875,3.696,4.407,3.2,5.062,3.2z M16.938,20.801
	c-0.655,0-1.188-0.494-1.188-1.1c0-0.607,0.532-1.101,1.188-1.101s1.188,0.494,1.188,1.101S17.593,20.801,16.938,20.801z"/>
</svg>
