<?xml version="1.0" encoding="utf-8"?>
<!-- Generator: Adobe Illustrator 16.0.0, SVG Export Plug-In . SVG Version: 6.00 Build 0)  -->
<!DOCTYPE svg PUBLIC "-//W3C//DTD SVG 1.1//EN" "http://www.w3.org/Graphics/SVG/1.1/DTD/svg11.dtd">
<svg version="1.1" id="Layer_1" focusable="false" xmlns="http://www.w3.org/2000/svg" xmlns:xlink="http://www.w3.org/1999/xlink"
	 x="0px" y="0px" width="612px" height="792px" viewBox="0 0 612 792" enable-background="new 0 0 612 792" xml:space="preserve">
<path fill="#FFFFFF" d="M554.625,243h-229.5l-76.5-76.5H57.375C25.688,166.5,0,192.188,0,223.875v344.25
	C0,599.813,25.688,625.5,57.375,625.5h497.25c31.688,0,57.375-25.688,57.375-57.375v-267.75C612,268.688,586.313,243,554.625,243z
	 M429.715,443.813c0,10.563-8.563,19.125-19.125,19.125h-76.5v76.5c0,10.563-8.563,19.125-19.125,19.125H295.84
	c-10.563,0-19.125-8.563-19.125-19.125v-76.5h-76.5c-10.563,0-19.125-8.563-19.125-19.125v-19.125
	c0-10.563,8.563-19.125,19.125-19.125h76.5v-76.5c0-10.563,8.563-19.125,19.125-19.125h19.125c10.563,0,19.125,8.563,19.125,19.125
	v76.5h76.5c10.563,0,19.125,8.563,19.125,19.125V443.813z"/>
</svg>
