<?xml version="1.0" encoding="utf-8"?>
<!-- Generator: Adobe Illustrator 16.0.0, SVG Export Plug-In . SVG Version: 6.00 Build 0)  -->
<!DOCTYPE svg PUBLIC "-//W3C//DTD SVG 1.1//EN" "http://www.w3.org/Graphics/SVG/1.1/DTD/svg11.dtd">
<svg version="1.1" id="Layer_1" focusable="false" xmlns="http://www.w3.org/2000/svg" xmlns:xlink="http://www.w3.org/1999/xlink"
	 x="0px" y="0px" width="612px" height="792px" viewBox="0 0 612 792" enable-background="new 0 0 612 792" xml:space="preserve">
<path fill="#FFFFFF" d="M415.197,277.548C397.307,167.364,355.108,90,306,90c-49.108,0-91.307,77.364-109.198,187.548H415.197z
	 M187.548,396c0,27.392,1.48,53.674,4.072,78.968h228.637c2.591-25.294,4.071-51.576,4.071-78.968
	c0-27.392-1.48-53.673-4.071-78.968H191.62C189.029,342.327,187.548,368.608,187.548,396z M588.187,277.548
	c-35.289-83.78-106.73-148.558-194.952-174.716c30.106,41.705,50.836,104.509,61.694,174.716H588.187z M218.642,102.832
	C130.543,128.99,58.979,193.769,23.813,277.548h133.258C167.807,207.341,188.536,144.537,218.642,102.832L218.642,102.832z
	 M601.389,317.032H459.863c2.592,25.911,4.072,52.439,4.072,78.968s-1.48,53.057-4.072,78.968h141.402
	c6.786-25.294,10.611-51.576,10.611-78.968C611.877,368.608,608.052,342.327,601.389,317.032z M148.064,396
	c0-26.528,1.48-53.057,4.072-78.968H10.611C3.948,342.327,0,368.608,0,396c0,27.392,3.948,53.674,10.611,78.968h141.401
	C149.545,449.057,148.064,422.528,148.064,396z M196.802,514.451C214.693,624.637,256.892,702,306,702
	c49.108,0,91.307-77.363,109.197-187.549H196.802z M393.358,689.168c88.098-26.158,159.662-90.937,194.951-174.717H455.052
	C444.193,584.659,423.465,647.463,393.358,689.168z M23.813,514.451c35.289,83.78,106.73,148.559,194.952,174.717
	c-30.106-41.705-50.835-104.509-61.693-174.717H23.813z"/>
</svg>
