<?xml version="1.0" encoding="utf-8"?>
<!-- Generator: Adobe Illustrator 16.0.0, SVG Export Plug-In . SVG Version: 6.00 Build 0)  -->
<!DOCTYPE svg PUBLIC "-//W3C//DTD SVG 1.1//EN" "http://www.w3.org/Graphics/SVG/1.1/DTD/svg11.dtd">
<svg version="1.1" id="Layer_1" focusable="false" xmlns="http://www.w3.org/2000/svg" xmlns:xlink="http://www.w3.org/1999/xlink"
	 x="0px" y="0px" width="612px" height="792px" viewBox="0 0 612 792" enable-background="new 0 0 612 792" xml:space="preserve">
<path fill="#FFFFFF" d="M243.873,401.402c5.977,5.977,15.663,5.977,21.64,0l10.815-10.814c5.977-5.977,5.977-15.664,0-21.64
	L242.17,334.8l34.147-34.157c5.977-5.977,5.977-15.663,0-21.64l-10.815-10.815c-5.977-5.977-15.664-5.977-21.64,0l-55.788,55.788
	c-5.977,5.977-5.977,15.664,0,21.64L243.873,401.402z M335.682,390.597l10.815,10.815c5.977,5.977,15.663,5.977,21.64,0
	l55.788-55.787c5.977-5.977,5.977-15.664,0-21.64l-55.788-55.788c-5.977-5.977-15.663-5.977-21.64,0l-10.815,10.815
	c-5.977,5.977-5.977,15.664,0,21.64L369.83,334.8l-34.148,34.157C329.705,374.934,329.705,384.621,335.682,390.597z M596.7,549
	H364.848c-0.708,18.943-14.066,30.6-31.308,30.6H275.4c-17.872,0-31.575-16.705-31.336-30.6H15.3C6.885,549,0,555.885,0,564.3v15.3
	c0,33.66,27.54,61.2,61.2,61.2h489.6c33.66,0,61.2-27.54,61.2-61.2v-15.3C612,555.885,605.115,549,596.7,549z M550.8,197.1
	c0-25.245-20.655-45.9-45.899-45.9H107.1c-25.245,0-45.9,20.655-45.9,45.9v321.3h489.6V197.1z M489.6,457.2H122.4V212.4h367.2V457.2
	z"/>
</svg>
