<?xml version="1.0" encoding="utf-8"?>
<!-- Generator: Adobe Illustrator 16.0.0, SVG Export Plug-In . SVG Version: 6.00 Build 0)  -->
<!DOCTYPE svg PUBLIC "-//W3C//DTD SVG 1.1//EN" "http://www.w3.org/Graphics/SVG/1.1/DTD/svg11.dtd">
<svg version="1.1" id="Layer_1" focusable="false" xmlns="http://www.w3.org/2000/svg" xmlns:xlink="http://www.w3.org/1999/xlink"
	 x="0px" y="0px" width="612px" height="792px" viewBox="0 0 612 792" enable-background="new 0 0 612 792" xml:space="preserve">
<path fill="#FFFFFF" d="M592.795,223.794L478.206,109.206C465.908,96.909,449.23,90,431.84,90H65.571C29.357,90,0,119.357,0,155.571
	v480.857C0,672.644,29.357,702,65.571,702h480.857C582.644,702,612,672.644,612,636.429V270.16
	C612,252.77,605.092,236.091,592.795,223.794L592.795,223.794z M306,614.571c-48.285,0-87.429-39.144-87.429-87.429
	s39.144-87.429,87.429-87.429s87.429,39.144,87.429,87.429S354.285,614.571,306,614.571z M437.143,198.575v137.318
	c0,9.053-7.34,16.393-16.393,16.393H103.821c-9.053,0-16.393-7.34-16.393-16.393V193.821c0-9.053,7.34-16.393,16.393-16.393h312.175
	c4.349,0,8.518,1.727,11.591,4.802l4.754,4.754C435.416,190.058,437.144,194.228,437.143,198.575z"/>
</svg>
