<?xml version="1.0" encoding="utf-8"?>
<!-- Generator: Adobe Illustrator 16.0.0, SVG Export Plug-In . SVG Version: 6.00 Build 0)  -->
<!DOCTYPE svg PUBLIC "-//W3C//DTD SVG 1.1//EN" "http://www.w3.org/Graphics/SVG/1.1/DTD/svg11.dtd">
<svg version="1.1"
	 id="Layer_1" shape-rendering="geometricPrecision" image-rendering="optimizeQuality" text-rendering="geometricPrecision"
	 xmlns="http://www.w3.org/2000/svg" xmlns:xlink="http://www.w3.org/1999/xlink" x="0px" y="0px" width="612px" height="792px"
	 viewBox="0 0 612 792" enable-background="new 0 0 612 792" xml:space="preserve">
<path fill="#FFFFFF" d="M42.023,77.146h527.985c14.941,0,27.163,12.233,27.163,27.163v147.442c0,14.93-12.233,27.163-27.163,27.163
	h-79.221v27.771h79.221c14.941,0,27.163,12.238,27.163,27.163V481.29c0,14.924-12.238,27.162-27.163,27.162h-79.221v78.804h40.729
	v40.625h80.485v46.705h-80.485v40.264H403.388v-40.264H217.072v40.264H88.943v-40.264H0.002v-46.705h88.941v-40.625h40.696v-78.804
	H42.023c-14.926,0-27.162-12.223-27.162-27.162V333.848c0-14.941,12.221-27.163,27.162-27.163h87.615v-27.771H42.023
	c-14.93,0-27.162-12.223-27.162-27.163V104.309C14.861,89.368,27.082,77.146,42.023,77.146z M82.233,367.431h31.014v80.28H82.233
	V367.431z M508.523,153.45c13.575,0,24.581,11.008,24.581,24.582c0,13.574-11.006,24.582-24.581,24.582
	c-13.576,0-24.582-11.008-24.582-24.582C483.941,164.456,494.947,153.45,508.523,153.45z M414.866,153.45
	c13.573,0,24.582,11.008,24.582,24.582c0,13.574-11.009,24.582-24.582,24.582c-13.575,0-24.582-11.008-24.582-24.582
	C390.284,164.456,401.293,153.45,414.866,153.45z M253.731,137.89h31.014v80.28h-31.014V137.89z M167.983,137.89h31.014v80.28
	h-31.014V137.89z M82.233,137.89h31.014v80.28H82.233V137.89z M508.523,382.99c13.575,0,24.581,11.008,24.581,24.582
	c0,13.576-11.006,24.582-24.581,24.582c-13.576,0-24.582-11.008-24.582-24.582C483.941,393.998,494.947,382.99,508.523,382.99z
	 M414.866,382.99c13.573,0,24.582,11.008,24.582,24.582c0,13.576-11.009,24.582-24.582,24.582
	c-13.575,0-24.582-11.008-24.582-24.582C390.284,393.998,401.293,382.99,414.866,382.99z M253.731,367.431h31.014v80.28h-31.014
	V367.431z M167.983,367.431h31.014v80.28h-31.014V367.431z M467.452,621.954c16.07,0,29.103,13.03,29.103,29.103
	c0,16.07-13.03,29.103-29.103,29.103c-16.07,0-29.103-13.03-29.103-29.103S451.382,621.954,467.452,621.954z M153.008,621.954
	c16.072,0,29.102,13.03,29.102,29.103c0,16.07-13.03,29.103-29.102,29.103c-16.07,0-29.103-13.03-29.103-29.103
	S136.936,621.954,153.008,621.954z M217.072,627.883h186.315v-40.625h40.695v-78.804H176.346v78.804h40.729v40.625H217.072z
	 M176.344,306.685h267.737v-27.771H176.344V306.685z"/>
</svg>
