<?xml version="1.0" encoding="utf-8"?>
<!-- Generator: Adobe Illustrator 16.0.0, SVG Export Plug-In . SVG Version: 6.00 Build 0)  -->
<!DOCTYPE svg PUBLIC "-//W3C//DTD SVG 1.1//EN" "http://www.w3.org/Graphics/SVG/1.1/DTD/svg11.dtd">
<svg version="1.1" id="Layer_1" focusable="false" xmlns="http://www.w3.org/2000/svg" xmlns:xlink="http://www.w3.org/1999/xlink"
	 x="0px" y="0px" width="612px" height="792px" viewBox="0 0 612 792" enable-background="new 0 0 612 792" xml:space="preserve">
<path fill="#FFFFFF" d="M573.75,281.25H38.25C17.125,281.25,0,264.125,0,243v-76.5c0-21.125,17.125-38.25,38.25-38.25h535.5
	c21.125,0,38.25,17.125,38.25,38.25V243C612,264.125,594.875,281.25,573.75,281.25z M516.375,176.063
	c-15.844,0-28.688,12.844-28.688,28.688s12.844,28.688,28.688,28.688s28.688-12.844,28.688-28.688S532.219,176.063,516.375,176.063z
	 M439.875,176.063c-15.844,0-28.688,12.844-28.688,28.688s12.844,28.688,28.688,28.688s28.688-12.844,28.688-28.688
	S455.719,176.063,439.875,176.063z M573.75,472.5H38.25C17.125,472.5,0,455.375,0,434.25v-76.5c0-21.125,17.125-38.25,38.25-38.25
	h535.5c21.125,0,38.25,17.125,38.25,38.25v76.5C612,455.375,594.875,472.5,573.75,472.5z M516.375,367.313
	c-15.844,0-28.688,12.844-28.688,28.688s12.844,28.688,28.688,28.688s28.688-12.844,28.688-28.688S532.219,367.313,516.375,367.313z
	 M439.875,367.313c-15.844,0-28.688,12.844-28.688,28.688s12.844,28.688,28.688,28.688s28.688-12.844,28.688-28.688
	S455.719,367.313,439.875,367.313z M573.75,663.75H38.25C17.125,663.75,0,646.625,0,625.5V549c0-21.125,17.125-38.25,38.25-38.25
	h535.5c21.125,0,38.25,17.125,38.25,38.25v76.5C612,646.625,594.875,663.75,573.75,663.75z M516.375,558.563
	c-15.844,0-28.688,12.844-28.688,28.688s12.844,28.688,28.688,28.688s28.688-12.844,28.688-28.688S532.219,558.563,516.375,558.563z
	 M439.875,558.563c-15.844,0-28.688,12.844-28.688,28.688s12.844,28.688,28.688,28.688s28.688-12.844,28.688-28.688
	S455.719,558.563,439.875,558.563z"/>
</svg>
