<?xml version="1.0" encoding="utf-8"?>
<!-- Generator: Adobe Illustrator 16.0.0, SVG Export Plug-In . SVG Version: 6.00 Build 0)  -->
<!DOCTYPE svg PUBLIC "-//W3C//DTD SVG 1.1//EN" "http://www.w3.org/Graphics/SVG/1.1/DTD/svg11.dtd">
<svg version="1.1" id="Layer_1" focusable="false" xmlns="http://www.w3.org/2000/svg" xmlns:xlink="http://www.w3.org/1999/xlink"
	 x="0px" y="0px" width="612px" height="792px" viewBox="0 0 612 792" enable-background="new 0 0 612 792" xml:space="preserve">
<path fill="#FFFFFF" d="M306,90C136.959,90,0,226.959,0,396c0,169.04,136.959,306,306,306c169.04,0,306-136.96,306-306
	C612,226.959,475.04,90,306,90z M306,642.774C169.904,642.774,59.226,532.096,59.226,396S169.904,149.226,306,149.226
	c136.096,0,246.774,110.679,246.774,246.774S442.096,642.774,306,642.774z M207.291,376.258c21.839,0,39.484-17.644,39.484-39.483
	c0-21.84-17.645-39.484-39.484-39.484c-21.84,0-39.484,17.644-39.484,39.484C167.807,358.614,185.451,376.258,207.291,376.258z
	 M404.71,376.258c21.839,0,39.483-17.644,39.483-39.483c0-21.84-17.645-39.484-39.483-39.484c-21.84,0-39.484,17.644-39.484,39.484
	C365.226,358.614,382.87,376.258,404.71,376.258z M409.646,465.837C383.98,496.684,346.101,514.451,306,514.451
	s-77.98-17.644-103.645-48.614c-10.488-12.585-29.243-14.189-41.705-3.825c-12.585,10.488-14.189,29.12-3.825,41.705
	c37.016,44.42,91.43,69.837,149.175,69.837s112.159-25.417,149.175-69.837c10.488-12.585,8.761-31.217-3.825-41.705
	C438.888,451.647,420.133,453.252,409.646,465.837z"/>
</svg>
