<?xml version="1.0" encoding="utf-8"?>
<!-- Generator: Adobe Illustrator 16.0.0, SVG Export Plug-In . SVG Version: 6.00 Build 0)  -->
<!DOCTYPE svg PUBLIC "-//W3C//DTD SVG 1.1//EN" "http://www.w3.org/Graphics/SVG/1.1/DTD/svg11.dtd">
<svg version="1.1" id="Layer_1" focusable="false" xmlns="http://www.w3.org/2000/svg" xmlns:xlink="http://www.w3.org/1999/xlink"
	 x="0px" y="0px" width="612px" height="792px" viewBox="0 0 612 792" enable-background="new 0 0 612 792" xml:space="preserve">
<path fill="#FFFFFF" d="M546.429,90H65.571C29.371,90,0,119.371,0,155.571v480.857C0,672.63,29.371,702,65.571,702h480.857
	C582.63,702,612,672.63,612,636.429V155.571C612,119.371,582.63,90,546.429,90z M538.232,636.429H73.768
	c-4.508,0-8.197-3.688-8.197-8.196V163.768c0-4.508,3.688-8.196,8.197-8.196h464.464c4.508,0,8.196,3.688,8.196,8.196v464.465
	C546.429,632.74,542.74,636.429,538.232,636.429z"/>
</svg>
