<?xml version="1.0" encoding="utf-8"?>
<!-- Generator: Adobe Illustrator 16.0.0, SVG Export Plug-In . SVG Version: 6.00 Build 0)  -->
<!DOCTYPE svg PUBLIC "-//W3C//DTD SVG 1.1//EN" "http://www.w3.org/Graphics/SVG/1.1/DTD/svg11.dtd">
<svg version="1.1" id="Layer_1" focusable="false" xmlns="http://www.w3.org/2000/svg" xmlns:xlink="http://www.w3.org/1999/xlink"
	 x="0px" y="0px" width="612px" height="792px" viewBox="0 0 612 792" enable-background="new 0 0 612 792" xml:space="preserve">
<path fill="#FFFFFF" d="M526.715,105.025l4.781,98.936c-56.211-66.31-138.771-104.499-225.699-104.398
	C161.044,99.563,40.533,203.459,14.69,340.8c-1.439,7.79,3.709,15.272,11.499,16.711c0.859,0.159,1.732,0.239,2.605,0.239h58.63
	c6.654-0.007,12.43-4.59,13.949-11.068C128.578,233.785,242.15,164.317,355.047,191.52c51.179,12.332,95.87,43.413,125.241,87.1
	l-121.276-5.809c-7.912-0.376-14.632,5.733-15.009,13.646c-0.011,0.232-0.017,0.465-0.016,0.697v56.67
	c0,7.922,6.422,14.344,14.344,14.344h239.325c7.922,0,14.344-6.422,14.344-14.344V104.344C612,96.422,605.578,90,597.656,90h-56.622
	c-7.922,0.004-14.34,6.43-14.336,14.352C526.698,104.576,526.704,104.801,526.715,105.025z M305.797,606.375
	c-70.044,0.06-135.503-34.821-174.516-92.995l121.683,5.821c7.913,0.376,14.633-5.733,15.009-13.646
	c0.011-0.232,0.017-0.465,0.017-0.697v-56.658c0-7.922-6.422-14.344-14.344-14.344H14.344C6.422,433.855,0,440.277,0,448.199
	v239.457C0,695.578,6.422,702,14.344,702h56.598c7.922,0.01,14.352-6.404,14.362-14.326c0-0.245-0.006-0.49-0.018-0.734
	l-4.96-98.697c56.198,66.172,138.656,104.277,225.472,104.195c144.765,0,265.275-103.896,291.118-241.238
	c1.439-7.79-3.709-15.271-11.499-16.711c-0.859-0.158-1.731-0.238-2.605-0.238h-58.63c-6.654,0.007-12.431,4.59-13.949,11.068
	C487.508,539.806,402.978,606.399,305.797,606.375z"/>
</svg>
