<?xml version="1.0" encoding="utf-8"?>
<!-- Generator: Adobe Illustrator 16.0.0, SVG Export Plug-In . SVG Version: 6.00 Build 0)  -->
<!DOCTYPE svg PUBLIC "-//W3C//DTD SVG 1.1//EN" "http://www.w3.org/Graphics/SVG/1.1/DTD/svg11.dtd">
<svg version="1.1" id="Layer_1" focusable="false" xmlns="http://www.w3.org/2000/svg" xmlns:xlink="http://www.w3.org/1999/xlink"
	 x="0px" y="0px" width="612px" height="792px" viewBox="0 0 612 792" enable-background="new 0 0 612 792" xml:space="preserve">
<path fill="#FFFFFF" d="M253.804,358.148H14.344C6.422,358.148,0,351.726,0,343.804v-239.46C0,96.422,6.422,90,14.344,90h57.375
	c7.921,0,14.344,6.422,14.344,14.344v93.368c54.713-60.761,134.186-98.783,222.537-98.141
	c163.646,1.188,294.583,133.424,294.234,297.074c-0.348,163.422-132.933,295.793-296.436,295.793
	c-76.607,0-146.421-29.062-199.032-76.757c-6.095-5.524-6.376-15.006-0.558-20.822l40.601-40.602
	c5.348-5.348,13.939-5.638,19.604-0.627c37.098,32.826,85.891,52.745,139.385,52.745c116.266,0,210.375-94.09,210.375-210.375
	c0-116.265-94.091-210.375-210.375-210.375c-69.921,0-131.819,34.038-170.063,86.46h117.468c7.921,0,14.344,6.422,14.344,14.344
	v57.375C268.148,351.726,261.726,358.148,253.804,358.148L253.804,358.148z"/>
</svg>
