<?xml version="1.0" encoding="utf-8"?>
<!-- Generator: Adobe Illustrator 16.0.0, SVG Export Plug-In . SVG Version: 6.00 Build 0)  -->
<!DOCTYPE svg PUBLIC "-//W3C//DTD SVG 1.1//EN" "http://www.w3.org/Graphics/SVG/1.1/DTD/svg11.dtd">
<svg version="1.1" id="Layer_1" xmlns="http://www.w3.org/2000/svg" xmlns:xlink="http://www.w3.org/1999/xlink" x="0px" y="0px"
	 width="612px" height="792px" viewBox="0 0 612 792" enable-background="new 0 0 612 792" xml:space="preserve">
<g>
	<path fill="#FFFFFF" d="M6.12,394.898L6.12,394.898c0,41.065,33.292,74.297,74.297,74.297c41.065,0,74.296-33.293,74.296-74.297
		l0,0l0,0c0-41.065-33.292-74.297-74.296-74.297C39.413,320.602,6.12,353.833,6.12,394.898S6.12,394.898,6.12,394.898L6.12,394.898z
		"/>
	<path fill="#FFFFFF" d="M457.226,394.898c0,41.065,33.292,74.297,74.296,74.297c41.065,0,74.297-33.293,74.297-74.297
		c0-41.065-33.292-74.297-74.297-74.297C490.518,320.602,457.226,353.833,457.226,394.898L457.226,394.898z"/>
	<path fill="#FFFFFF" d="M457.226,171.212c0,41.065,33.292,74.297,74.296,74.297c41.065,0,74.297-33.293,74.297-74.297
		c0-41.065-33.292-74.297-74.297-74.297C490.518,96.854,457.226,130.147,457.226,171.212z"/>
	<path fill="#FFFFFF" d="M457.226,620.787c0,41.065,33.292,74.297,74.296,74.297c41.065,0,74.297-33.292,74.297-74.297
		c0-41.004-33.292-74.296-74.297-74.296C490.518,546.491,457.226,579.783,457.226,620.787z"/>
	<path fill="#FFFFFF" d="M145.228,373.54h314.936v41.188H145.228V373.54z"/>
	<path fill="#FFFFFF" d="M212.18,394.776l141.066-244.494l35.68,20.563L247.86,415.4L212.18,394.776z"/>
	<path fill="#FFFFFF" d="M353.246,641.29L212.18,396.796l35.68-20.563l141.066,244.494L353.246,641.29z"/>
	<path fill="#FFFFFF" d="M352.757,149.854h108.936v41.188H352.757V149.854L352.757,149.854z"/>
	<path fill="#FFFFFF" d="M353.491,600.225h108.201v41.188H353.491V600.225z"/>
</g>
</svg>
