<?xml version="1.0" encoding="utf-8"?>
<!-- Generator: Adobe Illustrator 16.0.0, SVG Export Plug-In . SVG Version: 6.00 Build 0)  -->
<!DOCTYPE svg PUBLIC "-//W3C//DTD SVG 1.1//EN" "http://www.w3.org/Graphics/SVG/1.1/DTD/svg11.dtd">
<svg version="1.1" id="Instagram" xmlns="http://www.w3.org/2000/svg" xmlns:xlink="http://www.w3.org/1999/xlink" x="0px" y="0px"
	 width="612px" height="792px" viewBox="0 0 612 792" enable-background="new 0 0 612 792" xml:space="preserve">
<g>
	<path fill="#FFFFFF" d="M306.612,447.408c25.092,0,47.735-20.809,48.96-46.512c1.836-34.272-27.54-55.692-56.917-52.021
		c-21.42,3.06-37.332,17.748-41.616,39.168C250.308,421.704,279.072,447.408,306.612,447.408z"/>
	<path fill="#FFFFFF" d="M436.356,252.792H397.8c-5.508,0-9.792,4.284-9.792,9.792v38.556c0,5.508,4.284,9.792,9.792,9.792h38.557
		c5.508,0,9.792-4.284,9.792-9.792v-38.556C446.76,257.076,441.864,252.792,436.356,252.792z"/>
	<path fill="#FFFFFF" d="M306,90C137.088,90,0,227.088,0,396s137.088,306,306,306s306-137.088,306-306S474.912,90,306,90z
		 M477.972,489.024c0,23.256-4.284,41.004-16.523,55.079c-11.017,12.24-25.704,22.645-46.513,24.48
		c-34.271,2.448-70.991,0-107.712,0c-34.884,0-72.216,2.448-107.711,0c-34.884-2.448-61.812-28.152-64.26-64.26
		c-3.672-47.736,2.448-104.04,0-155.448c0-1.224,0.612-2.448,1.836-2.448c32.436,0,64.26,0,96.696,0
		c3.06,1.836-2.448,6.12-4.284,9.18c-6.732,12.24-11.628,30.6-9.792,50.796c2.448,40.392,36.72,75.275,80.172,78.336
		c31.824,2.447,57.528-12.853,73.44-32.437c14.688-17.748,26.928-48.96,15.912-82.008c-1.225-4.284-3.673-8.568-6.12-12.24
		c-1.836-3.672-4.896-7.344-4.896-11.628c33.048,0,65.484,0,98.532,0C478.584,396.612,477.972,442.512,477.972,489.024z
		 M238.68,399.06c-0.612-22.032,9.792-39.78,20.196-50.184s23.256-17.136,43.452-18.36c37.332-2.448,67.932,23.868,71.604,58.14
		c3.672,37.944-22.644,71.604-56.916,75.888c-6.119,0.612-14.688,0.612-20.808,0C266.22,461.484,239.292,433.944,238.68,399.06z
		 M477.972,336.636c-27.54,0-52.632,0-80.784,0c-8.567,0-18.972,1.836-26.928,0c-4.896-1.224-7.344-6.12-11.628-9.18
		c-13.464-9.792-34.271-18.36-59.976-16.524c-18.972,1.224-31.824,7.956-44.064,17.748c-3.06,2.448-7.956,7.344-11.628,8.568
		c-7.344,1.836-18.36,0-27.54,0c-26.316,0-52.02,0-80.172,0c1.224-20.196-2.448-39.78,0.612-56.916
		c3.672-20.196,15.912-34.272,28.152-42.84c0,23.868,0,71.604,0,71.604h13.464c0,0-1.224-55.08,0.612-80.172
		c1.836-1.836,6.12-1.224,8.568-3.06c1.836,25.704,1.836,83.232,1.836,83.232h13.464c0,0,0-55.08,0-82.62
		c0-1.224,0-2.448,0.612-2.448c3.06,0,5.508,0,8.568,0c0,28.152,0,85.068,0,85.068h14.076c0,0,0-56.916,0-85.068
		c57.528,3.06,131.58-3.672,187.884,0c22.032,1.224,40.393,12.24,50.797,25.704C479.196,269.316,478.584,298.08,477.972,336.636z"/>
</g>
</svg>
