<?xml version="1.0" encoding="utf-8"?>
<!-- Generator: Adobe Illustrator 16.0.0, SVG Export Plug-In . SVG Version: 6.00 Build 0)  -->
<!DOCTYPE svg PUBLIC "-//W3C//DTD SVG 1.1//EN" "http://www.w3.org/Graphics/SVG/1.1/DTD/svg11.dtd">
<svg version="1.1" id="Layer_1" xmlns="http://www.w3.org/2000/svg" xmlns:xlink="http://www.w3.org/1999/xlink" x="0px" y="0px"
	 width="612px" height="792px" viewBox="0 0 612 792" enable-background="new 0 0 612 792" xml:space="preserve">
<path fill="#FFFFFF" d="M306,90C137.088,90,0,227.088,0,396s137.088,306,306,306s306-137.088,306-306S474.912,90,306,90z
	 M220.32,550.836c-21.42,0-42.84,0-64.26,0c0-68.544,0-137.088,0-205.632c0-0.612,0-1.224,0.612-1.224c21.42,0,42.84,0,64.26,0
	C220.32,412.524,220.32,481.68,220.32,550.836z M167.076,309.708c-9.792-6.732-17.748-20.808-15.912-37.332
	c1.836-12.24,10.404-22.644,19.584-27.54c3.06-1.836,7.344-3.06,12.24-3.06c24.48-3.06,42.84,14.076,42.84,37.332
	C225.216,307.26,192.78,326.844,167.076,309.708z M461.448,550.836c-21.42,0-42.84,0-64.261,0c0-23.256,0-47.736,0-74.052
	c0-31.212,4.284-67.32-17.136-78.336c-10.403-5.508-24.479-3.672-33.66,0c-23.256,10.403-21.42,43.452-21.42,79.56
	c0,25.092,0,51.408,0,72.828c-21.42,0-42.84,0-64.26,0c0-69.156,0-138.312,0-206.856c20.808,0,41.004,0,61.813,0
	c0,9.18,0,18.972,0,28.152c2.447-1.836,3.06-4.284,4.896-6.732c11.016-14.688,30.6-26.928,55.692-26.928
	c31.823,0,54.468,11.016,66.096,31.212c12.24,21.42,12.24,51.408,12.24,85.068C461.448,485.964,461.448,520.236,461.448,550.836z"/>
</svg>
