<?xml version="1.0" encoding="utf-8"?>
<!-- Generator: Adobe Illustrator 21.0.0, SVG Export Plug-In . SVG Version: 6.00 Build 0)  -->
<svg version="1.1" id="Layer_1" xmlns="http://www.w3.org/2000/svg" xmlns:xlink="http://www.w3.org/1999/xlink" x="0px" y="0px"
	 viewBox="0 0 100 100" style="enable-background:new 0 0 100 100;" xml:space="preserve">
<g id="Layer_1_1_">
</g>
<g id="Layer_2">
	<path d="M50,0C22.4,0,0,22.4,0,50s22.4,50,50,50s50-22.4,50-50S77.6,0,50,0z M75.4,73.4c-1.5,0.2-0.2,5.2-2.2,5.1
		s-8.2-2.4-10.9-0.1c-2.4,2.1-5.8,5.4-11.2,6.1c-0.2,0.1-1.8,0.1-2.2,0c-5.4-0.7-8.8-4.1-11.2-6.1c-2.7-2.3-8.9,0-10.9,0.1
		s-0.7-4.9-2.2-5.1c-4-0.5-12.8-3.4-7.6-5.1c7.4-2.4,11.5-7.5,13.4-11.6c1.7-3.6,1-6-0.8-6.8c-2-0.9-7.6-1.1-6.6-4.8
		c1.1-3.8,7.4-0.6,7.4-0.6s1.7,0.4,1.7-1.5c0-4.8-2.2-14.5,3.4-21c3.9-4.5,9.5-6,12.4-6.4l0,0h0.2c1-0.2,1.9-0.2,1.9-0.2
		s0.9,0,1.9,0.2h0.2l0,0c2.9,0.5,8.5,1.9,12.4,6.4c5.6,6.5,3.4,16.2,3.4,21c0,2,1.7,1.5,1.7,1.5s6.4-3.2,7.4,0.6
		c1,3.7-4.6,3.9-6.6,4.8c-1.8,0.8-2.5,3.2-0.8,6.8c2,4.1,6,9.2,13.4,11.6C88.1,70,79.4,72.9,75.4,73.4z"/>
</g>
</svg>
