<?xml version="1.0" encoding="utf-8"?>
<!-- Generator: Adobe Illustrator 21.0.0, SVG Export Plug-In . SVG Version: 6.00 Build 0)  -->
<svg version="1.1" id="Layer_1" xmlns="http://www.w3.org/2000/svg" xmlns:xlink="http://www.w3.org/1999/xlink" x="0px" y="0px"
	 viewBox="0 0 100 100" style="enable-background:new 0 0 100 100;" xml:space="preserve">
<path d="M50,0C22.4,0,0,22.4,0,50s22.4,50,50,50s50-22.4,50-50S77.6,0,50,0z M80.8,37.5c-1.7,10.9-12.6,24.2-20.5,31.9
	c-4.3,4.2-7.5,7.8-15.3,7.5c-8.3-4.5-9.6-19.6-13.3-30.8c-0.9-2.8-2.2-7.1-4.4-7.5c-2.4-0.4-3.3,2.2-5.3,2.8c-1.3-1-2.2-2.4-3.1-3.9
	c2.7-2.4,5.3-4.8,8.3-7.5c3.6-3.2,11.6-9.8,16.4-3.3c5.2,7.1,2.3,25.7,9.4,30.8c2.6-1,4.6-4.4,6.7-7.8c1.9-3.2,4.1-6.9,3.1-10.5
	c0,0-0.6,0.5-0.6,0c0.1-2.3-4.2-2.4-8.1-1.4c1.5-4,2.6-7.1,5-9.7c3.4-3.8,13.3-7.4,18.6-3.1C80.3,27.1,81.6,32.6,80.8,37.5z"/>
</svg>
