<?xml version="1.0" encoding="utf-8"?>
<!-- Generator: Adobe Illustrator 16.0.0, SVG Export Plug-In . SVG Version: 6.00 Build 0)  -->
<!DOCTYPE svg PUBLIC "-//W3C//DTD SVG 1.1//EN" "http://www.w3.org/Graphics/SVG/1.1/DTD/svg11.dtd">
<svg version="1.1" id="Facebook" xmlns="http://www.w3.org/2000/svg" xmlns:xlink="http://www.w3.org/1999/xlink" x="0px" y="0px"
	 width="612px" height="792px" viewBox="0 0 612 792" enable-background="new 0 0 612 792" xml:space="preserve">
<path fill="#FFFFFF" d="M306,90C137.088,90,0,227.088,0,396s137.088,306,306,306s306-137.088,306-306S474.912,90,306,90z
	 M348.84,315.828c21.42,0,44.064-0.612,65.484,0.612c-0.612,22.644,0,46.512-0.612,69.156c-21.42,0-43.452,0-64.872,0
	c0,71.604,0,142.596,0,214.2c-30.6,0-61.2,0-91.8,0c0-71.604,0-142.596,0-214.2c-18.972-0.612-39.168,0-58.752-0.612
	c0-23.256,0-46.512,0-69.768c19.584,0,39.168,0,58.14,0c0.612-18.36,0-34.884,1.224-49.572c1.224-14.688,6.12-26.928,12.852-37.332
	c13.464-19.584,35.496-35.496,65.484-36.72c24.479-1.224,52.02,0.612,78.336,0.612c0,23.256,0.611,47.124-0.612,69.768
	c-12.852,0.612-26.315-1.224-37.332,0c-11.628,1.224-20.196,7.956-23.868,16.524C347.004,288.9,348.84,301.752,348.84,315.828z"/>
</svg>
