<?xml version="1.0" encoding="utf-8"?>
<!-- Generator: Adobe Illustrator 21.0.0, SVG Export Plug-In . SVG Version: 6.00 Build 0)  -->
<svg version="1.1" id="RSS" xmlns="http://www.w3.org/2000/svg" xmlns:xlink="http://www.w3.org/1999/xlink" x="0px" y="0px"
	 viewBox="0 0 100 100" style="enable-background:new 0 0 100 100;" xml:space="preserve">
<path d="M50,0C22.4,0,0,22.4,0,50s22.4,50,50,50s50-22.4,50-50S77.6,0,50,0z M36.3,73.7c-2.3,4.2-8.6,4.9-11.8,1.5
	c-1-1.1-1.9-2.7-2-4.6c-0.1-1.8,0.6-3.7,1.1-4.5c0.6-0.9,1.7-2,2.6-2.5c0.7-0.4,1.6-0.7,2.7-0.8c3.4-0.4,6,1.4,7.2,3.5
	C37.5,68.5,37.5,71.6,36.3,73.7z M48.3,77.5c-0.1-8.2-3.3-14-7.6-18.2c-4.2-4.2-10-7.5-18.2-7.6c0-3.4,0-6.9,0-10.3
	c0-0.1,0-0.2,0.1-0.3c11.5,0.3,19.7,4.7,25.6,10.6c5.8,5.8,10.3,14.1,10.5,25.7C55.3,77.5,51.8,77.5,48.3,77.5z M77.5,77.5
	c-3.5,0-7,0-10.5,0C66.6,63.3,61.2,53.4,54,46c-3.6-3.7-8.1-6.7-13.2-9c-5.1-2.4-11.2-3.9-18.3-4c0-3.4,0-6.9,0-10.3
	c0-0.2,0.1-0.2,0.2-0.3c17.5,0.5,29.7,7.1,38.8,16.3c4.5,4.5,8.3,9.9,11.2,16.3C75.5,61.5,77.7,68.9,77.5,77.5z"/>
</svg>
