<?xml version="1.0" encoding="utf-8"?>
<!-- Generator: Adobe Illustrator 16.0.0, SVG Export Plug-In . SVG Version: 6.00 Build 0)  -->
<!DOCTYPE svg PUBLIC "-//W3C//DTD SVG 1.1//EN" "http://www.w3.org/Graphics/SVG/1.1/DTD/svg11.dtd">
<svg version="1.1" id="Layer_1" xmlns="http://www.w3.org/2000/svg" xmlns:xlink="http://www.w3.org/1999/xlink" x="0px" y="0px"
	 width="612px" height="792px" viewBox="0 0 612 792" enable-background="new 0 0 612 792" xml:space="preserve">
<path fill="#FFFFFF" d="M306,90C137.088,90,0,227.088,0,396s137.088,306,306,306s306-137.088,306-306S474.912,90,306,90z
	 M469.404,312.768c1.836,55.692-14.076,100.368-34.885,135.251c-20.195,34.272-47.735,61.813-80.783,81.396
	c-33.049,20.196-77.112,34.884-129.132,33.048c-48.348-1.224-86.904-15.3-118.116-34.271c-1.836-1.225-4.284-2.448-5.508-4.284
	c53.856,6.12,94.86-11.628,124.236-34.272c-21.42-0.611-37.944-7.956-50.184-18.359c-12.24-9.792-22.644-23.256-28.152-40.393
	c11.016,2.448,26.928,1.836,36.72-1.224c-20.196-4.284-34.884-15.3-46.512-28.764c-11.628-12.853-19.584-30.601-19.584-55.081
	c0.612-1.224,2.448,0.612,3.672,1.224c9.18,4.284,20.808,7.956,33.66,8.568c-20.808-14.688-41.616-42.84-35.496-82.62
	c1.836-11.628,5.508-21.42,10.404-29.988c5.508,5.508,10.404,11.628,15.912,17.136c37.944,37.944,86.904,65.484,157.896,70.992
	c-9.792-43.452,12.853-75.888,40.393-91.8c15.3-8.568,36.72-12.852,57.527-8.568c18.973,3.672,33.66,13.464,44.677,24.48
	c20.808-3.672,37.332-11.628,53.243-20.196c-7.344,20.196-18.972,36.108-36.72,45.9c17.136-1.224,33.66-7.344,47.736-12.852
	C500.004,285.84,485.316,299.916,469.404,312.768z"/>
</svg>
