<?xml version="1.0" encoding="utf-8"?>
<!-- Generator: Adobe Illustrator 21.0.0, SVG Export Plug-In . SVG Version: 6.00 Build 0)  -->
<svg version="1.1" id="Layer_1" xmlns="http://www.w3.org/2000/svg" xmlns:xlink="http://www.w3.org/1999/xlink" x="0px" y="0px"
	 viewBox="0 0 100 100" style="enable-background:new 0 0 100 100;" xml:space="preserve">
<g id="Layer_2">
</g>
<g id="Layer_1_1_">
	<g>
		<path d="M39.9,44.6c1-0.8,1.5-2,1.5-3.7c0-1-0.2-1.7-0.5-2.3s-0.8-1.1-1.4-1.4c-0.6-0.3-1.2-0.6-2-0.7c-0.7-0.1-1.5-0.2-2.3-0.2
			h-8.4v9.5h9.1C37.5,45.7,38.8,45.3,39.9,44.6z"/>
		<path d="M41.3,53.2c-1.2-0.9-2.7-1.3-4.7-1.3h-9.8v11.2h9.6c0.9,0,1.7-0.1,2.5-0.3s1.5-0.5,2.1-0.9s1.1-0.9,1.5-1.6
			c0.4-0.7,0.5-1.6,0.5-2.6C43,55.6,42.4,54.1,41.3,53.2z"/>
		<path d="M69.5,45.8c-1.3,0-2.4,0.2-3.2,0.7c-0.8,0.4-1.5,1-2.1,1.6c-0.5,0.7-0.9,1.3-1.1,2.1c-0.2,0.7-0.3,1.4-0.4,1.9H76
			c-0.2-2.1-0.9-3.6-1.9-4.7C73.2,46.3,71.5,45.8,69.5,45.8z"/>
		<path d="M50,0C22.4,0,0,22.4,0,50s22.4,50,50,50s50-22.4,50-50S77.6,0,50,0z M61.1,32h16.5v4H61.1V32z M50.8,63.5
			c-0.8,1.5-1.9,2.7-3.2,3.7c-1.4,1-2.9,1.7-4.6,2.1c-1.7,0.5-3.5,0.7-5.3,0.7H17.8V29.2H37c2,0,3.7,0.2,5.3,0.5s3,0.9,4.1,1.7
			c1.1,0.8,2,1.8,2.7,3.1c0.6,1.3,0.9,2.9,0.9,4.8c0,2.1-0.5,3.8-1.4,5.1c-0.9,1.4-2.3,2.5-4.2,3.4c2.5,0.7,4.4,2,5.6,3.8
			c1.2,1.8,1.8,4,1.8,6.5C52,60.2,51.6,62,50.8,63.5z M84.1,57.2H62.8c0,2.3,0.8,4.5,2,5.7c1.2,1.2,3,1.8,5.2,1.8
			c1.6,0,3.1-0.4,4.2-1.2c1.2-0.8,1.9-1.7,2.2-2.6h7.1c-1.1,3.6-2.9,6.1-5.3,7.6c-2.3,1.5-5.2,2.3-8.6,2.3c-2.3,0-4.4-0.4-6.3-1.1
			c-1.9-0.8-3.4-1.8-4.8-3.2c-1.3-1.4-2.3-3-3-4.9s-1.1-4-1.1-6.3c0-2.2,0.4-4.3,1.1-6.2c0.7-1.9,1.8-3.6,3.1-4.9
			c1.3-1.4,2.9-2.5,4.8-3.3s3.9-1.2,6.2-1.2c2.5,0,4.7,0.5,6.6,1.5s3.4,2.3,4.6,3.9c1.2,1.6,2.1,3.5,2.6,5.6
			C84.1,52.7,84.3,54.9,84.1,57.2z"/>
	</g>
</g>
</svg>
