<?xml version="1.0" encoding="utf-8"?>
<!-- Generator: Adobe Illustrator 21.0.0, SVG Export Plug-In . SVG Version: 6.00 Build 0)  -->
<svg version="1.1" id="Layer_1" xmlns="http://www.w3.org/2000/svg" xmlns:xlink="http://www.w3.org/1999/xlink" x="0px" y="0px"
	 viewBox="0 0 100 100" style="enable-background:new 0 0 100 100;" xml:space="preserve">
<path d="M50,0C22.4,0,0,22.4,0,50s22.4,50,50,50s50-22.4,50-50S77.6,0,50,0z M58.3,69.2c-6.8-3.7-14.3-6.7-21.2-10.3
	c-6.5,4.4-15,1.2-17.2-4.8c-2.8-7.6,2.9-16.5,13-14.8c1.7,0.3,2.9,1.2,4.5,2.1c6.9-3.4,13.7-6.9,20.9-10c0-7.3,6.1-13.3,14.5-11.1
	c11.6,3,9.9,22-4,21.4c-3-0.1-4.4-1-6.9-2.9c-6.8,3.3-13.7,6.6-20.4,10c-1,3.3,2.3,4.2,4.5,5.3c4.8,2.4,11.1,4.9,15.1,7.4
	c2.2-0.9,3.5-2.2,5.6-2.6c7.2-1.6,13.8,3.3,14,10.3C81.1,83.7,57.7,83.9,58.3,69.2z"/>
</svg>
