<?xml version="1.0" encoding="utf-8"?>
<!-- Generator: Adobe Illustrator 16.0.0, SVG Export Plug-In . SVG Version: 6.00 Build 0)  -->
<!DOCTYPE svg PUBLIC "-//W3C//DTD SVG 1.1//EN" "http://www.w3.org/Graphics/SVG/1.1/DTD/svg11.dtd">
<svg version="1.1" id="Layer_1" xmlns="http://www.w3.org/2000/svg" xmlns:xlink="http://www.w3.org/1999/xlink" x="0px" y="0px"
	 width="612px" height="792px" viewBox="0 0 612 792" enable-background="new 0 0 612 792" xml:space="preserve">
<g>
	<path fill="#FFFFFF" d="M306,90C137.088,90,0,227.088,0,396s137.088,306,306,306s306-137.088,306-306S474.912,90,306,90z
		 M500.616,464.544c-3.672,13.464-4.896,17.748-6.732,21.42l-1.224,2.448c-16.524,37.943-53.244,62.424-129.132,70.38H255.816
		c-70.992-7.956-111.384-32.437-131.58-69.768c0,0-0.612-1.225-1.224-2.448c-1.836-3.672-3.672-7.956-5.508-12.24
		c-1.224-1.836-1.224-1.224-1.224-3.06c-7.344-20.196-10.404-43.452-10.404-69.769c0-34.272,12.24-62.424,33.048-84.456
		c-3.06-7.956-14.076-40.392,3.06-83.232c0,0,26.316-8.568,86.904,32.436c25.092-6.732,52.632-10.404,78.948-10.404
		c24.48,0,48.96,3.06,71.604,8.568c42.228-28.152,67.319-31.824,77.724-31.824c4.284,0,6.12,0.612,6.12,0.612
		c14.688,36.72,9.18,64.872,5.508,77.724c22.644,22.644,36.72,52.632,36.72,89.964C506.124,427.824,504.288,451.08,500.616,464.544z
		"/>
	<path fill="#FFFFFF" d="M416.771,384.984c-11.016-11.628-26.315-14.688-44.063-14.688c-18.972,0-40.392,3.672-63.036,3.672
		c-44.676,0-83.844-12.852-107.1,11.628c-14.076,14.688-22.032,32.436-22.032,52.02c0,80.172,58.14,92.412,129.744,92.412
		c71.604,0,129.744-2.448,129.744-92.412C438.804,418.032,430.848,400.284,416.771,384.984L416.771,384.984z M239.292,486.576
		c-14.688,0-26.928-20.196-26.928-44.676c0-25.093,12.24-44.677,26.928-44.677S266.22,417.42,266.22,441.9
		C266.22,466.38,253.98,486.576,239.292,486.576z M383.724,486.576c-14.688,0-26.928-20.196-26.928-44.676
		c0-25.093,12.24-44.677,26.928-44.677c14.688,0,26.929,20.196,26.929,44.677C410.652,466.38,399.024,486.576,383.724,486.576z"/>
</g>
</svg>
