<?xml version="1.0" encoding="utf-8"?>
<!-- Generator: Adobe Illustrator 16.0.0, SVG Export Plug-In . SVG Version: 6.00 Build 0)  -->
<!DOCTYPE svg PUBLIC "-//W3C//DTD SVG 1.1//EN" "http://www.w3.org/Graphics/SVG/1.1/DTD/svg11.dtd">
<svg version="1.1" id="YouTube" xmlns="http://www.w3.org/2000/svg" xmlns:xlink="http://www.w3.org/1999/xlink" x="0px" y="0px"
	 width="612px" height="792px" viewBox="0 0 612 792" enable-background="new 0 0 612 792" xml:space="preserve">
<g>
	<path fill="#FFFFFF" d="M235.008,429.66c0-7.956,0-15.3,0-23.256c-23.256,0-46.512,0-69.156,0c-0.612,0,0,0.611,0,0.611
		c0,7.345,0,14.688,0,22.032c7.956,0,16.524-0.612,23.256,0c0,41.616,0,83.844,0,125.46c7.344,0,15.3,0,22.644,0
		c0-41.616-0.612-84.456,0-126.072C219.708,429.66,227.052,429.66,235.008,429.66z"/>
	<path fill="#FFFFFF" d="M272.34,516.564c0,3.672,0.612,7.955,0,10.403c-0.612,3.061-8.568,9.181-12.852,8.568
		c-6.12-0.612-4.284-12.853-4.284-19.584c0-24.48,0-47.736,0-71.604c-6.732,0-13.464,0-19.584,0c-0.612,0,0,0.612,0,0.612
		c0,23.868,0,55.08,0,81.396c0,9.793-0.612,18.973,3.06,23.868c7.344,11.017,24.48,1.836,29.988-3.672
		c1.224-1.224,2.448-3.06,4.284-3.672c0,3.672,0,7.956,0,11.628c6.732,0,13.464,0,20.196,0c0-36.72,0-73.439,0-110.16
		c-6.732,0-13.464,0-20.196,0C272.34,467.604,272.34,493.92,272.34,516.564z"/>
	<g>
		<path fill="#FFFFFF" d="M283.968,307.872c0,4.896-0.612,13.464,1.224,16.524c3.672,5.508,13.464,3.06,15.3-1.836
			c1.836-4.284,0.612-11.628,0.612-16.524c0-13.464,0-21.42,0-34.272c0-6.12,1.224-13.464-0.612-16.524
			c-1.836-3.672-6.732-4.284-9.792-3.672c-8.568,1.224-6.732,12.24-6.732,21.42C283.968,282.168,283.968,298.08,283.968,307.872z"/>
		<path fill="#FFFFFF" d="M306,90C137.088,90,0,227.088,0,396s137.088,306,306,306s306-137.088,306-306S474.912,90,306,90z
			 M339.048,291.348c0-20.196,0-39.168,0-56.304c6.12-0.612,14.076-0.612,20.196,0c0,13.464,0,27.54,0,42.228s-1.225,29.988,0,42.84
			c1.224,7.344,6.731,6.732,11.628,3.06c1.836-1.224,4.896-3.672,5.508-5.508c0.612-2.448,0-7.344,0-10.404
			c0-22.644,0-49.572,0-71.604c6.12-0.612,14.076-0.612,20.196,0c0,36.108,0,72.216,0,108.324c-6.12,0.612-14.076,0.612-20.196,0
			c0-3.672,0-7.344,0-11.016c-4.896,5.508-20.808,19.584-31.824,10.404C335.988,335.412,339.048,307.26,339.048,291.348z
			 M288.864,231.984c14.688-1.224,24.479,4.284,29.376,12.852c5.508,9.18,3.672,29.988,3.672,43.452s1.224,34.884-3.061,44.064
			c-6.731,12.852-28.151,18.972-42.228,9.792c-7.344-4.284-12.24-12.852-12.852-22.032c-1.224-9.792,0-21.42,0-32.436
			c0-16.524-1.836-33.048,3.06-42.228C270.504,238.716,277.848,233.208,288.864,231.984z M187.884,196.488
			c6.732-0.612,15.3,0,22.644,0c4.896,17.136,9.18,34.884,13.464,52.02c0.612,2.448,0.612,4.896,2.448,6.732
			c1.836-1.836,1.836-4.896,2.448-6.732c4.284-17.136,8.568-35.496,12.852-52.02c7.344,0,14.688,0,22.644,0
			c-6.732,24.48-15.3,50.184-22.644,75.276c-1.224,3.672-3.06,7.344-3.06,11.016c-0.612,4.896,0,10.404,0,15.3
			c0,15.912,0,30.6,0,45.9c-7.344,0-15.3,0.612-22.644,0c0-9.792,0-19.584,0-28.764c0-9.792,1.224-19.584,0-28.764
			c-0.612-3.672-2.448-7.344-3.06-11.016C203.796,248.508,196.452,221.58,187.884,196.488L187.884,196.488z M471.24,542.268
			c0,29.988-23.868,53.856-53.856,53.856h-223.38c-29.988,0-53.856-23.868-53.856-53.856V426.6
			c0-29.987,23.868-53.855,53.856-53.855h223.38c29.988,0,53.856,23.868,53.856,53.855V542.268z"/>
	</g>
	<path fill="#FFFFFF" d="M370.26,502.488c0-12.853,0.612-25.704,0-34.272c-0.611-9.18-3.06-17.136-7.956-20.808
		c-6.731-5.508-17.136-4.284-23.256,0c-2.448,1.836-4.284,4.284-6.731,5.508c0-15.3,0-31.212,0-46.512c-6.732,0-13.465,0-20.196,0
		c-0.612,0,0,0.611,0,0.611c0,49.572,0,98.532,0,148.104c6.731,0,13.464,0,20.196,0c0-2.448,0-5.508,0-7.956
		c5.508,6.731,17.748,12.24,28.151,7.344c5.508-3.06,9.181-9.792,9.792-17.748C370.872,526.968,370.26,514.728,370.26,502.488z
		 M346.392,539.208c-4.896,3.06-10.403-1.224-13.464-4.284c0-14.688,0-33.66,0-50.184c0-5.508-1.224-12.853,0-16.524
		c1.225-3.672,7.956-6.731,12.853-3.672c6.731,3.672,3.672,26.928,3.672,37.332c0,6.732,0,13.464,0,20.808
		C349.452,528.804,350.064,536.76,346.392,539.208z"/>
	<path fill="#FFFFFF" d="M444.924,514.728c-6.731,0-14.076,0-20.808,0c-0.612,7.956,1.836,19.584-3.672,23.257
		c-1.836,1.224-6.12,2.447-9.792,0.611c-8.568-3.672-3.061-23.868-4.896-34.884c12.853,0,25.704,0,38.556,0
		c-0.611-15.3,1.225-29.988-1.224-42.228c-3.06-12.24-13.464-20.196-29.376-19.584c-14.688,0.611-26.315,11.016-28.152,23.867
		c-1.836,12.853-0.611,32.437-0.611,49.572c0,18.36,1.836,30.601,12.239,37.944c8.568,6.12,24.48,6.731,34.885,0.612
		C443.088,547.776,445.536,534.312,444.924,514.728z M408.204,465.768c2.448-3.672,9.18-3.672,12.852-1.224
		c4.896,3.672,3.061,13.464,3.672,20.808c-6.119,0-12.239,0-17.748,0C406.368,478.008,405.144,470.052,408.204,465.768z"/>
</g>
</svg>
