<?xml version="1.0" encoding="utf-8"?>
<!-- Generator: Adobe Illustrator 21.0.0, SVG Export Plug-In . SVG Version: 6.00 Build 0)  -->
<svg version="1.1" id="Picasa" xmlns="http://www.w3.org/2000/svg" xmlns:xlink="http://www.w3.org/1999/xlink" x="0px" y="0px"
	 viewBox="0 0 100 100" style="enable-background:new 0 0 100 100;" xml:space="preserve">
<path d="M50,0C22.4,0,0,22.4,0,50s22.4,50,50,50s50-22.4,50-50S77.6,0,50,0z M48.6,17.2c6.8-0.3,13,1.5,17.2,4
	c0.3,6.6,0.4,13.3,0.6,19.9c0,0.2-0.6-0.3-0.8-0.5c-6.3-5.3-12.7-10.8-19.1-16.2c-2.2-1.9-4.6-3.6-6.6-5.6
	C42.5,17.9,45.2,17.4,48.6,17.2z M17.8,56.4c-2.4-12.7,2.5-22.9,8.9-29.5c2.3-2.3,5.2-4.5,8-5.8c4.2,3.6,8.4,7.2,12.6,10.8
	c-9.4,8-19.1,15.9-28.6,24C18.4,56,18.1,56.3,17.8,56.4z M30.9,76.7c-2.5-1.6-4.9-4-6.7-6.3c-1.8-2.2-3.2-4.6-4.4-7.6
	c-0.2-0.4-0.5-0.9-0.5-1.1c0-0.4,0.9-1,1.4-1.4c1.5-1.3,3-2.7,4.4-3.9c2.2-1.9,4.1-3.6,6-5.3c0.3,8.4,0.2,17.2,0.4,25.7
	C31.3,77.1,31,76.8,30.9,76.7z M63.6,79.9c-3.5,1.6-8.2,2.8-13.1,2.9c-5.1,0.2-9.6-1.1-13.3-2.7c0-5.2,0.1-10.4,0.2-15.6
	c14.1,0,28-0.1,42.2-0.1C76.2,71.2,70.8,76.6,63.6,79.9z M81.2,60.5c-3.4,0-6.8,0-10.2,0c-0.1-11.9-0.2-23.9-0.3-35.8
	c0-0.1,0.1-0.1,0.1-0.1c4.6,3.7,8.2,8.6,10.3,14.8c1,3,1.7,6.7,1.7,10.6C82.8,53.7,82.3,57.4,81.2,60.5z"/>
</svg>
